<svg width="19" height="30" viewBox="0 0 19 30" fill="none" xmlns="http://www.w3.org/2000/svg">
<path d="M18.6586 20.5164C18.6686 17.7357 18.6584 8.80889 18.6582 8.7203C18.6633 7.44677 17.7028 6.44521 16.4716 6.44023H16.4623C15.9777 6.44023 15.5278 6.5963 15.1596 6.86113V4.82464C15.162 4.21819 14.9344 3.64774 14.5187 3.21849C14.1001 2.7863 13.5387 2.54694 12.9379 2.54451H12.9287C12.449 2.54451 12.0035 2.69904 11.6383 2.96164V2.28C11.6407 1.67343 11.4092 1.10221 10.9862 0.671553C10.5632 0.240957 9.99948 0.00248936 9.39886 0H9.38964C8.14436 0 7.12717 1.01464 7.12224 2.26366V2.93387C6.75895 2.6723 6.31635 2.51757 5.83961 2.51566H5.83044C4.57796 2.51566 3.55496 3.5303 3.54997 4.77938V9.80923C3.18434 9.54587 2.73819 9.39 2.25766 9.38802H2.24844C1.01365 9.38802 0.00499432 10.4027 1.31675e-06 11.6526C6.45194e-05 11.715 0.0105562 17.9216 1.31675e-06 20.574C-6.18859e-05 20.6007 0.00215045 20.6271 0.00657464 20.6531C0.047846 25.8142 4.23622 30 9.37858 30C11.8712 30 14.2072 29.0271 15.9565 27.2606C17.7058 25.4941 18.6692 23.1349 18.6692 20.6176C18.6692 20.5828 18.6656 20.549 18.6586 20.5164ZM12.934 3.50196C13.2791 3.50336 13.6011 3.64047 13.8409 3.888C14.0814 4.13623 14.213 4.46751 14.2116 4.82272V14.4581L11.6383 14.4499V4.81021C11.6412 4.08887 12.2201 3.50196 12.934 3.50196ZM9.37858 29.0426C4.73344 29.0426 0.954298 25.2444 0.954298 20.5759C0.954298 20.5504 0.952275 20.5254 0.948357 20.5009C0.958469 17.8049 0.948167 11.7128 0.948104 11.6537C0.950948 10.9324 1.53431 10.3455 2.25387 10.3455C2.96572 10.3483 3.54719 10.9351 3.55003 11.6515V19.0462C3.55003 19.3099 3.76106 19.5239 4.02215 19.525C5.34018 19.5303 6.57194 20.0546 7.49052 21.0012C8.40772 21.9463 8.90993 23.2044 8.90462 24.5435C8.90355 24.8079 9.11496 25.0231 9.37675 25.0241C9.6396 25.0241 9.85165 24.8111 9.85266 24.5473C9.85904 22.9546 9.26058 21.4572 8.16761 20.3309C7.18083 19.3141 5.89188 18.7052 4.49807 18.5882V4.7813C4.50091 4.07215 5.11107 3.47304 5.83582 3.47304C6.5423 3.47591 7.1194 4.06257 7.12224 4.77887V11.0827C7.12224 11.3471 7.33448 11.5614 7.59626 11.5614C7.85805 11.5614 8.07028 11.3471 8.07028 11.0827V2.26557C8.07313 1.54423 8.66502 0.957447 9.39501 0.957447C9.74243 0.958851 10.0684 1.09679 10.3131 1.34585C10.5577 1.59491 10.6917 1.9253 10.6903 2.27802V14.4467L8.07022 14.4383V12.9977C8.07022 12.7333 7.85798 12.5189 7.5962 12.5189C7.33441 12.5189 7.12218 12.7333 7.12218 12.9977V14.4354L6.64968 14.4338C6.38707 14.4338 6.17496 14.6471 6.17414 14.911C6.17332 15.1754 6.38486 15.3904 6.64664 15.3913L14.6323 15.4169C14.6498 15.4189 14.6676 15.4201 14.6856 15.4201C14.7028 15.4201 14.7199 15.419 14.7367 15.4173L15.6321 15.4201C15.8947 15.4201 16.1068 15.2068 16.1076 14.9429C16.1085 14.6786 15.8969 14.4635 15.6351 14.4627L15.1596 14.4611V8.70581C15.1624 7.98447 15.7469 7.39762 16.4677 7.39762C17.1674 7.40043 17.7131 7.97974 17.7102 8.71889C17.7103 8.811 17.7208 17.963 17.7102 20.6156C17.7101 20.65 17.7136 20.6841 17.7206 20.7173C17.6677 25.3173 13.9459 29.0426 9.37858 29.0426Z" fill="#A72121"/>
</svg>
