<svg width="22" height="30" viewBox="0 0 22 30" fill="none" xmlns="http://www.w3.org/2000/svg">
<path d="M11.0951 2.43297C10.9872 2.3234 10.8375 2.26123 10.6848 2.26123C10.5322 2.26123 10.3825 2.32334 10.2745 2.43297C10.1666 2.54195 10.1045 2.69259 10.1045 2.84734C10.1045 3.0015 10.1666 3.15267 10.2745 3.26171C10.3825 3.37075 10.5322 3.43345 10.6848 3.43345C10.8375 3.43345 10.9872 3.3707 11.0951 3.26171C11.2031 3.15214 11.2652 3.0015 11.2652 2.84734C11.2652 2.69318 11.203 2.54195 11.0951 2.43297Z" fill="#2176A7"/>
<path d="M16.9335 15.4149C16.8256 15.3059 16.6759 15.2432 16.5232 15.2432C16.3706 15.2432 16.2209 15.3059 16.1129 15.4149C16.005 15.5239 15.9429 15.6751 15.9429 15.8293C15.9429 15.9834 16.0049 16.1346 16.1129 16.2436C16.2208 16.3532 16.3706 16.4154 16.5232 16.4154C16.6759 16.4154 16.8256 16.3532 16.9335 16.2436C17.0414 16.1347 17.1036 15.9834 17.1036 15.8293C17.1036 15.6751 17.0414 15.5239 16.9335 15.4149Z" fill="#2176A7"/>
<path d="M19.0397 0H2.32627C1.04402 0 0.000976562 1.05351 0.000976562 2.34836V14.0662C0.000976562 15.3611 1.04413 16.4145 2.32627 16.4145H4.99578C5.31621 16.4145 5.57613 16.1521 5.57613 15.8284C5.57613 15.5047 5.31627 15.2423 4.99578 15.2423H2.32627C1.68407 15.2423 1.16162 14.7147 1.16162 14.0661V2.34836C1.16162 1.69979 1.68407 1.17216 2.32627 1.17216H19.0397C19.6819 1.17216 20.2043 1.69979 20.2043 2.34836V14.0662C20.2043 14.7147 19.6819 15.2424 19.0397 15.2424C18.7192 15.2424 18.4593 15.5047 18.4593 15.8285C18.4593 16.1522 18.7192 16.4146 19.0397 16.4146C20.3219 16.4146 21.3649 15.3611 21.3649 14.0662V2.34836C21.365 1.05351 20.3219 0 19.0397 0Z" fill="#2176A7"/>
<path d="M12.3465 9.37039H11.2665V4.97478C11.2665 4.65111 11.0066 4.38867 10.6861 4.38867H9.6222C9.30177 4.38867 9.04185 4.65105 9.04185 4.97478C9.04185 5.29851 9.30171 5.56089 9.6222 5.56089H10.1058V9.37045H9.02566C8.70523 9.37045 8.44531 9.63283 8.44531 9.95656C8.44531 10.2803 8.70517 10.5427 9.02566 10.5427H12.3465C12.6669 10.5427 12.9268 10.2803 12.9268 9.95656C12.9268 9.63283 12.667 9.37039 12.3465 9.37039Z" fill="#2176A7"/>
<path d="M20.7837 28.8273H16.9514V27.069C16.9514 26.7477 16.6952 26.487 16.3779 26.4832L16.774 25.2078C17.1068 24.1357 17.2756 23.0224 17.2756 21.8989V18.8437C17.2756 17.9203 16.5318 17.169 15.6174 17.169C15.4331 17.169 15.256 17.1999 15.0903 17.2562C14.9446 16.482 14.2699 15.8948 13.4615 15.8948C13.2345 15.8948 13.0181 15.9412 12.8209 16.025C12.5623 15.4391 11.9807 15.0295 11.3056 15.0295C11.1323 15.0295 10.9652 15.0565 10.8081 15.1066V13.8256C10.8081 12.9022 10.0642 12.1509 9.14979 12.1509C8.23538 12.1509 7.49153 12.9021 7.49153 13.8256V18.5909L7.31655 18.2637C6.87167 17.4316 5.86837 17.1137 5.03245 17.5395C4.31715 17.904 3.94874 18.7078 4.13666 19.4944L4.95738 22.93C5.1533 23.7503 5.50263 24.5116 5.9956 25.1928L6.94263 26.5017C6.69164 26.5663 6.5057 26.7954 6.5057 27.069V28.8273H0.580351C0.259919 28.8273 0 29.0896 0 29.4134C0 29.737 0.259861 29.9995 0.580351 29.9995H20.7838C21.1042 29.9995 21.3641 29.7371 21.3641 29.4134C21.3641 29.0896 21.1042 28.8273 20.7837 28.8273ZM15.7908 28.8273H7.66622V27.6551H8.07171C8.07188 27.6551 8.07206 27.6551 8.07223 27.6551C8.07246 27.6551 8.07275 27.6551 8.07299 27.6551H15.5842C15.5855 27.6551 15.5868 27.6552 15.588 27.6552C15.5892 27.6552 15.5904 27.6551 15.5916 27.6551H15.7908V28.8273ZM16.1148 21.8989C16.1148 22.9032 15.9639 23.8986 15.6663 24.857L15.1614 26.4829H8.36638L6.93253 24.5011C6.53035 23.9454 6.24537 23.3242 6.08547 22.655L5.26476 19.2194C5.2039 18.9645 5.32324 18.7041 5.55502 18.586C5.82619 18.4479 6.15109 18.5511 6.29515 18.8206L7.56104 21.188C7.68728 21.4241 7.95631 21.5434 8.21385 21.4777C8.47145 21.412 8.652 21.1779 8.652 20.9095V13.8256C8.652 13.5485 8.87525 13.323 9.14962 13.323C9.42399 13.323 9.64724 13.5485 9.64724 13.8256V19.4074C9.64724 19.7311 9.9071 19.9935 10.2276 19.9935C10.548 19.9935 10.8079 19.7312 10.8079 19.4074V16.7041C10.8079 16.427 11.0312 16.2016 11.3055 16.2016C11.5799 16.2016 11.8031 16.427 11.8031 16.7041V19.4074C11.8031 19.7311 12.063 19.9935 12.3835 19.9935C12.704 19.9935 12.9638 19.7312 12.9638 19.4074V17.5695C12.9638 17.2924 13.1871 17.067 13.4614 17.067C13.7358 17.067 13.959 17.2924 13.959 17.5695V19.4074C13.959 19.7311 14.2189 19.9935 14.5393 19.9935C14.8598 19.9935 15.1197 19.7312 15.1197 19.4074V18.8438C15.1197 18.5667 15.3429 18.3412 15.6173 18.3412C15.8917 18.3412 16.1149 18.5667 16.1149 18.8438V21.8989H16.1148Z" fill="#2176A7"/>
</svg>
