<svg width="30" height="30" viewBox="0 0 30 30" fill="none" xmlns="http://www.w3.org/2000/svg">
<path d="M3.10021 26.2705C2.77977 26.2705 2.52002 26.5328 2.52002 26.8565V26.8657C2.52002 27.1893 2.77977 27.4516 3.10021 27.4516C3.42066 27.4516 3.68041 27.1893 3.68041 26.8657V26.8565C3.68035 26.5328 3.42066 26.2705 3.10021 26.2705Z" fill="#059346"/>
<path d="M3.10021 18.8687C2.77977 18.8687 2.52002 19.131 2.52002 19.4546V24.6694C2.52002 24.993 2.77977 25.2554 3.10021 25.2554C3.42066 25.2554 3.68041 24.993 3.68041 24.6694V19.4546C3.68035 19.131 3.42066 18.8687 3.10021 18.8687Z" fill="#059346"/>
<path d="M29.6634 4.45288C29.5601 4.13237 29.2909 3.9032 28.9606 3.8548L25.7904 3.39043L24.372 0.489856C24.2243 0.18768 23.9253 0 23.5917 0C23.5916 0 23.5916 0 23.5916 0C23.2578 5.85952e-05 22.9587 0.187915 22.811 0.490207L21.3941 3.39167L18.2242 3.85773C17.8939 3.90625 17.6247 4.13559 17.5217 4.45616C17.4186 4.77674 17.5031 5.12198 17.7422 5.35718L20.0366 7.61468L19.4959 10.8034C19.4396 11.1355 19.5723 11.465 19.8424 11.663C19.9949 11.7748 20.1734 11.8317 20.353 11.8317C20.4914 11.8317 20.6306 11.7979 20.7591 11.7296L23.5941 10.2235L26.4298 11.7281C26.7253 11.8849 27.0765 11.8591 27.3464 11.661C27.6163 11.4628 27.7489 11.1333 27.6924 10.8012L27.1501 7.61274L29.4433 5.35396C29.6823 5.11858 29.7666 4.77334 29.6634 4.45288ZM26.2308 6.8813C26.0257 7.0834 25.9322 7.37426 25.9807 7.65933L26.4494 10.4147L23.9987 9.11436C23.7451 8.97989 23.4423 8.97989 23.1887 9.1146L20.7389 10.4162L21.2061 7.66056C21.2544 7.37532 21.1608 7.08445 20.9556 6.88265L18.9728 4.93178L21.7121 4.529C21.9956 4.48734 22.2405 4.30751 22.3674 4.04799L23.5917 1.5407L24.8175 4.04735C24.9444 4.3068 25.1895 4.48652 25.473 4.52806L28.2126 4.92938L26.2308 6.8813Z" fill="#059346"/>
<path d="M10.0299 11.0677C9.92203 10.9581 9.77234 10.896 9.61975 10.896C9.46715 10.896 9.31746 10.9581 9.20955 11.0677C9.10163 11.1767 9.03955 11.3273 9.03955 11.4819C9.03955 11.6361 9.10163 11.7872 9.20955 11.8962C9.31746 12.0052 9.46715 12.0679 9.61975 12.0679C9.77234 12.0679 9.92203 12.0052 10.0299 11.8962C10.1379 11.7866 10.1999 11.6361 10.1999 11.4819C10.1999 11.3278 10.1379 11.1766 10.0299 11.0677Z" fill="#059346"/>
<path d="M24.2732 22.1479C24.7777 21.707 25.0978 21.0566 25.0978 20.3315C25.0978 19.0875 24.1566 18.0615 22.9558 17.9412C23.1737 17.5784 23.2993 17.1532 23.2993 16.6988C23.2993 15.3742 22.2322 14.2965 20.9206 14.2965H14.1808L15.914 10.6834C16.6179 9.21616 16.3945 7.46762 15.345 6.2288L14.6882 5.45365C14.5769 5.32228 14.4127 5.24558 14.2426 5.24862C14.0713 5.25003 13.9095 5.32778 13.8003 5.46103L10.8179 9.10155C10.6136 9.35087 10.6482 9.72026 10.8951 9.92645C11.1419 10.1328 11.5077 10.0979 11.7119 9.84852L14.2547 6.74462L14.4632 6.99072C15.2129 7.87562 15.3724 9.12458 14.8696 10.1726L12.6476 14.8046C12.6094 14.8842 12.5896 14.9716 12.5896 15.06V16.13C12.5896 17.8837 11.1768 19.3105 9.44029 19.3105H8.90506C8.58462 19.3105 8.32487 19.5729 8.32487 19.8965C8.32487 20.2201 8.58462 20.4824 8.90506 20.4824H9.44029C11.8166 20.4824 13.7499 18.5299 13.7499 16.13V15.4684H14.5508C14.3372 15.8286 14.214 16.2493 14.214 16.6988C14.214 17.4239 14.5342 18.0743 15.0386 18.5152C14.5341 18.9561 14.214 19.6066 14.214 20.3316C14.214 21.0566 14.5342 21.7071 15.0386 22.148C14.5341 22.5889 14.214 23.2393 14.214 23.9644C14.214 24.6895 14.5342 25.3399 15.0386 25.7808C14.5341 26.2217 14.214 26.8721 14.214 27.5972C14.214 28.0467 14.3371 28.4674 14.5508 28.8276H9.74008C8.85714 28.8276 7.99265 28.6626 7.1708 28.3369L6.22038 27.9605V16.5516L8.66219 13.571C8.86648 13.3217 8.8319 12.9523 8.58502 12.7461C8.33809 12.5398 7.9724 12.5747 7.76817 12.824L6.15575 14.7922C6.05938 14.6034 5.8649 14.4741 5.64013 14.4741H0.580195C0.259753 14.4741 0 14.7364 0 15.06V29.4133C0 29.737 0.259753 29.9993 0.580195 29.9993H5.64036C5.9608 29.9993 6.22056 29.737 6.22056 29.4133V29.2192L6.74732 29.4279C7.70475 29.8072 8.7118 29.9994 9.74031 29.9994H20.9206C22.2322 29.9994 23.2993 28.9217 23.2993 27.5971C23.2993 27.1427 23.1737 26.7175 22.9558 26.3547C24.1567 26.2344 25.0978 25.2084 25.0978 23.9644C25.0978 23.2392 24.7776 22.5888 24.2732 22.1479ZM5.06017 28.8274H1.16033V15.6459H5.06011V28.8274H5.06017ZM16.5929 15.4683H17.4392H20.9205C21.5924 15.4683 22.1388 16.0204 22.1388 16.6988C22.1388 17.3772 21.5923 17.9292 20.9205 17.9292H16.5929C15.9211 17.9292 15.3746 17.3772 15.3746 16.6988C15.3746 16.0202 15.9211 15.4683 16.5929 15.4683ZM20.9205 28.8275H16.5929C15.9211 28.8275 15.3746 28.2755 15.3746 27.5971C15.3746 26.9186 15.9211 26.3666 16.5929 26.3666H20.9205C21.5924 26.3666 22.1389 26.9186 22.1389 27.5971C22.1389 28.2755 21.5923 28.8275 20.9205 28.8275ZM22.7191 25.1948H20.9205H16.5929C15.9211 25.1948 15.3746 24.6428 15.3746 23.9643C15.3746 23.2858 15.9211 22.7339 16.5929 22.7339H22.7191C23.3908 22.7338 23.9374 23.2859 23.9374 23.9643C23.9374 24.6427 23.3909 25.1948 22.7191 25.1948ZM22.7191 21.5619H16.5929C15.9211 21.5619 15.3746 21.01 15.3746 20.3315C15.3746 19.653 15.9211 19.1011 16.5929 19.1011H20.9205H22.7191C23.391 19.1011 23.9374 19.6531 23.9374 20.3315C23.9374 21.0099 23.3909 21.5619 22.7191 21.5619Z" fill="#059346"/>
</svg>
