<svg width="30" height="30" viewBox="0 0 30 30" fill="none" xmlns="http://www.w3.org/2000/svg">
<path d="M29.7048 19.3555C29.6678 18.685 29.3404 18.0709 28.8063 17.6708C27.9423 17.0233 26.7433 17.0908 25.9557 17.8315L21.1653 22.3371C21.1945 21.3458 20.5493 20.4709 19.583 20.2233L13.7326 18.7237C12.7066 18.4606 11.6323 18.4961 10.6255 18.8263L6.58105 20.1524V18.9771C6.58105 18.6535 6.32121 18.3911 6.00086 18.3911H0.580184C0.259774 18.3911 0 18.6535 0 18.9771V29.4147C0 29.7383 0.259832 30.0007 0.580184 30.0007H6.00092C6.32133 30.0007 6.5811 29.7383 6.5811 29.4147V21.3846L10.9839 19.941C11.7821 19.6792 12.6339 19.6511 13.4472 19.8595L19.2977 21.3592C19.7521 21.4757 20.0481 21.9021 20.0015 22.3734C19.9534 22.8606 19.5514 23.2281 19.0665 23.2281H14.9885C14.6681 23.2281 14.4083 23.4905 14.4083 23.814C14.4083 24.1376 14.6681 24.4 14.9885 24.4H16.2384C16.2602 24.4025 16.2823 24.4041 16.3049 24.4041H19.1822C20.1419 24.4041 21.0573 24.0402 21.7597 23.3797L26.7467 18.6891C27.1247 18.3335 27.7003 18.3012 28.1152 18.612C28.3715 18.804 28.5286 19.0988 28.5464 19.4207C28.5642 19.7426 28.4403 20.0531 28.2067 20.2728L21.3367 26.7317C20.8628 27.1771 20.2452 27.4225 19.5978 27.4225H10.6066C10.2862 27.4225 10.0264 27.6849 10.0264 28.0084C10.0264 28.332 10.2862 28.5944 10.6066 28.5944H19.5979C20.5396 28.5944 21.438 28.2375 22.1274 27.5894L28.9973 21.1305C29.484 20.673 29.7419 20.026 29.7048 19.3555ZM5.42074 28.8288H1.16037V19.5631H5.42068V28.8288H5.42074Z" fill="black" fill-opacity="0.5"/>
<path d="M8.67307 27.595C8.56456 27.486 8.41544 27.4233 8.26289 27.4233C8.10965 27.4233 7.96059 27.486 7.85214 27.595C7.74421 27.704 7.68213 27.8552 7.68213 28.0093C7.68213 28.1633 7.74416 28.3146 7.85214 28.4235C7.96064 28.5325 8.10971 28.5952 8.26289 28.5952C8.4155 28.5952 8.56462 28.5325 8.67307 28.4235C8.78093 28.3145 8.84308 28.1633 8.84308 28.0093C8.84308 27.8552 8.78099 27.704 8.67307 27.595Z" fill="black" fill-opacity="0.5"/>
<path d="M3.69638 26.9891C3.58897 26.8801 3.43927 26.8174 3.28673 26.8174C3.13354 26.8174 2.98384 26.8795 2.87597 26.9891C2.76811 27.0981 2.70654 27.2487 2.70654 27.4033C2.70654 27.5574 2.76811 27.7086 2.87597 27.8176C2.98448 27.9265 3.1336 27.9893 3.28673 27.9893C3.43933 27.9893 3.58845 27.9266 3.69638 27.8176C3.80482 27.7086 3.86691 27.5574 3.86691 27.4033C3.86691 27.2486 3.80482 27.0981 3.69638 26.9891Z" fill="black" fill-opacity="0.5"/>
<path d="M14.8473 0C11.968 0 9.62549 2.36574 9.62549 5.27359C9.62549 6.24289 10.4063 7.03147 11.3661 7.03147C12.3259 7.03147 13.1067 6.24289 13.1067 5.27359C13.1067 4.30429 13.8875 3.51571 14.8473 3.51571C15.8071 3.51571 16.5879 4.30429 16.5879 5.27359C16.5879 6.24289 15.8071 7.03147 14.8473 7.03147C13.8875 7.03147 13.1067 7.82005 13.1067 8.78936V11.309C13.1067 12.2783 13.8875 13.0669 14.8473 13.0669C15.8071 13.0669 16.5879 12.2783 16.5879 11.309V10.2462C18.6588 9.50797 20.0691 7.52447 20.0691 5.27359C20.069 2.36568 17.7265 0 14.8473 0ZM15.8626 9.24556C15.6064 9.31236 15.4275 9.54576 15.4275 9.81286V11.3089C15.4275 11.632 15.1672 11.8948 14.8473 11.8948C14.5274 11.8948 14.2671 11.6319 14.2671 11.3089V8.78924C14.2671 8.46612 14.5274 8.2033 14.8473 8.2033C16.4469 8.2033 17.7483 6.88902 17.7483 5.27353C17.7483 3.65805 16.4469 2.34377 14.8473 2.34377C13.2477 2.34377 11.9463 3.65805 11.9463 5.27353C11.9463 5.59665 11.686 5.85947 11.3662 5.85947C11.0462 5.85947 10.786 5.59659 10.786 5.27353C10.786 3.01186 12.6079 1.17182 14.8474 1.17182C17.0869 1.17182 18.9088 3.01186 18.9088 5.27353C18.9087 7.14434 17.656 8.77769 15.8626 9.24556Z" fill="black" fill-opacity="0.5"/>
<path d="M16.0792 14.936C15.7556 14.6083 15.3069 14.4204 14.848 14.4204C14.3891 14.4204 13.9403 14.6083 13.6179 14.9349C13.2934 15.2616 13.1074 15.7148 13.1074 16.1782C13.1074 16.6416 13.2935 17.0949 13.6173 17.4211C13.9414 17.7484 14.3899 17.9361 14.848 17.9361C15.3061 17.9361 15.7547 17.7483 16.0786 17.4211C16.4027 17.0938 16.5885 16.6408 16.5885 16.1782C16.5886 15.7157 16.4027 15.2627 16.0792 14.936ZM15.258 16.5925C15.1516 16.7 14.9982 16.7642 14.848 16.7642C14.6977 16.7642 14.5443 16.7 14.4373 16.592C14.3312 16.4851 14.2678 16.3304 14.2678 16.1783C14.2678 16.0239 14.3295 15.8731 14.4383 15.7636C14.5442 15.6564 14.6974 15.5924 14.848 15.5924C14.9986 15.5924 15.1517 15.6563 15.258 15.7642C15.3646 15.8716 15.4282 16.0265 15.4282 16.1783C15.4282 16.3301 15.3646 16.4849 15.258 16.5925Z" fill="black" fill-opacity="0.5"/>
<path d="M3.28673 20.769C2.96632 20.769 2.70654 21.0315 2.70654 21.355V25.0759C2.70654 25.3995 2.96632 25.6618 3.28673 25.6618C3.60713 25.6618 3.86691 25.3994 3.86691 25.0759V21.355C3.86691 21.0315 3.60708 20.769 3.28673 20.769Z" fill="black" fill-opacity="0.5"/>
</svg>
