<svg width="165" height="28" viewBox="0 0 165 28" fill="none" xmlns="http://www.w3.org/2000/svg">
<path d="M4.512 22V16.816H7.56C9.216 16.816 10.608 16.312 11.688 15.328C12.768 14.32 13.32 13.024 13.32 11.44C13.32 10 12.816 8.776 11.784 7.744C10.776 6.712 9.336 6.184 7.488 6.184H1.728V22H4.512ZM6.912 8.296C9.312 8.296 10.512 9.712 10.512 11.512C10.512 12.352 10.224 13.096 9.672 13.744C9.12 14.368 8.232 14.68 7.056 14.68H4.488V8.296H6.912ZM20.8099 13.312C21.2899 13.312 21.7459 13.408 22.2019 13.576V11.248C21.8899 11.128 21.5299 11.056 21.0739 11.056C19.5379 11.056 18.4339 11.752 17.7379 13.144C17.6899 13.144 17.6659 13.144 17.6419 13.12L17.2819 11.344H15.4339V22H17.9539V17.08C17.9539 14.8 19.1059 13.312 20.8099 13.312ZM28.6826 11.032C27.0266 11.032 25.6346 11.584 24.5066 12.664C23.4026 13.744 22.8506 15.064 22.8506 16.648C22.8506 18.256 23.3786 19.6 24.4346 20.656C25.4906 21.712 26.9066 22.24 28.6826 22.24C30.3866 22.24 31.7546 21.712 32.8346 20.656C33.9146 19.6 34.4666 18.256 34.4666 16.648C34.4666 15.04 33.9386 13.696 32.8586 12.64C31.7786 11.56 30.3866 11.032 28.6826 11.032ZM25.3946 16.6C25.3946 15.616 25.7066 14.776 26.3066 14.104C26.9306 13.408 27.7226 13.072 28.7066 13.072C29.6906 13.072 30.4826 13.408 31.0826 14.104C31.7066 14.776 32.0186 15.616 32.0186 16.6C32.0186 18.64 30.7226 20.2 28.7066 20.2C26.6666 20.2 25.3946 18.712 25.3946 16.6ZM39.7809 7.912C39.7809 7.12 39.1809 6.472 38.3409 6.472C37.5489 6.472 36.8529 7.12 36.8529 7.912C36.8529 8.752 37.4769 9.376 38.3409 9.376C39.1809 9.376 39.7809 8.752 39.7809 7.912ZM34.9809 27.496C37.7409 27.328 39.5649 25.744 39.5649 22.12V11.32H37.0449V21.976C37.0449 24.304 36.3009 25.336 34.0689 25.456C34.1649 25.696 34.3089 26.032 34.5249 26.488L34.9809 27.496ZM47.5397 11.008C45.9797 11.008 44.6837 11.56 43.6517 12.64C42.6437 13.72 42.1397 15.04 42.1397 16.624C42.1397 18.304 42.6437 19.672 43.6757 20.704C44.7077 21.736 46.1717 22.264 48.0437 22.264C49.6517 22.264 51.0437 21.88 52.1717 21.088V19C50.9477 19.864 49.6517 20.296 48.2357 20.296C46.2437 20.296 44.8037 19.24 44.6837 17.152H52.6757V16.552C52.6757 14.896 52.2197 13.576 51.2837 12.544C50.3717 11.512 49.1237 11.008 47.5397 11.008ZM47.6357 12.904C49.0997 12.904 50.0837 13.888 50.3477 15.496H44.7557C45.0197 13.96 46.0997 12.904 47.6357 12.904ZM60.3913 11.032C58.7353 11.032 57.3433 11.584 56.2633 12.664C55.1833 13.744 54.6553 15.112 54.6553 16.768C54.6553 18.376 55.1353 19.696 56.0953 20.728C57.0553 21.76 58.3993 22.264 60.1513 22.264C61.5433 22.264 62.6713 22.024 63.5353 21.544V19.456C62.7433 19.96 61.8073 20.224 60.7273 20.224C59.6473 20.224 58.8073 19.912 58.1593 19.288C57.5353 18.64 57.2233 17.8 57.2233 16.72C57.2233 14.44 58.7353 13.048 60.7753 13.048C61.6873 13.048 62.4793 13.24 63.1513 13.648V11.512C62.4073 11.2 61.4713 11.032 60.3913 11.032ZM66.5719 11.248L64.6519 11.8V13.24H66.3559V18.208C66.3559 20.872 67.1479 22.24 69.6679 22.24C70.6519 22.24 71.5159 22 72.2359 21.52V19.528C71.5879 19.936 70.9399 20.152 70.3399 20.152C69.2599 20.152 68.8759 19.576 68.8759 18.352V13.24H71.8039V11.32H68.8759V7.936H68.3719L66.5719 11.248ZM93.6161 22L88.4321 13.816L93.2801 6.184H90.2801L86.0801 13.384L81.8321 6.184H78.8801L83.6801 13.816L78.5201 22H81.4721L86.0801 14.272L90.5921 22H93.6161ZM100.761 14.2C100.761 16.552 101.481 18.472 102.897 19.984C104.313 21.496 106.329 22.24 108.897 22.24C111.129 22.24 112.929 21.928 114.345 21.304V13.984H111.849V19.528C111.009 19.864 110.121 20.032 109.185 20.032C107.385 20.032 105.993 19.504 105.009 18.424C104.049 17.344 103.569 15.928 103.569 14.224C103.569 12.376 104.121 10.888 105.225 9.808C106.353 8.704 107.769 8.152 109.473 8.152C111.033 8.152 112.425 8.488 113.673 9.16V6.688C112.545 6.112 111.081 5.824 109.281 5.824C106.761 5.824 104.721 6.616 103.137 8.224C101.553 9.832 100.761 11.824 100.761 14.2ZM117.293 17.872C117.293 20.752 118.637 22.192 121.325 22.192C122.765 22.192 123.917 21.64 124.757 20.536H124.853L125.237 22H127.157V11.32H124.637V16.72C124.637 19.048 123.581 20.2 121.949 20.2C120.629 20.2 119.813 19.144 119.813 17.536V11.296H117.293V17.872ZM132.775 4.936H130.231V22H132.775V4.936ZM140.633 11.008C139.073 11.008 137.777 11.56 136.745 12.64C135.737 13.72 135.233 15.04 135.233 16.624C135.233 18.304 135.737 19.672 136.769 20.704C137.801 21.736 139.265 22.264 141.137 22.264C142.745 22.264 144.137 21.88 145.265 21.088V19C144.041 19.864 142.745 20.296 141.329 20.296C139.337 20.296 137.897 19.24 137.777 17.152H145.769V16.552C145.769 14.896 145.313 13.576 144.377 12.544C143.465 11.512 142.217 11.008 140.633 11.008ZM140.729 12.904C142.193 12.904 143.177 13.888 143.441 15.496H137.849C138.113 13.96 139.193 12.904 140.729 12.904ZM149.189 11.248L147.269 11.8V13.24H148.973V18.208C148.973 20.872 149.765 22.24 152.285 22.24C153.269 22.24 154.133 22 154.853 21.52V19.528C154.205 19.936 153.557 20.152 152.957 20.152C151.877 20.152 151.493 19.576 151.493 18.352V13.24H154.421V11.32H151.493V7.936H150.989L149.189 11.248ZM155.732 21.328C156.812 21.928 158.084 22.24 159.572 22.24C162.164 22.24 163.748 20.92 163.748 19.024C163.748 15.544 158.54 15.664 158.54 14.104C158.54 13.336 159.092 12.952 160.22 12.952C161.18 12.952 162.188 13.24 163.22 13.84V11.776C162.14 11.296 161.012 11.056 159.86 11.056C157.652 11.056 156.044 12.184 156.044 14.08C156.044 17.248 161.3 17.128 161.3 19.144C161.3 19.984 160.628 20.416 159.284 20.416C158.06 20.416 156.86 19.984 155.732 19.144V21.328Z" fill="#00204E"/>
</svg>
