<svg fill="none" height="14" viewBox="0 0 11 14" width="11" xmlns="http://www.w3.org/2000/svg"><path d="m5.5 8.4c1.51661 0 2.74997-1.2558 2.74997-2.8s-1.23336-2.8-2.74997-2.8-2.74997 1.2558-2.74997 2.8 1.23336 2.8 2.74997 2.8zm0-4.2c.75831 0 1.37499.6279 1.37499 1.4s-.61668 1.4-1.37499 1.4c-.7583 0-1.37498-.6279-1.37498-1.4s.61668-1.4 1.37498-1.4z"/><path d="m5.10125 13.8698c.11963.0868.25919.1302.39875.1302s.27912-.0434.39875-.1302c.20899-.1505 5.12115-3.7618 5.10115-8.2698 0-3.0877-2.46737-5.6-5.4999-5.6s-5.49993947 2.5123-5.49993947 5.5965c-.01993733 4.5115 4.89219947 8.1228 5.10118947 8.2733zm.39875-12.4698c2.27491 0 4.12495 1.8837 4.12495 4.2035.01444 3.1066-3.01671 5.8961-4.12495 6.811-1.10755-.9156-4.13939-3.7058-4.12495-6.8145 0-2.3163 1.85004-4.2 4.12495-4.2z"/></svg>