<svg xmlns="http://www.w3.org/2000/svg" viewBox="0 0 208.7 29.53">
    <defs>
        <style>
            .cls-1 {
                fill: #ffffff;
            }
            .cls-2 {
                fill: #CEBA9F;
            }
        </style>
    </defs>
    <title>Artboard 2 copy</title>
    <g id="Layer_1" data-name="Layer 1"><path
        class="cls-1"
        d="M57.51,20.6v2.18h-11V6.94H57V9.12H49.3v4.3h7v2.14h-7v5Z"/><path
        class="cls-1"
        d="M67.2,22.78l-3-5.09-3.07,5.09H58.51c.17-.31.75-1.22,1.73-2.73S61.8,17.62,62,17.31c-.19-.29-.74-1.15-1.63-2.59S58.9,12.39,58.7,12.1h2.62l2.88,4.8,2.86-4.8H69.7c-.31.51-.87,1.35-1.63,2.52s-1.32,2-1.71,2.67l3.51,5.49Z"/><path
        class="cls-1"
        d="M79.54,12.29v2.14a4.48,4.48,0,0,0-2.38-.6,3.42,3.42,0,0,0-3.55,3.67A3.25,3.25,0,0,0,77.11,21a5.16,5.16,0,0,0,2.81-.77v2.09a6.92,6.92,0,0,1-3.38.72,5.27,5.27,0,0,1-4.06-1.54,5.58,5.58,0,0,1-1.44-4,5.54,5.54,0,0,1,1.61-4.1,5.63,5.63,0,0,1,4.13-1.64A7.26,7.26,0,0,1,79.54,12.29Z"/><path class="cls-1" d="M84.65,22.78H82.11V5.72h2.54Z"/><path
        class="cls-1"
        d="M87.65,12.08h2.52v6.24c0,1.61.82,2.66,2.14,2.66C93.94,21,95,19.83,95,17.5V12.1h2.52V22.78H95.59l-.38-1.46h-.1A4.09,4.09,0,0,1,91.68,23q-4,0-4-4.32Z"/><path
        class="cls-1"
        d="M99.6,19.93a5.92,5.92,0,0,0,3.55,1.27c1.35,0,2-.43,2-1.27,0-2-5.26-1.9-5.26-5.07,0-1.89,1.61-3,3.82-3a8.22,8.22,0,0,1,3.36.72v2.06a6,6,0,0,0-3-.89c-1.13,0-1.68.39-1.68,1.16,0,1.56,5.21,1.44,5.21,4.92,0,1.89-1.59,3.21-4.18,3.21a7.76,7.76,0,0,1-3.84-.91Z"/><path
        class="cls-1"
        d="M111.36,10.16a1.44,1.44,0,0,1-1.46-1.47,1.46,1.46,0,0,1,1.46-1.46,1.42,1.42,0,0,1,1.46,1.46A1.46,1.46,0,0,1,111.36,10.16Zm1.23,12.62H110V12.1h2.55Z"/><path
        class="cls-1"
        d="M120.55,22.93H120L114.6,12.1h2.74c.14.36.36.84.67,1.49l.6,1.2,1.7,3.77h.08c.59-1.47,1.58-3.6,2.9-6.46H126Z"/><path
        class="cls-1"
        d="M135.7,13.32a5.76,5.76,0,0,1,1.39,4v.6h-8a3.2,3.2,0,0,0,3.55,3.15,6.66,6.66,0,0,0,3.94-1.3v2.09a7.08,7.08,0,0,1-4.13,1.18,5.92,5.92,0,0,1-4.37-1.56,5.54,5.54,0,0,1-1.54-4.08,5.64,5.64,0,0,1,1.51-4A5.18,5.18,0,0,1,132,11.79,4.74,4.74,0,0,1,135.7,13.32Zm-6.53,3h5.59a2.72,2.72,0,0,0-2.71-2.59A2.87,2.87,0,0,0,129.17,16.28Z"/><path
        class="cls-1"
        d="M147.38,9a8.28,8.28,0,0,1,6.15-2.4,9.6,9.6,0,0,1,4.39.87V9.94a8.72,8.72,0,0,0-4.2-1,5.82,5.82,0,0,0-4.25,1.66A5.94,5.94,0,0,0,147.82,15a6.12,6.12,0,0,0,1.44,4.2,5.33,5.33,0,0,0,4.17,1.6,7,7,0,0,0,2.67-.5V14.77h2.49v7.32a13.57,13.57,0,0,1-5.44.93,7.87,7.87,0,0,1-6-2.25A8.17,8.17,0,0,1,145,15,8.21,8.21,0,0,1,147.38,9Z"/><path
        class="cls-1"
        d="M161.54,12.08h2.52v6.24c0,1.61.82,2.66,2.14,2.66,1.63,0,2.69-1.15,2.69-3.48V12.1h2.52V22.78h-1.92l-.38-1.46H169A4.09,4.09,0,0,1,165.58,23q-4,0-4-4.32Z"/><path class="cls-1" d="M177,22.78h-2.54V5.72H177Z"/><path
        class="cls-1"
        d="M188.62,13.32a5.76,5.76,0,0,1,1.39,4v.6h-8a3.2,3.2,0,0,0,3.55,3.15,6.61,6.61,0,0,0,3.93-1.3v2.09a7,7,0,0,1-4.12,1.18A5.92,5.92,0,0,1,181,21.49a5.54,5.54,0,0,1-1.54-4.08,5.64,5.64,0,0,1,1.51-4,5.18,5.18,0,0,1,3.89-1.63A4.75,4.75,0,0,1,188.62,13.32Zm-6.53,3h5.59A2.72,2.72,0,0,0,185,13.69,2.87,2.87,0,0,0,182.09,16.28Z"/><path
        class="cls-1"
        d="M195.22,8.72h.5V12.1h2.93V14h-2.93v5.11c0,1.23.38,1.8,1.46,1.8a3.61,3.61,0,0,0,1.9-.62v2a4.53,4.53,0,0,1-2.57.72c-2.52,0-3.31-1.37-3.31-4V14h-1.7V12.58l1.92-.55Z"/><path
        class="cls-1"
        d="M200,19.93a5.92,5.92,0,0,0,3.55,1.27c1.34,0,2-.43,2-1.27,0-2-5.26-1.9-5.26-5.07,0-1.89,1.61-3,3.82-3a8.22,8.22,0,0,1,3.36.72v2.06a6,6,0,0,0-3-.89c-1.13,0-1.68.39-1.68,1.16,0,1.56,5.2,1.44,5.2,4.92,0,1.89-1.58,3.21-4.17,3.21a7.76,7.76,0,0,1-3.84-.91Z"/><circle class="cls-2" cx="28.97" cy="19.55" r="4.26"/><path
        class="cls-2"
        d="M9.35,0V17.56C9.35,23.81,0,23.81,0,23.81V8.06C0-.09,9.35,0,9.35,0Z"/><path
        class="cls-2"
        d="M21.71,0V17.56c0,6.25-9.36,6.25-9.36,6.25V8.06C12.35-.09,21.71,0,21.71,0Z"/></g>
</svg>
