<svg width="20" height="20" viewBox="0 0 20 20" xmlns="http://www.w3.org/2000/svg">
    <path
        d="M19.8689 19.238L13.1167 12.4865C14.2952 11.1593 15.0179 9.41947 15.0179 7.50909C15.0179 3.36831 11.6496 0 7.50909 0C3.36831 0 0 3.36831 0 7.50909C0 11.6496 3.36831 15.0179 7.50909 15.0179C9.41914 15.0179 11.1593 14.2952 12.4865 13.1167L19.238 19.8689C19.3247 19.9556 19.4393 19.9994 19.5533 19.9994C19.6676 19.9994 19.7822 19.9556 19.8689 19.8689C20.0435 19.6939 20.0435 19.4123 19.8689 19.238ZM7.50909 14.1257C3.86043 14.1257 0.892163 11.1578 0.892163 7.50909C0.892163 3.86043 3.86043 0.892163 7.50909 0.892163C11.1574 0.892163 14.1257 3.86043 14.1257 7.50909C14.1257 9.17309 13.504 10.6914 12.4865 11.8553C12.2899 12.0794 12.0798 12.2896 11.8556 12.4862C10.6917 13.504 9.17308 14.1257 7.50909 14.1257Z"/>
</svg>
