<svg width="40" height="31" viewBox="0 0 40 31" fill="none" xmlns="http://www.w3.org/2000/svg">
<path d="M6.66667 18.4633C6.2985 18.4633 6 18.7585 6 19.1227V20.3095C6.00977 23.5981 4.68945 26.7538 2.33333 29.0736L1.5332 29.865C1.36003 30.0305 1.29036 30.2759 1.35156 30.5064C1.41243 30.7369 1.59473 30.9169 1.8278 30.9771C2.06087 31.0377 2.30859 30.9688 2.47591 30.7975L3.27604 30.0061C5.88314 27.4396 7.34408 23.9481 7.33333 20.3095V19.1227C7.33333 18.7585 7.03483 18.4633 6.66667 18.4633Z" fill="url(#paint0_linear)"/>
<path d="M33.3333 18.4633C32.9652 18.4633 32.6667 18.7585 32.6667 19.1227V20.3095C32.6566 23.9484 34.1188 27.4399 36.7272 30.0061L37.5273 30.7975C37.7891 31.0473 38.2048 31.0438 38.4619 30.7894C38.7191 30.5351 38.7227 30.1239 38.4701 29.865L37.6699 29.0736C35.3125 26.7544 33.9909 23.5984 34 20.3095V19.1227C34 18.7585 33.7015 18.4633 33.3333 18.4633Z" fill="url(#paint1_linear)"/>
<path d="M10.4714 30.7987C12.738 28.5691 14.0088 25.5348 14 22.373V20.4415C14 20.0773 13.7015 19.7821 13.3333 19.7821C12.9652 19.7821 12.6667 20.0773 12.6667 20.4415V22.373C12.6745 25.1851 11.5446 27.8833 9.52865 29.8663C9.35547 30.0318 9.28581 30.2772 9.34701 30.5077C9.40788 30.7382 9.58984 30.9182 9.82292 30.9784C10.056 31.0389 10.304 30.97 10.4714 30.7987Z" fill="url(#paint2_linear)"/>
<path d="M26.6667 19.7821C26.2985 19.7821 26 20.0773 26 20.4415V22.373C25.9912 25.5348 27.262 28.5691 29.5286 30.7987C29.7904 31.0486 30.2061 31.0451 30.4632 30.7907C30.7204 30.5363 30.724 30.1252 30.4714 29.8663C28.4554 27.8833 27.3255 25.1851 27.3333 22.373V20.4415C27.3333 20.0773 27.0348 19.7821 26.6667 19.7821Z" fill="url(#paint3_linear)"/>
<path d="M20 30.3325V19.7821C20 19.4179 19.7015 19.1227 19.3333 19.1227C18.9652 19.1227 18.6667 19.4179 18.6667 19.7821V30.3325C18.6667 30.6967 18.9652 30.9919 19.3333 30.9919C19.7015 30.9919 20 30.6967 20 30.3325Z" fill="url(#paint4_linear)"/>
<path d="M38 0H2C0.895508 0 0 0.885751 0 1.97821V15.1663C0 16.2587 0.895508 17.1445 2 17.1445H38C39.1045 17.1445 40 16.2587 40 15.1663V1.97821C40 0.885751 39.1045 0 38 0ZM4.66667 15.8257V14.5069H35.3333V15.8257H4.66667ZM35.3333 13.1881H4.66667V11.8693H35.3333V13.1881ZM38.6667 15.1663C38.6667 15.5304 38.3682 15.8257 38 15.8257H36.6667V10.5504H3.33333V15.8257H2C1.63184 15.8257 1.33333 15.5304 1.33333 15.1663V1.97821C1.33333 1.61406 1.63184 1.31881 2 1.31881H38C38.3682 1.31881 38.6667 1.61406 38.6667 1.97821V15.1663Z" fill="url(#paint5_linear)"/>
<path d="M13.3333 4.61582H26.6667V5.93463H13.3333V4.61582Z" fill="url(#paint6_linear)"/>
<path d="M36 2.63761H37.3333V3.95642H36V2.63761Z" fill="url(#paint7_linear)"/>
<path d="M33.3333 2.63761H34.6667V3.95642H33.3333V2.63761Z" fill="url(#paint8_linear)"/>
<defs>
<linearGradient id="paint0_linear" x1="40" y1="-1.67343e-05" x2="-1.78524" y2="2.62935" gradientUnits="userSpaceOnUse">
<stop stop-color="#FF9536"/>
<stop offset="1" stop-color="#FF7544"/>
</linearGradient>
<linearGradient id="paint1_linear" x1="40" y1="-1.67343e-05" x2="-1.78524" y2="2.62935" gradientUnits="userSpaceOnUse">
<stop stop-color="#FF9536"/>
<stop offset="1" stop-color="#FF7544"/>
</linearGradient>
<linearGradient id="paint2_linear" x1="40" y1="-1.67343e-05" x2="-1.78524" y2="2.62935" gradientUnits="userSpaceOnUse">
<stop stop-color="#FF9536"/>
<stop offset="1" stop-color="#FF7544"/>
</linearGradient>
<linearGradient id="paint3_linear" x1="40" y1="-1.67343e-05" x2="-1.78524" y2="2.62935" gradientUnits="userSpaceOnUse">
<stop stop-color="#FF9536"/>
<stop offset="1" stop-color="#FF7544"/>
</linearGradient>
<linearGradient id="paint4_linear" x1="40" y1="-1.67343e-05" x2="-1.78524" y2="2.62935" gradientUnits="userSpaceOnUse">
<stop stop-color="#FF9536"/>
<stop offset="1" stop-color="#FF7544"/>
</linearGradient>
<linearGradient id="paint5_linear" x1="40" y1="-1.67343e-05" x2="-1.78524" y2="2.62935" gradientUnits="userSpaceOnUse">
<stop stop-color="#FF9536"/>
<stop offset="1" stop-color="#FF7544"/>
</linearGradient>
<linearGradient id="paint6_linear" x1="40" y1="-1.67343e-05" x2="-1.78524" y2="2.62935" gradientUnits="userSpaceOnUse">
<stop stop-color="#FF9536"/>
<stop offset="1" stop-color="#FF7544"/>
</linearGradient>
<linearGradient id="paint7_linear" x1="40" y1="-1.67343e-05" x2="-1.78524" y2="2.62935" gradientUnits="userSpaceOnUse">
<stop stop-color="#FF9536"/>
<stop offset="1" stop-color="#FF7544"/>
</linearGradient>
<linearGradient id="paint8_linear" x1="40" y1="-1.67343e-05" x2="-1.78524" y2="2.62935" gradientUnits="userSpaceOnUse">
<stop stop-color="#FF9536"/>
<stop offset="1" stop-color="#FF7544"/>
</linearGradient>
</defs>
</svg>
