<svg width="21" height="40" viewBox="0 0 21 40" fill="none" xmlns="http://www.w3.org/2000/svg">
<path d="M10.5001 0C4.71035 0 7.78798e-05 4.7225 7.78798e-05 10.5273V11.043C7.78798e-05 12.0003 0.377068 12.8952 1.06154 13.5629C1.74578 14.2303 2.64992 14.5838 3.60423 14.5572C5.48388 14.5056 7.01304 12.9073 7.01304 10.9942V10.5273C7.01304 9.58539 7.38309 8.70133 8.05502 8.03789C8.71362 7.38742 9.57997 7.03125 10.5 7.03125C10.5181 7.03125 10.5364 7.03141 10.5545 7.03164C12.4472 7.06063 13.987 8.66055 13.987 10.5981V14.2982C13.987 15.1391 13.3047 15.8233 12.4659 15.8233H4.63157C2.07773 15.8233 0 17.9064 0 20.4669V34.5383C0 37.5499 2.44373 40 5.44749 40H15.5525C18.5563 40 21 37.5499 21 34.5383V10.5273C21.0001 4.7225 16.2898 0 10.5001 0ZM18.6624 34.5383C18.6624 36.2576 17.2673 37.6562 15.5526 37.6562H5.44757C3.73281 37.6562 2.33776 36.2576 2.33776 34.5383V20.467C2.33776 19.1988 3.3668 18.1671 4.63164 18.1671H12.466C14.5937 18.1671 16.3248 16.4316 16.3248 14.2983V10.5982C16.3248 7.38773 13.7523 4.73664 10.5902 4.68828C9.0204 4.66516 7.53606 5.26086 6.41475 6.36797C5.29305 7.47555 4.67544 8.95266 4.67544 10.5273V10.9942C4.67544 11.6498 4.16629 12.1972 3.54026 12.2144C3.22382 12.2234 2.91984 12.1055 2.69176 11.8831C2.46353 11.6605 2.33784 11.3621 2.33784 11.043V10.5273C2.33776 6.01484 5.99934 2.34375 10.5001 2.34375C15.0008 2.34375 18.6624 6.01484 18.6624 10.5273V34.5383Z" fill="#FF7544"/>
<path d="M13.9685 33.3195H7.03178C6.38627 33.3195 5.86294 33.8442 5.86294 34.4914C5.86294 35.1386 6.38627 35.6633 7.03178 35.6633H13.9685C14.614 35.6633 15.1374 35.1386 15.1374 34.4914C15.1374 33.8442 14.614 33.3195 13.9685 33.3195Z" fill="#FF7544"/>
<path d="M10.5001 30.7127C12.9592 30.7127 14.9598 28.7069 14.9598 26.2416C14.9598 23.7762 12.9592 21.7702 10.5001 21.7702C8.04101 21.7702 6.04042 23.7761 6.04042 26.2415C6.04042 28.7069 8.04101 30.7127 10.5001 30.7127ZM10.5001 24.114C11.6702 24.114 12.6221 25.0684 12.6221 26.2415C12.6221 27.4145 11.6702 28.369 10.5001 28.369C9.33 28.369 8.3781 27.4146 8.3781 26.2416C8.3781 25.0685 9.33 24.114 10.5001 24.114Z" fill="#FF7544"/>
</svg>
