<svg width="42" height="28" viewBox="0 0 42 28" fill="none" xmlns="http://www.w3.org/2000/svg">
<path d="M2.20828 6.46469C3.42694 5.29962 5.15698 4.16697 7.2117 3.18907C11.4075 1.19221 16.562 0 21 0C25.438 0 30.5925 1.19221 34.7884 3.18907C36.8431 4.16697 38.5731 5.29962 39.7918 6.46469C41.257 7.86572 42 9.29995 42 10.7276C42 12.958 40.6291 15.1369 38.0356 17.0288C36.9489 17.8214 35.8669 18.4063 35.1522 18.7569V21.4462C35.1522 25.06 32.0869 28 28.3192 28H13.6808C9.91307 28 6.8478 25.06 6.8478 21.4462V18.7569C6.13315 18.4064 5.05116 17.8215 3.96441 17.0288C1.37091 15.1369 0 12.958 0 10.7276C0 9.29995 0.74304 7.86572 2.20828 6.46469ZM9.58699 21.4462C9.58699 23.6113 11.4235 25.3728 13.6809 25.3728H28.3192C30.5766 25.3728 32.4131 23.6113 32.4131 21.4462V19.2427H9.58699V21.4462ZM8.50795 16.6155H33.4919C35.3077 15.8121 39.2609 13.4875 39.2609 10.7276C39.2609 9.22276 37.0274 7.18751 33.5709 5.5425C29.7352 3.71708 25.0359 2.62723 21 2.62723C16.9641 2.62723 12.2648 3.71708 8.42912 5.5425C4.97265 7.18759 2.7391 9.22284 2.7391 10.7276C2.7391 13.4882 6.69416 15.8133 8.50795 16.6155Z" fill="#FF7544"/>
<path d="M18.5784 10.2643C18.8354 11.0792 19.217 11.5526 19.6304 11.8256V9.05636H18.2608V6.42921H19.6304V5.37075H22.3695V6.42921H23.7391V9.05636H22.3695V11.8258C22.7828 11.5529 23.1644 11.0793 23.4214 10.2642L26.0432 11.0249C25.2841 13.4317 23.4464 14.8121 20.9992 14.8121C18.5536 14.8121 16.7156 13.4317 15.9565 11.0249L18.5784 10.2643Z" fill="#FF7544"/>
</svg>
