<svg width="40" height="38" viewBox="0 0 40 38" fill="none" xmlns="http://www.w3.org/2000/svg">
<path d="M35.6481 21.6271H4.34374C2.02973 21.6271 0.15 23.4493 0.15 25.6905V33.7846C0.15 36.0181 2.02194 37.8479 4.34374 37.8479H35.6563C37.9703 37.8479 39.85 36.0257 39.85 33.7846L39.85 25.6831L39.85 25.6825M35.6481 21.6271L40 33.7846C40 36.113 38.0486 37.9979 35.6563 37.9979H4.34374C1.94325 37.9979 0 36.1051 0 33.7846V25.6905C0 23.362 1.95142 21.4771 4.34374 21.4771H35.6481C38.0404 21.4771 39.9918 23.362 40 25.6825H39.85M35.6481 21.6271C37.962 21.6271 39.8418 23.4492 39.85 25.6825M35.6481 21.6271L39.85 25.6825M38.1367 33.9266H38.1496V33.7766V25.6825C38.1496 24.3441 37.0248 23.2595 35.6563 23.2595H4.34374C2.97518 23.2595 1.85041 24.3441 1.85041 25.6825V33.7766C1.85041 35.1151 2.97518 36.1996 4.34374 36.1996H35.6481C36.9651 36.1996 38.0564 35.1952 38.1367 33.9266ZM27.9826 11.5363L27.9824 11.5365C27.8165 11.7646 27.5526 11.8866 27.2872 11.8866C27.118 11.8866 26.948 11.8386 26.8158 11.736L26.816 11.7358L26.8087 11.7308C24.8564 10.3908 22.5405 9.67698 20.1266 9.67698C17.7047 9.67698 15.3968 10.3827 13.4441 11.731C13.0606 11.9946 12.5238 11.905 12.2542 11.5363C11.9864 11.1699 12.0745 10.6558 12.4549 10.3941L12.4551 10.394C14.6911 8.85147 17.3475 8.03662 20.1184 8.03662C22.8892 8.03662 25.5376 8.8514 27.782 10.3941C28.1624 10.6558 28.2504 11.1699 27.9826 11.5363ZM16.815 15.9776L16.8151 15.9775C17.7776 15.3139 18.9236 14.9586 20.1184 14.9586C21.3138 14.9586 22.4594 15.3063 23.421 15.977L23.4218 15.9776C23.8023 16.2393 23.8903 16.7534 23.6225 17.1198L23.6223 17.12C23.4564 17.3481 23.1925 17.4701 22.9271 17.4701C22.7559 17.4701 22.5889 17.4175 22.4318 17.3139C21.7608 16.8449 20.9555 16.599 20.1184 16.599C19.2802 16.599 18.4829 16.8455 17.8042 17.3145C17.4207 17.5782 16.8838 17.4885 16.6143 17.1198C16.3465 16.7534 16.4345 16.2393 16.815 15.9776ZM33.0612 6.13491L33.061 6.13518C32.895 6.36322 32.6312 6.48527 32.3658 6.48527C32.1905 6.48527 32.0252 6.43823 31.8725 6.33053L31.871 6.32947C28.4326 3.96774 24.3695 2.71542 20.1184 2.71542C15.8673 2.71542 11.8041 3.96774 8.36576 6.32947L8.36568 6.32952C7.98217 6.59331 7.44517 6.5037 7.17557 6.13491C6.90776 5.76856 6.99582 5.2544 7.37627 4.99273L7.37636 4.99266C11.0984 2.42845 15.5103 1.07505 20.1184 1.07505C24.7262 1.07505 29.1383 2.43628 32.8606 4.99279C33.2409 5.25448 33.329 5.76859 33.0612 6.13491ZM19.7184 28.9134H31.1738C31.6414 28.9134 32.0205 29.2775 32.028 29.7385C32.0275 30.1895 31.6501 30.5617 31.1738 30.5617H19.7184C19.2417 30.5617 18.8641 30.1889 18.8641 29.7375C18.8641 29.2861 19.2417 28.9134 19.7184 28.9134ZM11.4116 29.7296C11.4116 30.2854 10.9457 30.7438 10.3614 30.7438C9.77699 30.7438 9.31112 30.2854 9.31112 29.7296C9.31112 29.1737 9.77699 28.7154 10.3614 28.7154C10.9457 28.7154 11.4116 29.1737 11.4116 29.7296Z" fill="url(#paint0_linear)" stroke="white" stroke-width="0.3"/>
<defs>
<linearGradient id="paint0_linear" x1="40" y1="0.925029" x2="-1.83487" y2="3.12629" gradientUnits="userSpaceOnUse">
<stop stop-color="#FF9536"/>
<stop offset="1" stop-color="#FF7544"/>
</linearGradient>
</defs>
</svg>
