<svg width="41" height="43" viewBox="0 0 41 43" fill="none" xmlns="http://www.w3.org/2000/svg">
<mask id="path-1-outside-1" maskUnits="userSpaceOnUse" x="0" y="0" width="41" height="43" fill="black">
<rect fill="white" width="41" height="43"/>
<path d="M20.6478 9.54169C18.2838 9.54169 16.359 7.62494 16.359 5.27089C16.359 2.91683 18.2821 1 20.6478 1C23.0118 1 24.9367 2.91675 24.9367 5.27081C24.9367 7.62486 23.0118 9.54169 20.6478 9.54169ZM20.6478 2.70831C19.229 2.70831 18.0745 3.85799 18.0745 5.27081C18.0745 6.68363 19.229 7.83331 20.6478 7.83331C22.0666 7.83331 23.2211 6.68363 23.2211 5.27081C23.2211 3.85807 22.0648 2.70831 20.6478 2.70831Z"/>
<path d="M8.49147 11.25C6.12748 11.25 4.20264 9.33325 4.20264 6.97919C4.20264 4.62514 6.12579 2.70839 8.49147 2.70839C10.8555 2.70839 12.7803 4.62514 12.7803 6.97919C12.7803 9.33325 10.8555 11.25 8.49147 11.25ZM8.49147 4.41669C7.07269 4.41669 5.91816 5.56637 5.91816 6.97919C5.91816 8.39201 7.071 9.54169 8.49147 9.54169C9.91026 9.54169 11.0648 8.39201 11.0648 6.97919C11.0648 5.56637 9.90849 4.41669 8.49147 4.41669Z"/>
<path d="M1.02024 25.4548L2.11993 16.7013C2.38587 14.5676 4.21631 12.9601 6.37452 12.9601H10.6102C11.0871 12.9601 11.5675 13.0437 12.0393 13.2112C12.4853 13.3684 12.7186 13.8569 12.5608 14.3011C12.4012 14.7453 11.9123 14.9793 11.4662 14.8204C11.1797 14.7196 10.8915 14.6684 10.6102 14.6684H6.37452C5.07925 14.6684 3.98302 15.6336 3.82178 16.9131L2.72209 25.6666C2.69121 25.9126 2.76495 26.1518 2.92965 26.338C3.09434 26.5242 3.32248 26.6267 3.57298 26.6267H4.20256C4.65377 26.6267 5.02602 26.9717 5.05859 27.4194L5.85977 38.5851H11.1248L11.3135 35.9611C11.3479 35.4912 11.751 35.1325 12.2296 35.1701C12.7014 35.2026 13.0582 35.6126 13.0239 36.0824L12.7785 39.4991C12.7442 39.945 12.3703 40.2918 11.9225 40.2918H5.06036C4.61091 40.2918 4.23689 39.945 4.20601 39.5008L3.40483 28.33C2.72893 28.2856 2.09589 27.9781 1.64468 27.469C1.15583 26.9171 0.927605 26.1842 1.02024 25.4548Z"/>
<path d="M12.7906 32.4402L14.0344 26.1689C13.1784 25.6137 12.6705 24.5784 12.7975 23.4766L13.9315 15.3996C14.2008 13.0335 16.0828 11.25 18.3044 11.25H22.6859C24.9092 11.25 26.7912 13.0335 27.0589 15.3773L28.1979 23.497C28.3232 24.58 27.8154 25.6136 26.9593 26.1671L28.2031 32.4384C28.2529 32.6879 28.1877 32.9492 28.0246 33.1457C27.8634 33.3439 27.6164 33.4583 27.3624 33.4583H24.446L23.0598 41.2944C22.9861 41.7028 22.631 42 22.2158 42H18.7847C18.3678 42 18.0127 41.7028 17.9355 41.2962L16.5493 33.4601H13.6329C13.3772 33.4601 13.1337 33.3456 12.9707 33.1474C12.8078 32.9509 12.7409 32.6896 12.7906 32.4402ZM15.8546 25.8409L14.6812 31.75H17.2751C17.6903 31.75 18.0471 32.0473 18.1191 32.4556L19.5036 40.2917H21.4953L22.8849 32.4539C22.957 32.0456 23.3121 31.7483 23.729 31.7483H26.3212L25.1494 25.8392C25.062 25.3968 25.3347 24.9628 25.7722 24.8484C26.2491 24.7237 26.5596 24.2266 26.5013 23.7123L25.3622 15.5926C25.1907 14.091 24.043 12.9584 22.6928 12.9584H18.3113C16.9612 12.9584 15.8135 14.091 15.6385 15.6148L14.5046 23.6918C14.4428 24.2283 14.7551 24.7254 15.2303 24.8501C15.6676 24.9645 15.9403 25.3984 15.8546 25.8409Z"/>
<path d="M28.7692 35.1684C29.2376 35.1239 29.651 35.4896 29.6853 35.9593L29.8741 38.5833H35.1408L35.9402 27.4176C35.9728 26.9718 36.3468 26.625 36.798 26.625H37.4276C37.6781 26.625 37.9062 26.5225 38.0709 26.3363C38.2356 26.1501 38.3093 25.9126 38.2784 25.6649L37.1787 16.9114C37.0192 15.6319 35.923 14.6667 34.626 14.6667H30.3903C30.1982 14.6667 29.994 14.6958 29.7435 14.7624C29.2838 14.8751 28.8155 14.6086 28.6953 14.1525C28.5753 13.6964 28.8497 13.2283 29.3078 13.1087C29.7041 13.0062 30.0472 12.9584 30.392 12.9584H34.6261C36.7842 12.9584 38.6131 14.566 38.8807 16.6996L39.9803 25.4531C40.0712 26.1825 39.8448 26.9154 39.3559 27.4672C38.9046 27.9762 38.2716 28.2837 37.5957 28.3282L36.7945 39.499C36.762 39.9449 36.3879 40.2917 35.9402 40.2917H29.078C28.6286 40.2917 28.2546 39.9449 28.222 39.4973L27.9766 36.0806C27.9423 35.6108 28.2992 35.2026 28.7692 35.1684Z"/>
<path d="M32.5091 11.25C30.1451 11.25 28.2203 9.33325 28.2203 6.97919C28.2203 4.62514 30.1435 2.70839 32.5091 2.70839C34.8731 2.70839 36.798 4.62514 36.798 6.97919C36.798 9.33325 34.8731 11.25 32.5091 11.25ZM32.5091 4.41669C31.0904 4.41669 29.9358 5.56637 29.9358 6.97919C29.9358 8.39201 31.0887 9.54169 32.5091 9.54169C33.9262 9.54169 35.0825 8.39201 35.0825 6.97919C35.0825 5.56637 33.9262 4.41669 32.5091 4.41669Z"/>
</mask>
<path d="M20.6478 9.54169C18.2838 9.54169 16.359 7.62494 16.359 5.27089C16.359 2.91683 18.2821 1 20.6478 1C23.0118 1 24.9367 2.91675 24.9367 5.27081C24.9367 7.62486 23.0118 9.54169 20.6478 9.54169ZM20.6478 2.70831C19.229 2.70831 18.0745 3.85799 18.0745 5.27081C18.0745 6.68363 19.229 7.83331 20.6478 7.83331C22.0666 7.83331 23.2211 6.68363 23.2211 5.27081C23.2211 3.85807 22.0648 2.70831 20.6478 2.70831Z" fill="#FF7544"/>
<path d="M8.49147 11.25C6.12748 11.25 4.20264 9.33325 4.20264 6.97919C4.20264 4.62514 6.12579 2.70839 8.49147 2.70839C10.8555 2.70839 12.7803 4.62514 12.7803 6.97919C12.7803 9.33325 10.8555 11.25 8.49147 11.25ZM8.49147 4.41669C7.07269 4.41669 5.91816 5.56637 5.91816 6.97919C5.91816 8.39201 7.071 9.54169 8.49147 9.54169C9.91026 9.54169 11.0648 8.39201 11.0648 6.97919C11.0648 5.56637 9.90849 4.41669 8.49147 4.41669Z" fill="#FF7544"/>
<path d="M1.02024 25.4548L2.11993 16.7013C2.38587 14.5676 4.21631 12.9601 6.37452 12.9601H10.6102C11.0871 12.9601 11.5675 13.0437 12.0393 13.2112C12.4853 13.3684 12.7186 13.8569 12.5608 14.3011C12.4012 14.7453 11.9123 14.9793 11.4662 14.8204C11.1797 14.7196 10.8915 14.6684 10.6102 14.6684H6.37452C5.07925 14.6684 3.98302 15.6336 3.82178 16.9131L2.72209 25.6666C2.69121 25.9126 2.76495 26.1518 2.92965 26.338C3.09434 26.5242 3.32248 26.6267 3.57298 26.6267H4.20256C4.65377 26.6267 5.02602 26.9717 5.05859 27.4194L5.85977 38.5851H11.1248L11.3135 35.9611C11.3479 35.4912 11.751 35.1325 12.2296 35.1701C12.7014 35.2026 13.0582 35.6126 13.0239 36.0824L12.7785 39.4991C12.7442 39.945 12.3703 40.2918 11.9225 40.2918H5.06036C4.61091 40.2918 4.23689 39.945 4.20601 39.5008L3.40483 28.33C2.72893 28.2856 2.09589 27.9781 1.64468 27.469C1.15583 26.9171 0.927605 26.1842 1.02024 25.4548Z" fill="#FF7544"/>
<path d="M12.7906 32.4402L14.0344 26.1689C13.1784 25.6137 12.6705 24.5784 12.7975 23.4766L13.9315 15.3996C14.2008 13.0335 16.0828 11.25 18.3044 11.25H22.6859C24.9092 11.25 26.7912 13.0335 27.0589 15.3773L28.1979 23.497C28.3232 24.58 27.8154 25.6136 26.9593 26.1671L28.2031 32.4384C28.2529 32.6879 28.1877 32.9492 28.0246 33.1457C27.8634 33.3439 27.6164 33.4583 27.3624 33.4583H24.446L23.0598 41.2944C22.9861 41.7028 22.631 42 22.2158 42H18.7847C18.3678 42 18.0127 41.7028 17.9355 41.2962L16.5493 33.4601H13.6329C13.3772 33.4601 13.1337 33.3456 12.9707 33.1474C12.8078 32.9509 12.7409 32.6896 12.7906 32.4402ZM15.8546 25.8409L14.6812 31.75H17.2751C17.6903 31.75 18.0471 32.0473 18.1191 32.4556L19.5036 40.2917H21.4953L22.8849 32.4539C22.957 32.0456 23.3121 31.7483 23.729 31.7483H26.3212L25.1494 25.8392C25.062 25.3968 25.3347 24.9628 25.7722 24.8484C26.2491 24.7237 26.5596 24.2266 26.5013 23.7123L25.3622 15.5926C25.1907 14.091 24.043 12.9584 22.6928 12.9584H18.3113C16.9612 12.9584 15.8135 14.091 15.6385 15.6148L14.5046 23.6918C14.4428 24.2283 14.7551 24.7254 15.2303 24.8501C15.6676 24.9645 15.9403 25.3984 15.8546 25.8409Z" fill="#FF7544"/>
<path d="M28.7692 35.1684C29.2376 35.1239 29.651 35.4896 29.6853 35.9593L29.8741 38.5833H35.1408L35.9402 27.4176C35.9728 26.9718 36.3468 26.625 36.798 26.625H37.4276C37.6781 26.625 37.9062 26.5225 38.0709 26.3363C38.2356 26.1501 38.3093 25.9126 38.2784 25.6649L37.1787 16.9114C37.0192 15.6319 35.923 14.6667 34.626 14.6667H30.3903C30.1982 14.6667 29.994 14.6958 29.7435 14.7624C29.2838 14.8751 28.8155 14.6086 28.6953 14.1525C28.5753 13.6964 28.8497 13.2283 29.3078 13.1087C29.7041 13.0062 30.0472 12.9584 30.392 12.9584H34.6261C36.7842 12.9584 38.6131 14.566 38.8807 16.6996L39.9803 25.4531C40.0712 26.1825 39.8448 26.9154 39.3559 27.4672C38.9046 27.9762 38.2716 28.2837 37.5957 28.3282L36.7945 39.499C36.762 39.9449 36.3879 40.2917 35.9402 40.2917H29.078C28.6286 40.2917 28.2546 39.9449 28.222 39.4973L27.9766 36.0806C27.9423 35.6108 28.2992 35.2026 28.7692 35.1684Z" fill="#FF7544"/>
<path d="M32.5091 11.25C30.1451 11.25 28.2203 9.33325 28.2203 6.97919C28.2203 4.62514 30.1435 2.70839 32.5091 2.70839C34.8731 2.70839 36.798 4.62514 36.798 6.97919C36.798 9.33325 34.8731 11.25 32.5091 11.25ZM32.5091 4.41669C31.0904 4.41669 29.9358 5.56637 29.9358 6.97919C29.9358 8.39201 31.0887 9.54169 32.5091 9.54169C33.9262 9.54169 35.0825 8.39201 35.0825 6.97919C35.0825 5.56637 33.9262 4.41669 32.5091 4.41669Z" fill="#FF7544"/>
<path d="M20.6478 9.54169C18.2838 9.54169 16.359 7.62494 16.359 5.27089C16.359 2.91683 18.2821 1 20.6478 1C23.0118 1 24.9367 2.91675 24.9367 5.27081C24.9367 7.62486 23.0118 9.54169 20.6478 9.54169ZM20.6478 2.70831C19.229 2.70831 18.0745 3.85799 18.0745 5.27081C18.0745 6.68363 19.229 7.83331 20.6478 7.83331C22.0666 7.83331 23.2211 6.68363 23.2211 5.27081C23.2211 3.85807 22.0648 2.70831 20.6478 2.70831Z" stroke="#FF7544" stroke-width="0.4" mask="url(#path-1-outside-1)"/>
<path d="M8.49147 11.25C6.12748 11.25 4.20264 9.33325 4.20264 6.97919C4.20264 4.62514 6.12579 2.70839 8.49147 2.70839C10.8555 2.70839 12.7803 4.62514 12.7803 6.97919C12.7803 9.33325 10.8555 11.25 8.49147 11.25ZM8.49147 4.41669C7.07269 4.41669 5.91816 5.56637 5.91816 6.97919C5.91816 8.39201 7.071 9.54169 8.49147 9.54169C9.91026 9.54169 11.0648 8.39201 11.0648 6.97919C11.0648 5.56637 9.90849 4.41669 8.49147 4.41669Z" stroke="#FF7544" stroke-width="0.4" mask="url(#path-1-outside-1)"/>
<path d="M1.02024 25.4548L2.11993 16.7013C2.38587 14.5676 4.21631 12.9601 6.37452 12.9601H10.6102C11.0871 12.9601 11.5675 13.0437 12.0393 13.2112C12.4853 13.3684 12.7186 13.8569 12.5608 14.3011C12.4012 14.7453 11.9123 14.9793 11.4662 14.8204C11.1797 14.7196 10.8915 14.6684 10.6102 14.6684H6.37452C5.07925 14.6684 3.98302 15.6336 3.82178 16.9131L2.72209 25.6666C2.69121 25.9126 2.76495 26.1518 2.92965 26.338C3.09434 26.5242 3.32248 26.6267 3.57298 26.6267H4.20256C4.65377 26.6267 5.02602 26.9717 5.05859 27.4194L5.85977 38.5851H11.1248L11.3135 35.9611C11.3479 35.4912 11.751 35.1325 12.2296 35.1701C12.7014 35.2026 13.0582 35.6126 13.0239 36.0824L12.7785 39.4991C12.7442 39.945 12.3703 40.2918 11.9225 40.2918H5.06036C4.61091 40.2918 4.23689 39.945 4.20601 39.5008L3.40483 28.33C2.72893 28.2856 2.09589 27.9781 1.64468 27.469C1.15583 26.9171 0.927605 26.1842 1.02024 25.4548Z" stroke="#FF7544" stroke-width="0.4" mask="url(#path-1-outside-1)"/>
<path d="M12.7906 32.4402L14.0344 26.1689C13.1784 25.6137 12.6705 24.5784 12.7975 23.4766L13.9315 15.3996C14.2008 13.0335 16.0828 11.25 18.3044 11.25H22.6859C24.9092 11.25 26.7912 13.0335 27.0589 15.3773L28.1979 23.497C28.3232 24.58 27.8154 25.6136 26.9593 26.1671L28.2031 32.4384C28.2529 32.6879 28.1877 32.9492 28.0246 33.1457C27.8634 33.3439 27.6164 33.4583 27.3624 33.4583H24.446L23.0598 41.2944C22.9861 41.7028 22.631 42 22.2158 42H18.7847C18.3678 42 18.0127 41.7028 17.9355 41.2962L16.5493 33.4601H13.6329C13.3772 33.4601 13.1337 33.3456 12.9707 33.1474C12.8078 32.9509 12.7409 32.6896 12.7906 32.4402ZM15.8546 25.8409L14.6812 31.75H17.2751C17.6903 31.75 18.0471 32.0473 18.1191 32.4556L19.5036 40.2917H21.4953L22.8849 32.4539C22.957 32.0456 23.3121 31.7483 23.729 31.7483H26.3212L25.1494 25.8392C25.062 25.3968 25.3347 24.9628 25.7722 24.8484C26.2491 24.7237 26.5596 24.2266 26.5013 23.7123L25.3622 15.5926C25.1907 14.091 24.043 12.9584 22.6928 12.9584H18.3113C16.9612 12.9584 15.8135 14.091 15.6385 15.6148L14.5046 23.6918C14.4428 24.2283 14.7551 24.7254 15.2303 24.8501C15.6676 24.9645 15.9403 25.3984 15.8546 25.8409Z" stroke="#FF7544" stroke-width="0.4" mask="url(#path-1-outside-1)"/>
<path d="M28.7692 35.1684C29.2376 35.1239 29.651 35.4896 29.6853 35.9593L29.8741 38.5833H35.1408L35.9402 27.4176C35.9728 26.9718 36.3468 26.625 36.798 26.625H37.4276C37.6781 26.625 37.9062 26.5225 38.0709 26.3363C38.2356 26.1501 38.3093 25.9126 38.2784 25.6649L37.1787 16.9114C37.0192 15.6319 35.923 14.6667 34.626 14.6667H30.3903C30.1982 14.6667 29.994 14.6958 29.7435 14.7624C29.2838 14.8751 28.8155 14.6086 28.6953 14.1525C28.5753 13.6964 28.8497 13.2283 29.3078 13.1087C29.7041 13.0062 30.0472 12.9584 30.392 12.9584H34.6261C36.7842 12.9584 38.6131 14.566 38.8807 16.6996L39.9803 25.4531C40.0712 26.1825 39.8448 26.9154 39.3559 27.4672C38.9046 27.9762 38.2716 28.2837 37.5957 28.3282L36.7945 39.499C36.762 39.9449 36.3879 40.2917 35.9402 40.2917H29.078C28.6286 40.2917 28.2546 39.9449 28.222 39.4973L27.9766 36.0806C27.9423 35.6108 28.2992 35.2026 28.7692 35.1684Z" stroke="#FF7544" stroke-width="0.4" mask="url(#path-1-outside-1)"/>
<path d="M32.5091 11.25C30.1451 11.25 28.2203 9.33325 28.2203 6.97919C28.2203 4.62514 30.1435 2.70839 32.5091 2.70839C34.8731 2.70839 36.798 4.62514 36.798 6.97919C36.798 9.33325 34.8731 11.25 32.5091 11.25ZM32.5091 4.41669C31.0904 4.41669 29.9358 5.56637 29.9358 6.97919C29.9358 8.39201 31.0887 9.54169 32.5091 9.54169C33.9262 9.54169 35.0825 8.39201 35.0825 6.97919C35.0825 5.56637 33.9262 4.41669 32.5091 4.41669Z" stroke="#FF7544" stroke-width="0.4" mask="url(#path-1-outside-1)"/>
</svg>
