<svg width="33" height="40" viewBox="0 0 33 40" fill="none" xmlns="http://www.w3.org/2000/svg">
<mask id="path-1-inside-1" fill="white">
<path d="M24.2526 14.9786C23.981 14.6593 23.4984 14.6132 23.1689 14.8769C22.8375 15.1421 22.7871 15.6215 23.0562 15.948C23.0654 15.9593 23.0767 15.9721 23.0866 15.9829C23.2397 16.1484 23.4496 16.2324 23.6604 16.2324C23.8465 16.2324 24.0331 16.1669 24.1816 16.0341C24.4913 15.7573 24.5206 15.2904 24.2526 14.9786Z"/>
<path d="M18.1306 30.089C18.4369 30.1079 18.7409 30.1173 19.043 30.1173C22.5091 30.1172 25.6637 28.8774 28.0036 26.5768C28.6193 25.9715 29.2219 24.7687 28.5965 22.4771C28.1662 20.901 27.2159 19.0326 25.8483 17.0737C25.606 16.7266 25.1236 16.6384 24.7706 16.8767C24.4176 17.1149 24.3279 17.5894 24.5702 17.9365C25.8394 19.7544 26.7138 21.4611 27.0989 22.8722C27.4371 24.1119 27.3691 25.0447 26.9071 25.4989C26.2093 26.185 24.4722 25.9804 22.2607 24.9519C20.6069 24.1828 18.8132 23.0232 17.028 21.5815C18.0797 20.3171 18.1582 18.5266 17.2639 17.1836L21.2982 13.2168C21.6528 13.3937 22.0415 13.4826 22.4303 13.4826C23.0705 13.4826 23.7107 13.243 24.1981 12.7639C25.1727 11.8054 25.1727 10.246 24.1981 9.28767C23.2234 8.32937 21.6373 8.32929 20.6626 9.28767C19.8793 10.0579 19.726 11.2162 20.2019 12.1389L16.1679 16.1054C15.5564 15.7101 14.841 15.4975 14.0921 15.4975C13.2099 15.4975 12.374 15.792 11.6999 16.3333C10.2535 14.5949 9.0892 12.8498 8.31457 11.2394C7.26856 9.06473 7.0605 7.35689 7.75823 6.67084C8.80185 5.64456 12.466 6.5479 17.2007 10.2434C17.536 10.505 18.0237 10.45 18.2898 10.1203C18.556 9.79056 18.4999 9.31114 18.1647 9.04941C15.8402 7.23509 13.5712 5.91948 11.6032 5.24479C8.79285 4.28123 7.36545 4.9018 6.66268 5.59235C6.66245 5.59258 6.66222 5.59273 6.66206 5.59288C4.11841 8.094 2.84976 11.5415 3.09007 15.3004C3.32797 19.0233 5.02164 22.61 7.859 25.3999C8.36225 25.8947 8.89146 26.3534 9.44191 26.7757C9.43989 26.7815 9.43733 26.787 9.43547 26.7929L7.27747 33.5538H5.43202C2.43675 33.5538 0 35.9498 0 38.8948C0 39.3157 0.347122 39.657 0.775172 39.657H22.0005C22.4286 39.657 22.7757 39.3157 22.7757 38.8948C22.7757 35.9497 20.3389 33.5538 17.3438 33.5538H14.8022V29.5061C15.8876 29.8217 17.0029 30.0193 18.1306 30.089ZM21.7588 10.3654C21.944 10.1833 22.187 10.0923 22.4303 10.0923C22.6735 10.0923 22.9166 10.1833 23.1018 10.3653C23.472 10.7293 23.472 11.3217 23.1018 11.6857C22.7316 12.0498 22.129 12.0498 21.7588 11.6857C21.3885 11.3218 21.3885 10.7294 21.7588 10.3654ZM14.0921 17.0218C14.6901 17.0218 15.2523 17.2506 15.6752 17.6661C15.6755 17.6663 15.6757 17.6666 15.6759 17.6669C15.6761 17.6671 15.6765 17.6673 15.6767 17.6676C16.4865 18.4646 16.544 19.7246 15.8504 20.588C15.3148 20.1168 14.7828 19.6224 14.2587 19.1072C13.7184 18.5759 13.2006 18.0362 12.7079 17.4929C13.1012 17.1878 13.5835 17.0218 14.0921 17.0218ZM10.7713 27.6982C11.5663 28.1942 12.3962 28.6185 13.2518 28.9669V33.5538H8.90223L10.7713 27.6982ZM17.3436 35.0782C19.2186 35.0782 20.7874 36.3919 21.1475 38.1326H1.62794C1.98808 36.3919 3.55688 35.0782 5.43186 35.0782H17.3436ZM8.95517 24.3219C6.38494 21.7947 4.85141 18.5569 4.63716 15.2048C4.49507 12.9805 4.94785 10.885 5.93224 9.08584C6.09518 9.92875 6.42176 10.8697 6.91306 11.8911C8.17799 14.5207 10.3975 17.4663 13.1626 20.1851C15.9278 22.9039 18.9234 25.0862 21.5978 26.3299C22.6346 26.8121 23.5899 27.1328 24.4459 27.2934C19.7765 29.751 13.388 28.6806 8.95517 24.3219Z"/>
<path d="M22.4421 4.70188C22.014 4.70188 21.6669 5.04311 21.6669 5.46407C21.6669 5.88503 22.014 6.22626 22.4421 6.22626C25.127 6.22626 27.3114 8.37403 27.3114 11.014C27.3114 11.435 27.6585 11.7762 28.0866 11.7762C28.5146 11.7762 28.8617 11.435 28.8617 11.014C28.8618 7.53349 25.9819 4.70188 22.4421 4.70188Z"/>
<path d="M22.4421 0.632935C22.014 0.632935 21.6669 0.974167 21.6669 1.39512C21.6669 1.81608 22.014 2.15731 22.4421 2.15731C27.4088 2.15731 31.4497 6.13038 31.4497 11.014C31.4497 11.435 31.7968 11.7762 32.2248 11.7762C32.6529 11.7762 33 11.435 33 11.014C33 5.28991 28.2638 0.632935 22.4421 0.632935Z"/>
</mask>
<path d="M24.2526 14.9786C23.981 14.6593 23.4984 14.6132 23.1689 14.8769C22.8375 15.1421 22.7871 15.6215 23.0562 15.948C23.0654 15.9593 23.0767 15.9721 23.0866 15.9829C23.2397 16.1484 23.4496 16.2324 23.6604 16.2324C23.8465 16.2324 24.0331 16.1669 24.1816 16.0341C24.4913 15.7573 24.5206 15.2904 24.2526 14.9786Z" fill="url(#paint0_linear)"/>
<path d="M18.1306 30.089C18.4369 30.1079 18.7409 30.1173 19.043 30.1173C22.5091 30.1172 25.6637 28.8774 28.0036 26.5768C28.6193 25.9715 29.2219 24.7687 28.5965 22.4771C28.1662 20.901 27.2159 19.0326 25.8483 17.0737C25.606 16.7266 25.1236 16.6384 24.7706 16.8767C24.4176 17.1149 24.3279 17.5894 24.5702 17.9365C25.8394 19.7544 26.7138 21.4611 27.0989 22.8722C27.4371 24.1119 27.3691 25.0447 26.9071 25.4989C26.2093 26.185 24.4722 25.9804 22.2607 24.9519C20.6069 24.1828 18.8132 23.0232 17.028 21.5815C18.0797 20.3171 18.1582 18.5266 17.2639 17.1836L21.2982 13.2168C21.6528 13.3937 22.0415 13.4826 22.4303 13.4826C23.0705 13.4826 23.7107 13.243 24.1981 12.7639C25.1727 11.8054 25.1727 10.246 24.1981 9.28767C23.2234 8.32937 21.6373 8.32929 20.6626 9.28767C19.8793 10.0579 19.726 11.2162 20.2019 12.1389L16.1679 16.1054C15.5564 15.7101 14.841 15.4975 14.0921 15.4975C13.2099 15.4975 12.374 15.792 11.6999 16.3333C10.2535 14.5949 9.0892 12.8498 8.31457 11.2394C7.26856 9.06473 7.0605 7.35689 7.75823 6.67084C8.80185 5.64456 12.466 6.5479 17.2007 10.2434C17.536 10.505 18.0237 10.45 18.2898 10.1203C18.556 9.79056 18.4999 9.31114 18.1647 9.04941C15.8402 7.23509 13.5712 5.91948 11.6032 5.24479C8.79285 4.28123 7.36545 4.9018 6.66268 5.59235C6.66245 5.59258 6.66222 5.59273 6.66206 5.59288C4.11841 8.094 2.84976 11.5415 3.09007 15.3004C3.32797 19.0233 5.02164 22.61 7.859 25.3999C8.36225 25.8947 8.89146 26.3534 9.44191 26.7757C9.43989 26.7815 9.43733 26.787 9.43547 26.7929L7.27747 33.5538H5.43202C2.43675 33.5538 0 35.9498 0 38.8948C0 39.3157 0.347122 39.657 0.775172 39.657H22.0005C22.4286 39.657 22.7757 39.3157 22.7757 38.8948C22.7757 35.9497 20.3389 33.5538 17.3438 33.5538H14.8022V29.5061C15.8876 29.8217 17.0029 30.0193 18.1306 30.089ZM21.7588 10.3654C21.944 10.1833 22.187 10.0923 22.4303 10.0923C22.6735 10.0923 22.9166 10.1833 23.1018 10.3653C23.472 10.7293 23.472 11.3217 23.1018 11.6857C22.7316 12.0498 22.129 12.0498 21.7588 11.6857C21.3885 11.3218 21.3885 10.7294 21.7588 10.3654ZM14.0921 17.0218C14.6901 17.0218 15.2523 17.2506 15.6752 17.6661C15.6755 17.6663 15.6757 17.6666 15.6759 17.6669C15.6761 17.6671 15.6765 17.6673 15.6767 17.6676C16.4865 18.4646 16.544 19.7246 15.8504 20.588C15.3148 20.1168 14.7828 19.6224 14.2587 19.1072C13.7184 18.5759 13.2006 18.0362 12.7079 17.4929C13.1012 17.1878 13.5835 17.0218 14.0921 17.0218ZM10.7713 27.6982C11.5663 28.1942 12.3962 28.6185 13.2518 28.9669V33.5538H8.90223L10.7713 27.6982ZM17.3436 35.0782C19.2186 35.0782 20.7874 36.3919 21.1475 38.1326H1.62794C1.98808 36.3919 3.55688 35.0782 5.43186 35.0782H17.3436ZM8.95517 24.3219C6.38494 21.7947 4.85141 18.5569 4.63716 15.2048C4.49507 12.9805 4.94785 10.885 5.93224 9.08584C6.09518 9.92875 6.42176 10.8697 6.91306 11.8911C8.17799 14.5207 10.3975 17.4663 13.1626 20.1851C15.9278 22.9039 18.9234 25.0862 21.5978 26.3299C22.6346 26.8121 23.5899 27.1328 24.4459 27.2934C19.7765 29.751 13.388 28.6806 8.95517 24.3219Z" fill="url(#paint1_linear)"/>
<path d="M22.4421 4.70188C22.014 4.70188 21.6669 5.04311 21.6669 5.46407C21.6669 5.88503 22.014 6.22626 22.4421 6.22626C25.127 6.22626 27.3114 8.37403 27.3114 11.014C27.3114 11.435 27.6585 11.7762 28.0866 11.7762C28.5146 11.7762 28.8617 11.435 28.8617 11.014C28.8618 7.53349 25.9819 4.70188 22.4421 4.70188Z" fill="url(#paint2_linear)"/>
<path d="M22.4421 0.632935C22.014 0.632935 21.6669 0.974167 21.6669 1.39512C21.6669 1.81608 22.014 2.15731 22.4421 2.15731C27.4088 2.15731 31.4497 6.13038 31.4497 11.014C31.4497 11.435 31.7968 11.7762 32.2248 11.7762C32.6529 11.7762 33 11.435 33 11.014C33 5.28991 28.2638 0.632935 22.4421 0.632935Z" fill="url(#paint3_linear)"/>
<path d="M24.2526 14.9786L24.1003 15.1082L24.101 15.1089L24.2526 14.9786ZM23.1689 14.8769L23.0439 14.7207L23.0439 14.7207L23.1689 14.8769ZM23.0562 15.948L23.211 15.8214L23.2105 15.8208L23.0562 15.948ZM23.0866 15.9829L22.9397 16.1186L22.9398 16.1187L23.0866 15.9829ZM24.1816 16.0341L24.0484 15.885L24.0483 15.885L24.1816 16.0341ZM18.1306 30.089L18.1429 29.8893L18.1429 29.8893L18.1306 30.089ZM19.043 30.1173V30.3173H19.043L19.043 30.1173ZM28.0036 26.5768L28.1438 26.7194L28.1439 26.7194L28.0036 26.5768ZM28.5965 22.4771L28.7894 22.4245L28.7894 22.4244L28.5965 22.4771ZM25.8483 17.0737L26.0123 16.9592L26.0123 16.9592L25.8483 17.0737ZM24.7706 16.8767L24.8825 17.0425L24.8825 17.0425L24.7706 16.8767ZM24.5702 17.9365L24.7342 17.822L24.7342 17.822L24.5702 17.9365ZM27.0989 22.8722L27.2919 22.8195L27.2919 22.8195L27.0989 22.8722ZM26.9071 25.4989L26.7669 25.3563L26.7668 25.3563L26.9071 25.4989ZM22.2607 24.9519L22.345 24.7705L22.345 24.7705L22.2607 24.9519ZM17.028 21.5815L16.8743 21.4537L16.7445 21.6097L16.9024 21.7371L17.028 21.5815ZM17.2639 17.1836L17.1236 17.041L17.0058 17.1568L17.0974 17.2944L17.2639 17.1836ZM21.2982 13.2168L21.3874 13.0378L21.2597 12.9742L21.1579 13.0742L21.2982 13.2168ZM24.1981 12.7639L24.3383 12.9065L24.3383 12.9065L24.1981 12.7639ZM24.1981 9.28767L24.3383 9.14506L24.3383 9.14505L24.1981 9.28767ZM20.6626 9.28767L20.5224 9.14506L20.5224 9.14506L20.6626 9.28767ZM20.2019 12.1389L20.3421 12.2816L20.4472 12.1782L20.3797 12.0473L20.2019 12.1389ZM16.1679 16.1054L16.0593 16.2733L16.1939 16.3603L16.3081 16.248L16.1679 16.1054ZM11.6999 16.3333L11.5462 16.4612L11.6719 16.6123L11.8251 16.4892L11.6999 16.3333ZM8.31457 11.2394L8.13434 11.3261L8.13434 11.3261L8.31457 11.2394ZM7.75823 6.67084L7.89845 6.81346L7.89846 6.81344L7.75823 6.67084ZM17.2007 10.2434L17.0776 10.401L17.0776 10.4011L17.2007 10.2434ZM18.2898 10.1203L18.1342 9.99465L18.1342 9.99467L18.2898 10.1203ZM18.1647 9.04941L18.2878 8.89176L18.2877 8.89175L18.1647 9.04941ZM11.6032 5.24479L11.5383 5.43398L11.5383 5.43398L11.6032 5.24479ZM6.66268 5.59235L6.52251 5.44969L6.52246 5.44974L6.66268 5.59235ZM6.66206 5.59288L6.52184 5.45027L6.52184 5.45027L6.66206 5.59288ZM3.09007 15.3004L3.28966 15.2877L3.28966 15.2877L3.09007 15.3004ZM7.859 25.3999L7.71878 25.5425L7.71878 25.5425L7.859 25.3999ZM9.44191 26.7757L9.6308 26.8414L9.67828 26.705L9.56365 26.617L9.44191 26.7757ZM9.43547 26.7929L9.626 26.8537L9.62612 26.8533L9.43547 26.7929ZM7.27747 33.5538V33.7538H7.42357L7.468 33.6146L7.27747 33.5538ZM14.8022 33.5538H14.6022V33.7538H14.8022V33.5538ZM14.8022 29.5061L14.8581 29.3141L14.6022 29.2397V29.5061H14.8022ZM21.7588 10.3654L21.8991 10.508L21.8991 10.508L21.7588 10.3654ZM23.1018 11.6857L22.9615 11.5431L22.9615 11.5431L23.1018 11.6857ZM21.7588 11.6857L21.8991 11.5431L21.899 11.5431L21.7588 11.6857ZM15.6752 17.6661L15.8154 17.5235L15.8154 17.5234L15.6752 17.6661ZM15.6767 17.6676L15.817 17.525L15.8169 17.5249L15.6767 17.6676ZM15.8504 20.588L15.7183 20.7381L15.8753 20.8763L16.0063 20.7132L15.8504 20.588ZM14.2587 19.1072L14.1185 19.2498L14.1185 19.2498L14.2587 19.1072ZM12.7079 17.4929L12.5853 17.3348L12.4147 17.4672L12.5598 17.6272L12.7079 17.4929ZM10.7713 27.6982L10.8772 27.5285L10.659 27.3924L10.5808 27.6374L10.7713 27.6982ZM13.2518 28.9669H13.4518V28.8324L13.3272 28.7817L13.2518 28.9669ZM13.2518 33.5538V33.7538H13.4518V33.5538H13.2518ZM8.90223 33.5538L8.7117 33.493L8.62845 33.7538H8.90223V33.5538ZM21.1475 38.1326V38.3326H21.3931L21.3433 38.0921L21.1475 38.1326ZM1.62794 38.1326L1.43209 38.0921L1.38232 38.3326H1.62794V38.1326ZM8.95517 24.3219L9.0954 24.1793L9.0954 24.1793L8.95517 24.3219ZM4.63716 15.2048L4.43756 15.2175L4.43756 15.2175L4.63716 15.2048ZM5.93224 9.08584L6.1286 9.04788L6.02324 8.50284L5.75678 8.98984L5.93224 9.08584ZM6.91306 11.8911L7.09329 11.8044L7.09329 11.8044L6.91306 11.8911ZM13.1626 20.1851L13.0224 20.3277L13.1626 20.1851ZM21.5978 26.3299L21.6822 26.1486L21.6822 26.1486L21.5978 26.3299ZM24.4459 27.2934L24.539 27.4704L25.0475 27.2028L24.4828 27.0968L24.4459 27.2934ZM28.8617 11.014L28.6617 11.014V11.014H28.8617ZM24.405 14.8489C24.063 14.447 23.4575 14.3899 23.0439 14.7207L23.2938 15.033C23.5394 14.8366 23.8991 14.8717 24.1003 15.1082L24.405 14.8489ZM23.0439 14.7207C22.6259 15.0553 22.5614 15.6621 22.9018 16.0752L23.2105 15.8208C23.0128 15.5808 23.0491 15.2289 23.2939 15.033L23.0439 14.7207ZM22.9013 16.0746C22.9136 16.0895 22.9276 16.1055 22.9397 16.1186L23.2336 15.8472C23.2258 15.8388 23.2172 15.829 23.211 15.8214L22.9013 16.0746ZM22.9398 16.1187C23.1326 16.3272 23.3968 16.4324 23.6604 16.4324V16.0324C23.5025 16.0324 23.3467 15.9695 23.2335 15.8471L22.9398 16.1187ZM23.6604 16.4324C23.8933 16.4324 24.128 16.3503 24.3149 16.1832L24.0483 15.885C23.9382 15.9835 23.7996 16.0324 23.6604 16.0324V16.4324ZM24.3149 16.1832C24.7058 15.8338 24.7433 15.2426 24.4043 14.8482L24.101 15.1089C24.2979 15.3381 24.2768 15.6808 24.0484 15.885L24.3149 16.1832ZM18.1182 30.2886C18.4287 30.3078 18.7368 30.3173 19.043 30.3173V29.9173C18.7451 29.9173 18.4452 29.9081 18.1429 29.8893L18.1182 30.2886ZM19.043 30.3173C22.5578 30.3172 25.764 29.0593 28.1438 26.7194L27.8634 26.4342C25.5634 28.6955 22.4603 29.9172 19.0429 29.9173L19.043 30.3173ZM28.1439 26.7194C28.82 26.0545 29.4304 24.7729 28.7894 22.4245L28.4035 22.5298C29.0134 24.7645 28.4185 25.8884 27.8634 26.4342L28.1439 26.7194ZM28.7894 22.4244C28.351 20.8185 27.3875 18.929 26.0123 16.9592L25.6843 17.1881C27.0443 19.1361 27.9814 20.9835 28.4035 22.5298L28.7894 22.4244ZM26.0123 16.9592C25.7069 16.5217 25.1013 16.4121 24.6587 16.711L24.8825 17.0425C25.1458 16.8647 25.5052 16.9316 25.6844 17.1882L26.0123 16.9592ZM24.6588 16.7109C24.2141 17.0109 24.0993 17.6114 24.4063 18.051L24.7342 17.822C24.5565 17.5675 24.6211 17.2188 24.8825 17.0425L24.6588 16.7109ZM24.4062 18.0509C25.6684 19.8588 26.5292 21.5442 26.906 22.9248L27.2919 22.8195C26.8985 21.378 26.0105 19.6501 24.7342 17.822L24.4062 18.0509ZM26.906 22.9248C27.0713 23.531 27.1339 24.0503 27.1036 24.4655C27.0732 24.8818 26.9513 25.175 26.7669 25.3563L27.0473 25.6415C27.3249 25.3686 27.468 24.9683 27.5025 24.4947C27.5372 24.02 27.4647 23.4531 27.2919 22.8195L26.906 22.9248ZM26.7668 25.3563C26.4842 25.6343 25.9543 25.7615 25.1749 25.6698C24.4053 25.5792 23.4394 25.2795 22.345 24.7705L22.1763 25.1332C23.2934 25.6528 24.3019 25.9697 25.1282 26.067C25.9447 26.1632 26.6323 26.0496 27.0473 25.6415L26.7668 25.3563ZM22.345 24.7705C20.7095 24.01 18.9296 22.8601 17.1537 21.426L16.9024 21.7371C18.6968 23.1863 20.5043 24.3557 22.1764 25.1332L22.345 24.7705ZM17.1818 21.7094C18.2906 20.3763 18.3732 18.4887 17.4303 17.0727L17.0974 17.2944C17.9431 18.5645 17.8689 20.2578 16.8743 21.4537L17.1818 21.7094ZM17.4041 17.3262L21.4384 13.3594L21.1579 13.0742L17.1236 17.041L17.4041 17.3262ZM21.2089 13.3958C21.5918 13.5867 22.0111 13.6826 22.4303 13.6826V13.2826C22.0719 13.2826 21.7138 13.2006 21.3874 13.0378L21.2089 13.3958ZM22.4303 13.6826C23.1201 13.6826 23.8116 13.4243 24.3383 12.9065L24.0579 12.6212C23.6099 13.0617 23.0209 13.2826 22.4303 13.2826V13.6826ZM24.3383 12.9065C25.3926 11.8696 25.3926 10.1818 24.3383 9.14506L24.0578 9.43027C24.9528 10.3103 24.9528 11.7412 24.0578 12.6213L24.3383 12.9065ZM24.3383 9.14505C23.2858 8.11025 21.5749 8.11015 20.5224 9.14506L20.8028 9.43028C21.6997 8.54843 23.161 8.54849 24.0579 9.43028L24.3383 9.14505ZM20.5224 9.14506C19.675 9.97836 19.5092 11.2321 20.0242 12.2306L20.3797 12.0473C19.9429 11.2004 20.0836 10.1375 20.8028 9.43027L20.5224 9.14506ZM20.0617 11.9963L16.0277 15.9628L16.3081 16.248L20.3421 12.2816L20.0617 11.9963ZM16.2765 15.9374C15.6324 15.5211 14.8792 15.2975 14.0921 15.2975V15.6975C14.8027 15.6975 15.4804 15.8991 16.0593 16.2733L16.2765 15.9374ZM14.0921 15.2975C13.1648 15.2975 12.2846 15.6073 11.5747 16.1773L11.8251 16.4892C12.4634 15.9768 13.2551 15.6975 14.0921 15.6975V15.2975ZM11.8536 16.2054C10.4148 14.4761 9.2606 12.7447 8.4948 11.1527L8.13434 11.3261C8.9178 12.9548 10.0922 14.7137 11.5462 16.4612L11.8536 16.2054ZM8.49481 11.1527C7.9773 10.0768 7.67302 9.12803 7.58103 8.37271C7.48793 7.60825 7.61696 7.09023 7.89845 6.81346L7.61801 6.52823C7.20177 6.9375 7.08597 7.61642 7.18396 8.42107C7.28307 9.23484 7.60582 10.2273 8.13434 11.3261L8.49481 11.1527ZM7.89846 6.81344C8.10677 6.6086 8.47027 6.47822 9.00875 6.47641C9.54362 6.47462 10.2245 6.6004 11.0307 6.87572C12.642 7.42598 14.7222 8.56257 17.0776 10.401L17.3237 10.0857C14.9445 8.22871 12.8253 7.06589 11.1599 6.49718C10.3278 6.21302 9.60104 6.07442 9.0074 6.07641C8.41738 6.07839 7.9315 6.21995 7.618 6.52824L7.89846 6.81344ZM17.0776 10.4011C17.4984 10.7294 18.1103 10.6612 18.4454 10.2459L18.1342 9.99467C17.9371 10.2388 17.5736 10.2807 17.3237 10.0857L17.0776 10.4011ZM18.4454 10.2459C18.7823 9.82868 18.7105 9.2218 18.2878 8.89176L18.0416 9.20706C18.2894 9.40049 18.3297 9.75244 18.1342 9.99465L18.4454 10.2459ZM18.2877 8.89175C15.9524 7.06899 13.6638 5.73981 11.668 5.0556L11.5383 5.43398C13.4785 6.09914 15.7279 7.40119 18.0416 9.20707L18.2877 8.89175ZM11.668 5.0556C8.80874 4.07525 7.2945 4.69113 6.52251 5.44969L6.80286 5.735C7.4364 5.11248 8.77696 4.48721 11.5383 5.43398L11.668 5.0556ZM6.52246 5.44974C6.52988 5.44244 6.53635 5.43731 6.53692 5.43685C6.53757 5.43634 6.53666 5.43707 6.53664 5.43708C6.53627 5.43738 6.53536 5.43811 6.53423 5.43906C6.5322 5.44075 6.52746 5.44475 6.52184 5.45027L6.80228 5.73549C6.79674 5.74094 6.79209 5.74486 6.79015 5.74647C6.78906 5.74738 6.78821 5.74807 6.78789 5.74833C6.78771 5.74847 6.78758 5.74858 6.78758 5.74858C6.78753 5.74862 6.78765 5.74852 6.78776 5.74843C6.78855 5.7478 6.79525 5.74248 6.8029 5.73496L6.52246 5.44974ZM6.52184 5.45027C3.93422 7.99462 2.6467 11.5 2.89048 15.3132L3.28966 15.2877C3.05283 11.5831 4.3026 8.19338 6.80229 5.73549L6.52184 5.45027ZM2.89048 15.3132C3.13174 19.0886 4.84888 22.7206 7.71878 25.5425L7.99923 25.2573C5.19441 22.4994 3.5242 18.9579 3.28966 15.2877L2.89048 15.3132ZM7.71878 25.5425C8.22795 26.0431 8.76334 26.5072 9.32016 26.9344L9.56365 26.617C9.01957 26.1996 8.49654 25.7463 7.99923 25.2573L7.71878 25.5425ZM9.25301 26.71C9.25357 26.7084 9.25396 26.7074 9.2539 26.7076C9.2537 26.7081 9.25366 26.7081 9.25276 26.7104C9.25155 26.7135 9.2481 26.7221 9.24482 26.7324L9.62612 26.8533C9.62471 26.8578 9.62347 26.8607 9.62451 26.8581C9.62472 26.8575 9.62582 26.8548 9.62672 26.8525C9.62777 26.8498 9.62923 26.8459 9.6308 26.8414L9.25301 26.71ZM9.24494 26.732L7.08694 33.493L7.468 33.6146L9.626 26.8537L9.24494 26.732ZM7.27747 33.3538H5.43202V33.7538H7.27747V33.3538ZM5.43202 33.3538C2.32949 33.3538 -0.2 35.8362 -0.2 38.8948H0.2C0.2 36.0634 2.54401 33.7538 5.43202 33.7538V33.3538ZM-0.2 38.8948C-0.2 39.4293 0.239863 39.857 0.775172 39.857V39.457C0.454381 39.457 0.2 39.2021 0.2 38.8948H-0.2ZM0.775172 39.857H22.0005V39.457H0.775172V39.857ZM22.0005 39.857C22.5359 39.857 22.9757 39.4293 22.9757 38.8948H22.5757C22.5757 39.2021 22.3213 39.457 22.0005 39.457V39.857ZM22.9757 38.8948C22.9757 35.8361 20.4461 33.3538 17.3438 33.3538V33.7538C20.2316 33.7538 22.5757 36.0634 22.5757 38.8948H22.9757ZM17.3438 33.3538H14.8022V33.7538H17.3438V33.3538ZM15.0022 33.5538V29.5061H14.6022V33.5538H15.0022ZM14.7464 29.6982C15.8456 30.0177 16.9754 30.218 18.1182 30.2886L18.1429 29.8893C17.0303 29.8206 15.9297 29.6256 14.8581 29.3141L14.7464 29.6982ZM21.8991 10.508C22.0448 10.3646 22.2367 10.2923 22.4303 10.2923V9.89231C22.1374 9.89231 21.8431 10.002 21.6186 10.2228L21.8991 10.508ZM22.4303 10.2923C22.6238 10.2923 22.8158 10.3646 22.9615 10.5079L23.242 10.2227C23.0175 10.002 22.7231 9.89231 22.4303 9.89231V10.2923ZM22.9615 10.5079C23.252 10.7936 23.252 11.2575 22.9615 11.5431L23.242 11.8284C23.6919 11.386 23.6919 10.6651 23.242 10.2227L22.9615 10.5079ZM22.9615 11.5431C22.6692 11.8306 22.1914 11.8306 21.8991 11.5431L21.6186 11.8283C22.0666 12.2689 22.794 12.2689 23.242 11.8283L22.9615 11.5431ZM21.899 11.5431C21.6085 11.2575 21.6085 10.7937 21.8991 10.508L21.6186 10.2228C21.1686 10.6652 21.1686 11.3861 21.6187 11.8284L21.899 11.5431ZM14.0921 17.2218C14.6381 17.2218 15.1499 17.4303 15.535 17.8088L15.8154 17.5234C15.3547 17.0708 14.742 16.8218 14.0921 16.8218V17.2218ZM15.535 17.8087C15.5313 17.805 15.5284 17.802 15.527 17.8004C15.5256 17.7989 15.5245 17.7976 15.5248 17.7979C15.5248 17.7979 15.5249 17.798 15.525 17.7981C15.5251 17.7982 15.5252 17.7984 15.5255 17.7986C15.5259 17.7991 15.5265 17.7999 15.5274 17.8008C15.5289 17.8025 15.5318 17.8057 15.5357 17.8095L15.8161 17.5243C15.8199 17.5279 15.8227 17.531 15.8241 17.5326C15.8255 17.5341 15.8266 17.5354 15.8264 17.5351C15.8264 17.5351 15.8263 17.535 15.8262 17.5349C15.8261 17.5348 15.8259 17.5346 15.8257 17.5343C15.8253 17.5339 15.8246 17.5331 15.8238 17.5322C15.8222 17.5305 15.8193 17.5273 15.8154 17.5235L15.535 17.8087ZM15.5357 17.8095C15.5396 17.8133 15.5428 17.8162 15.5445 17.8177C15.5455 17.8185 15.5463 17.8192 15.5467 17.8196C15.547 17.8198 15.5472 17.8199 15.5473 17.82C15.5474 17.8201 15.5475 17.8202 15.5475 17.8202C15.5478 17.8205 15.5465 17.8194 15.5449 17.818C15.5433 17.8166 15.5402 17.8139 15.5365 17.8102L15.8169 17.5249C15.813 17.5211 15.8098 17.5183 15.8081 17.5167C15.8071 17.5159 15.8064 17.5153 15.8059 17.5149C15.8056 17.5147 15.8055 17.5145 15.8053 17.5144C15.8052 17.5143 15.8051 17.5142 15.8051 17.5142C15.8048 17.5139 15.8061 17.5151 15.8077 17.5164C15.8093 17.5178 15.8124 17.5206 15.8161 17.5243L15.5357 17.8095ZM15.5364 17.8101C16.2723 18.5343 16.3245 19.6785 15.6945 20.4627L16.0063 20.7132C16.7636 19.7706 16.7008 18.3948 15.817 17.525L15.5364 17.8101ZM15.9825 20.4378C15.4496 19.9691 14.9204 19.4772 14.399 18.9646L14.1185 19.2498C14.6453 19.7676 15.1799 20.2645 15.7183 20.7381L15.9825 20.4378ZM14.399 18.9646C13.8613 18.4359 13.3462 17.8991 12.8561 17.3585L12.5598 17.6272C13.055 18.1734 13.5754 18.7158 14.1185 19.2498L14.399 18.9646ZM12.8305 17.6509C13.1885 17.3732 13.6276 17.2218 14.0921 17.2218V16.8218C13.5394 16.8218 13.0139 17.0024 12.5853 17.3348L12.8305 17.6509ZM10.6654 27.8679C11.47 28.3699 12.3101 28.7994 13.1764 29.1522L13.3272 28.7817C12.4824 28.4377 11.6626 28.0186 10.8772 27.5285L10.6654 27.8679ZM13.0518 28.9669V33.5538H13.4518V28.9669H13.0518ZM9.09276 33.6146L10.9619 27.759L10.5808 27.6374L8.7117 33.493L9.09276 33.6146ZM17.3436 35.2782C19.124 35.2782 20.6108 36.5256 20.9516 38.1731L21.3433 38.0921C20.964 36.2583 19.3132 34.8782 17.3436 34.8782V35.2782ZM21.1475 37.9326H1.62794V38.3326H21.1475V37.9326ZM1.82379 38.1732C2.16467 36.5256 3.65146 35.2782 5.43186 35.2782V34.8782C3.46229 34.8782 1.8115 36.2583 1.43209 38.0921L1.82379 38.1732ZM5.43186 35.2782H17.3436V34.8782H5.43186V35.2782ZM9.0954 24.1793C6.55746 21.6839 5.04763 18.4912 4.83675 15.192L4.43756 15.2175C4.6552 18.6225 6.21241 21.9056 8.81495 24.4645L9.0954 24.1793ZM4.83675 15.192C4.69692 13.0031 5.14263 10.9456 6.10769 9.18184L5.75678 8.98984C4.75306 10.8243 4.29322 12.9579 4.43756 15.2175L4.83675 15.192ZM5.73587 9.1238C5.90285 9.98757 6.23607 10.9451 6.73283 11.9778L7.09329 11.8044C6.60744 10.7944 6.28751 9.86992 6.1286 9.04788L5.73587 9.1238ZM6.73283 11.9778C8.01045 14.6338 10.2459 17.5977 13.0224 20.3277L13.3028 20.0425C10.5491 17.3348 8.34552 14.4076 7.09329 11.8044L6.73283 11.9778ZM13.0224 20.3277C15.799 23.0578 18.813 25.2555 21.5135 26.5113L21.6822 26.1486C19.0338 24.917 16.0565 22.7501 13.3028 20.0425L13.0224 20.3277ZM21.5135 26.5113C22.5614 26.9986 23.5328 27.3256 24.409 27.49L24.4828 27.0968C23.6469 26.94 22.7077 26.6255 21.6822 26.1486L21.5135 26.5113ZM24.3528 27.1164C19.7707 29.528 13.475 28.4856 9.0954 24.1793L8.81495 24.4645C13.301 28.8755 19.7823 29.974 24.539 27.4704L24.3528 27.1164ZM22.4421 4.50188C21.9068 4.50188 21.4669 4.92947 21.4669 5.46407H21.8669C21.8669 5.15675 22.1213 4.90188 22.4421 4.90188V4.50188ZM21.4669 5.46407C21.4669 5.99867 21.9068 6.42626 22.4421 6.42626V6.02626C22.1213 6.02626 21.8669 5.77139 21.8669 5.46407H21.4669ZM22.4421 6.42626C25.0198 6.42626 27.1114 8.48766 27.1114 11.014H27.5114C27.5114 8.2604 25.2343 6.02626 22.4421 6.02626V6.42626ZM27.1114 11.014C27.1114 11.5486 27.5513 11.9762 28.0866 11.9762V11.5762C27.7658 11.5762 27.5114 11.3213 27.5114 11.014H27.1114ZM28.0866 11.9762C28.6219 11.9762 29.0617 11.5486 29.0617 11.014H28.6617C28.6617 11.3213 28.4074 11.5762 28.0866 11.5762V11.9762ZM29.0617 11.014C29.0618 7.41986 26.0892 4.50188 22.4421 4.50188V4.90188C25.8746 4.90188 28.6618 7.64712 28.6617 11.014L29.0617 11.014ZM22.4421 0.432935C21.9068 0.432935 21.4669 0.860526 21.4669 1.39512H21.8669C21.8669 1.08781 22.1213 0.832935 22.4421 0.832935V0.432935ZM21.4669 1.39512C21.4669 1.92972 21.9068 2.35731 22.4421 2.35731V1.95731C22.1213 1.95731 21.8669 1.70244 21.8669 1.39512H21.4669ZM22.4421 2.35731C27.3016 2.35731 31.2497 6.24401 31.2497 11.014H31.6497C31.6497 6.01675 27.5161 1.95731 22.4421 1.95731V2.35731ZM31.2497 11.014C31.2497 11.5486 31.6895 11.9762 32.2248 11.9762V11.5762C31.904 11.5762 31.6497 11.3213 31.6497 11.014H31.2497ZM32.2248 11.9762C32.7601 11.9762 33.2 11.5486 33.2 11.014H32.8C32.8 11.3213 32.5456 11.5762 32.2248 11.5762V11.9762ZM33.2 11.014C33.2 5.17628 28.371 0.432935 22.4421 0.432935V0.832935C28.1565 0.832935 32.8 5.40354 32.8 11.014H33.2ZM13.2518 33.3538H8.90223V33.7538H13.2518V33.3538Z" fill="white" mask="url(#path-1-inside-1)"/>
<defs>
<linearGradient id="paint0_linear" x1="33" y1="0.632914" x2="-1.55056" y2="2.05775" gradientUnits="userSpaceOnUse">
<stop stop-color="#FF9536"/>
<stop offset="1" stop-color="#FF7544"/>
</linearGradient>
<linearGradient id="paint1_linear" x1="33" y1="0.632914" x2="-1.55056" y2="2.05775" gradientUnits="userSpaceOnUse">
<stop stop-color="#FF9536"/>
<stop offset="1" stop-color="#FF7544"/>
</linearGradient>
<linearGradient id="paint2_linear" x1="33" y1="0.632914" x2="-1.55056" y2="2.05775" gradientUnits="userSpaceOnUse">
<stop stop-color="#FF9536"/>
<stop offset="1" stop-color="#FF7544"/>
</linearGradient>
<linearGradient id="paint3_linear" x1="33" y1="0.632914" x2="-1.55056" y2="2.05775" gradientUnits="userSpaceOnUse">
<stop stop-color="#FF9536"/>
<stop offset="1" stop-color="#FF7544"/>
</linearGradient>
</defs>
</svg>
