<svg width="33" height="40" viewBox="0 0 33 40" fill="none" xmlns="http://www.w3.org/2000/svg">
<path d="M18.1369 30.0929L18.1369 30.0929C18.4412 30.1122 18.7431 30.1217 19.043 30.1217C22.4839 30.1216 25.6125 28.8604 27.9326 26.5222C28.5187 25.9316 29.1179 24.7376 28.4998 22.4162C28.0735 20.8153 27.1295 18.9106 25.7657 16.9082C25.5545 16.5981 25.1346 16.5197 24.8275 16.7322L24.8275 16.7322C24.5199 16.945 24.4413 17.3694 24.6529 17.6799L24.5702 17.7362L24.6529 17.68C25.9255 19.5485 26.8065 21.3084 27.1956 22.7697C27.3665 23.4117 27.4363 23.9801 27.4028 24.4506C27.3694 24.9205 27.2319 25.3025 26.9781 25.5583C26.5961 25.9433 25.9473 26.0633 25.1396 25.9658C24.3271 25.8678 23.3291 25.5472 22.2177 25.0174C20.5547 24.2247 18.754 23.0311 16.9643 21.5495L16.888 21.4864L16.9504 21.4095C17.9744 20.1475 18.051 18.3597 17.18 17.019L17.1361 16.9514L17.1929 16.8941L21.2272 12.8282L21.2786 12.7763L21.3437 12.8095C21.684 12.9835 22.0571 13.071 22.4303 13.071C23.0449 13.071 23.6592 12.8353 24.1271 12.3639C25.063 11.4204 25.063 9.88496 24.1271 8.9416C23.1915 7.99876 21.6692 7.99869 20.7336 8.94161C19.9816 9.69953 19.834 10.84 20.2912 11.7488L20.3236 11.8131L20.2729 11.8642L16.2389 15.9298L16.1811 15.9881L16.1127 15.9427C15.5175 15.5484 14.8213 15.3363 14.0921 15.3363C13.2332 15.3363 12.4197 15.6301 11.7634 16.1702L11.6857 16.2342L11.6223 16.156C10.1721 14.3695 9.00294 12.5739 8.22405 10.9142L8.31457 10.8717L8.22404 10.9142C7.69837 9.79399 7.38044 8.78837 7.28319 7.96991C7.18652 7.15625 7.30553 6.50318 7.68724 6.11848C7.68724 6.11848 7.68724 6.11847 7.68724 6.11847L7.75823 6.18891C8.80185 5.13695 12.466 6.06289 17.2007 9.85078L18.1369 30.0929ZM18.1369 30.0929C17.0169 30.0219 15.9092 29.8207 14.8308 29.4994L14.7022 29.4611V29.5952V33.7441V33.8441H14.8022H17.3438C20.2829 33.8441 22.6757 36.2545 22.6757 39.2188C22.6757 39.5957 22.3726 39.9 22.0005 39.9H0.775172C0.403085 39.9 0.1 39.5957 0.1 39.2188C0.1 36.2546 2.49272 33.8441 5.43202 33.8441H7.27747H7.35107L7.37295 33.7739L9.5309 26.844C9.5309 26.844 9.53091 26.844 9.53092 26.844C9.53098 26.8438 9.53123 26.8431 9.53187 26.8415C9.53215 26.8408 9.5326 26.8396 9.53317 26.8381C9.53414 26.8356 9.53542 26.8322 9.5366 26.8287L9.55934 26.7617L9.50372 26.718C8.95645 26.2876 8.4303 25.8201 7.92999 25.3159C5.1087 22.4724 3.42618 18.8184 3.18987 15.0281L3.09007 15.0343L3.18987 15.0281C2.95121 11.2015 4.21102 7.6963 6.73305 5.15442L6.7331 5.15437L6.73364 5.15389C6.73366 5.15388 6.73367 5.15387 6.73368 5.15386C7.07079 4.81434 7.58414 4.48891 8.35799 4.36832C9.13337 4.24749 10.1757 4.33152 11.57 4.82153L11.6032 4.72719L11.57 4.82153C13.5239 5.50814 15.7831 6.84963 18.1022 8.70503C18.3944 8.93889 18.4435 9.36779 18.2112 9.66273L18.2112 9.66275C17.9794 9.95719 17.555 10.0061 17.2631 9.77269L18.1369 30.0929ZM14.9022 29.6247V29.5952H14.8022L14.7737 29.6911C14.7832 29.6939 14.7927 29.6967 14.8022 29.6995V33.6441V33.7441H14.9022H17.3438C20.3389 33.7441 22.7757 36.2 22.7757 39.2188C22.7757 39.6502 22.4286 40 22.0005 40H0.775172C0.347122 40 0 39.6502 0 39.2188C0 36.2001 2.43675 33.7441 5.43202 33.7441H7.27747L9.43547 26.8141L9.43758 26.8081L9.43904 26.8043L9.43906 26.8042L14.9022 29.6247ZM14.9022 29.6247C15.9561 29.931 17.0375 30.1234 18.1306 30.1927C18.4369 30.2121 18.7409 30.2217 19.043 30.2217C22.5091 30.2216 25.6637 28.9508 28.0036 26.5927C28.6193 25.9722 29.2219 24.7394 28.5965 22.3905C28.1662 20.7749 27.2159 18.8598 25.8483 16.8519L14.9022 29.6247ZM24.1757 14.7683L24.176 14.7686C24.4098 15.0474 24.3841 15.4652 24.1141 15.7126C23.9846 15.8312 23.8223 15.8895 23.6604 15.8895C23.4769 15.8895 23.2942 15.8147 23.1609 15.6668C23.152 15.657 23.1421 15.6454 23.1343 15.6357L23.1341 15.6354C22.8993 15.3433 22.9435 14.9145 23.2323 14.6775C23.5192 14.4422 23.9391 14.4832 24.1757 14.7683ZM22.4303 9.59594C22.1614 9.59594 21.8925 9.69913 21.6878 9.90544C21.2789 10.3175 21.2789 10.9876 21.6879 11.3996C22.0971 11.8122 22.7635 11.8122 23.1727 11.3997C23.5816 10.9875 23.5816 10.3175 23.1727 9.90535C22.9681 9.69912 22.6991 9.59594 22.4303 9.59594ZM15.7462 17.3887L15.7462 17.3887C15.3045 16.9439 14.7168 16.6987 14.0921 16.6987C13.5608 16.6987 13.0566 16.8765 12.6457 17.2033L12.5632 17.2689L12.633 17.3478C13.127 17.9062 13.646 18.4607 14.1878 19.0067L14.2587 18.9363L14.1878 19.0067C14.7132 19.5361 15.2464 20.0441 15.7834 20.5283L15.863 20.6001L15.9291 20.5158C16.6534 19.5917 16.5935 18.2435 15.7477 17.3902L15.7477 17.3902L15.7469 17.3895L15.7462 17.3887ZM10.8252 27.6579L10.7148 27.5873L10.6758 27.7124L8.80675 33.7144L8.76635 33.8441H8.90223H13.2518H13.3518V33.7441V29.0426V28.976L13.2903 28.9503C12.4402 28.5954 11.6153 28.1632 10.8252 27.6579ZM21.1475 38.5375H21.2697L21.2455 38.4177C20.8763 36.5884 19.2677 35.2066 17.3436 35.2066H5.43186C3.50774 35.2066 1.89917 36.5884 1.52992 38.4177L1.50574 38.5375H1.62794H21.1475ZM6.0305 8.64576L5.97784 8.36651L5.84402 8.61721C4.8503 10.4788 4.39419 12.6454 4.53735 14.9425C4.75321 18.4041 6.298 21.7454 8.88419 24.3518C13.3434 28.8461 19.7793 29.9584 24.4934 27.4152L24.7403 27.282L24.4648 27.229C23.6191 27.0664 22.6719 26.7409 21.6409 26.2493L21.5978 26.3396L21.6409 26.2493C18.9796 24.9808 15.9931 22.7519 13.2336 19.9707C10.4741 17.1896 8.26238 14.1795 7.00359 11.4972C6.51492 10.4559 6.19152 9.49954 6.0305 8.64576ZM15.7416 17.3846C15.7415 17.3845 15.7416 17.3846 15.7418 17.3847L15.7416 17.3846ZM21.7669 4.95195C21.7669 4.57497 22.07 4.2707 22.4421 4.2707C25.9259 4.2707 28.7618 7.12762 28.7617 10.6407C28.7617 11.0177 28.4587 11.322 28.0866 11.322C27.7145 11.322 27.4114 11.0177 27.4114 10.6407C27.4114 7.8802 25.183 5.6332 22.4421 5.6332C22.07 5.6332 21.7669 5.32894 21.7669 4.95195ZM21.7669 0.78125C21.7669 0.404263 22.07 0.1 22.4421 0.1C28.2078 0.1 32.9 4.82793 32.9 10.6407C32.9 11.0177 32.5969 11.322 32.2248 11.322C31.8527 11.322 31.5497 11.0177 31.5497 10.6407C31.5497 5.58043 27.4648 1.4625 22.4421 1.4625C22.07 1.4625 21.7669 1.15824 21.7669 0.78125Z" fill="url(#paint0_linear)" stroke="white" stroke-width="0.2"/>
<defs>
<linearGradient id="paint0_linear" x1="33" y1="-2.15926e-05" x2="-1.55339" y2="1.39017" gradientUnits="userSpaceOnUse">
<stop stop-color="#FF9536"/>
<stop offset="1" stop-color="#FF7544"/>
</linearGradient>
</defs>
</svg>
