<svg width="20" height="14" viewBox="0 0 20 14" fill="none" xmlns="http://www.w3.org/2000/svg">
<path d="M11.5437 9.43719C11.1105 9.79372 10.5696 9.98703 10.0125 9.98446C9.43129 9.98593 8.86774 9.78117 8.41875 9.40537L0 3.14355V12.7272C0 13.0647 0.131696 13.3885 0.366117 13.6271C0.600537 13.8658 0.918479 13.9999 1.25 13.9999H18.75C19.0815 13.9999 19.3995 13.8658 19.6339 13.6271C19.8683 13.3885 20 13.0647 20 12.7272V3.14355L11.5437 9.43719Z" fill="white"/>
<path d="M0.912596 2.27182L9.1876 8.4C9.41638 8.60232 9.70957 8.71313 10.0126 8.71182C10.2915 8.71465 10.5622 8.61527 10.7751 8.43182L19.1251 2.24C19.3193 2.0709 19.4579 1.84526 19.5223 1.59348C19.5867 1.3417 19.5738 1.07586 19.4853 0.831796C19.3968 0.587727 19.2369 0.377147 19.0272 0.228424C18.8175 0.0797012 18.5681 -2.00123e-05 18.3126 3.76824e-09H1.6876C1.43206 -2.00123e-05 1.18266 0.0797012 0.972985 0.228424C0.763312 0.377147 0.603442 0.587727 0.514913 0.831796C0.426384 1.07586 0.413448 1.3417 0.477847 1.59348C0.542247 1.84526 0.680889 2.0709 0.875096 2.24L0.912596 2.27182Z" fill="white"/>
</svg>
