<svg width="210" height="36" viewBox="0 0 210 36" fill="none" xmlns="http://www.w3.org/2000/svg">
<path d="M0 4.49948C0.0419692 3.33394 0.534492 2.23014 1.3739 1.42041C2.2133 0.610687 3.33412 0.158203 4.50042 0.158203C5.66672 0.158203 6.78753 0.610687 7.62694 1.42041C8.46634 2.23014 8.95886 3.33394 9.00083 4.49948H0Z" fill="white"/>
<path d="M18.0038 4.49805C18.0255 5.10268 17.9252 5.70551 17.7089 6.27052C17.4925 6.83554 17.1645 7.35117 16.7445 7.78662C16.3244 8.22207 15.8209 8.56841 15.2641 8.80496C14.7072 9.04152 14.1084 9.16343 13.5033 9.16343C12.8983 9.16343 12.2995 9.04152 11.7426 8.80496C11.1857 8.56841 10.6823 8.22207 10.2622 7.78662C9.84216 7.35117 9.51416 6.83554 9.2978 6.27052C9.08143 5.70551 8.98114 5.10268 9.00292 4.49805H18.0038Z" fill="white"/>
<path d="M18 4.49753C18.042 3.33199 18.5345 2.22818 19.3739 1.41846C20.2133 0.608734 21.3341 0.15625 22.5004 0.15625C23.6667 0.15625 24.7875 0.608734 25.6269 1.41846C26.4663 2.22818 26.9589 3.33199 27.0008 4.49753H18Z" fill="white"/>
<path d="M35.995 4.49805C35.995 5.08867 35.8787 5.6735 35.6526 6.21917C35.4266 6.76483 35.0953 7.26063 34.6777 7.67826C34.2601 8.09589 33.7643 8.42717 33.2186 8.6532C32.673 8.87922 32.0881 8.99555 31.4975 8.99555C30.9069 8.99555 30.322 8.87922 29.7764 8.6532C29.2307 8.42717 28.7349 8.09589 28.3173 7.67826C27.8997 7.26063 27.5684 6.76483 27.3424 6.21917C27.1163 5.6735 27 5.08867 27 4.49805H35.995Z" fill="white"/>
<path d="M0 13.4975C0.0419692 12.332 0.534492 11.2282 1.3739 10.4185C2.2133 9.60873 3.33412 9.15625 4.50042 9.15625C5.66672 9.15625 6.78753 9.60873 7.62694 10.4185C8.46634 11.2282 8.95886 12.332 9.00083 13.4975H0Z" fill="white"/>
<path d="M18.0038 13.498C18.0255 14.1027 17.9252 14.7055 17.7089 15.2705C17.4925 15.8355 17.1645 16.3512 16.7445 16.7866C16.3244 17.2221 15.8209 17.5684 15.2641 17.805C14.7072 18.0415 14.1084 18.1634 13.5033 18.1634C12.8983 18.1634 12.2995 18.0415 11.7426 17.805C11.1857 17.5684 10.6823 17.2221 10.2622 16.7866C9.84216 16.3512 9.51416 15.8355 9.2978 15.2705C9.08143 14.7055 8.98114 14.1027 9.00292 13.498H18.0038Z" fill="white"/>
<path d="M18 13.4975C18.042 12.332 18.5345 11.2282 19.3739 10.4185C20.2133 9.60873 21.3341 9.15625 22.5004 9.15625C23.6667 9.15625 24.7875 9.60873 25.6269 10.4185C26.4663 11.2282 26.9589 12.332 27.0008 13.4975H18Z" fill="white"/>
<path d="M35.995 13.498C35.995 14.0887 35.8787 14.6735 35.6526 15.2192C35.4266 15.7648 35.0953 16.2606 34.6777 16.6783C34.2601 17.0959 33.7643 17.4272 33.2186 17.6532C32.673 17.8792 32.0881 17.9955 31.4975 17.9955C30.9069 17.9955 30.322 17.8792 29.7764 17.6532C29.2307 17.4272 28.7349 17.0959 28.3173 16.6783C27.8997 16.2606 27.5684 15.7648 27.3424 15.2192C27.1163 14.6735 27 14.0887 27 13.498H35.995Z" fill="white"/>
<path d="M0 22.4995C0.0419692 21.3339 0.534492 20.2301 1.3739 19.4204C2.2133 18.6107 3.33412 18.1582 4.50042 18.1582C5.66672 18.1582 6.78753 18.6107 7.62694 19.4204C8.46634 20.2301 8.95886 21.3339 9.00083 22.4995H0Z" fill="white"/>
<path d="M18.0038 22.5C18.0255 23.1046 17.9252 23.7075 17.7089 24.2725C17.4925 24.8375 17.1645 25.3531 16.7445 25.7886C16.3244 26.224 15.8209 26.5704 15.2641 26.8069C14.7072 27.0435 14.1084 27.1654 13.5033 27.1654C12.8983 27.1654 12.2995 27.0435 11.7426 26.8069C11.1857 26.5704 10.6823 26.224 10.2622 25.7886C9.84216 25.3531 9.51416 24.8375 9.2978 24.2725C9.08143 23.7075 8.98114 23.1046 9.00292 22.5H18.0038Z" fill="white"/>
<path d="M18 22.4995C18.042 21.3339 18.5345 20.2301 19.3739 19.4204C20.2133 18.6107 21.3341 18.1582 22.5004 18.1582C23.6667 18.1582 24.7875 18.6107 25.6269 19.4204C26.4663 20.2301 26.9589 21.3339 27.0008 22.4995H18Z" fill="white"/>
<path d="M35.995 22.5C35.995 23.0906 35.8787 23.6755 35.6526 24.2211C35.4266 24.7668 35.0953 25.2626 34.6777 25.6802C34.2601 26.0978 33.7643 26.4291 33.2186 26.6551C32.673 26.8812 32.0881 26.9975 31.4975 26.9975C30.9069 26.9975 30.322 26.8812 29.7764 26.6551C29.2307 26.4291 28.7349 26.0978 28.3173 25.6802C27.8997 25.2626 27.5684 24.7668 27.3424 24.2211C27.1163 23.6755 27 23.0906 27 22.5H35.995Z" fill="white"/>
<path d="M0 31.4995C0.0419692 30.3339 0.534492 29.2301 1.3739 28.4204C2.2133 27.6107 3.33412 27.1582 4.50042 27.1582C5.66672 27.1582 6.78753 27.6107 7.62694 28.4204C8.46634 29.2301 8.95886 30.3339 9.00083 31.4995H0Z" fill="white"/>
<path d="M18.0008 31.5C17.9589 32.6655 17.4663 33.7693 16.6269 34.5791C15.7875 35.3888 14.6667 35.8413 13.5004 35.8413C12.3341 35.8413 11.2133 35.3888 10.3739 34.5791C9.53449 33.7693 9.04197 32.6655 9 31.5H18.0008Z" fill="white"/>
<path d="M18 31.4995C18.042 30.3339 18.5345 29.2301 19.3739 28.4204C20.2133 27.6107 21.3341 27.1582 22.5004 27.1582C23.6667 27.1582 24.7875 27.6107 25.6269 28.4204C26.4663 29.2301 26.9589 30.3339 27.0008 31.4995H18Z" fill="white"/>
<path d="M35.995 31.5C35.995 32.6928 35.5212 33.8368 34.6777 34.6802C33.8343 35.5237 32.6903 35.9975 31.4975 35.9975C30.3047 35.9975 29.1607 35.5237 28.3173 34.6802C27.4738 33.8368 27 32.6928 27 31.5H35.995Z" fill="white"/>
<path d="M58.9817 13.2593C58.9801 12.8364 58.811 12.4313 58.5115 12.1328C58.2119 11.8344 57.8062 11.6668 57.3833 11.6668H56.1058V17.8501H57.5758C57.6823 17.8509 57.7878 17.8304 57.8862 17.7899C57.9846 17.7493 58.0739 17.6895 58.1489 17.614C58.2239 17.5385 58.283 17.4487 58.3228 17.35C58.3627 17.2513 58.3824 17.1457 58.3808 17.0393H58.6433V18.9234H58.3808C58.3824 18.817 58.3627 18.7114 58.3228 18.6127C58.283 18.514 58.2239 18.4242 58.1489 18.3487C58.0739 18.2732 57.9846 18.2134 57.8862 18.1728C57.7878 18.1323 57.6823 18.1118 57.5758 18.1126H56.1058V24.3018H57.3833C57.8072 24.3018 58.2138 24.1334 58.5135 23.8336C58.8133 23.5339 58.9817 23.1273 58.9817 22.7034H59.25V24.5818H54V24.3193H54.8342V11.6668H54V11.3984H59.25V13.3001L58.9817 13.2593Z" fill="white"/>
<path d="M67.9866 17.2084L70.1099 24.3193H71.0141V24.5818H68.0974V24.3193H68.7741L67.2341 19.1859L65.2799 24.3193H66.0499V24.5818H64.1308V24.3193H65.0349L67.1408 18.7893L64.9999 11.6668H64.1133V11.3984H67.0299V11.6668H66.3124L67.8583 16.8001L69.8124 11.6668H69.0774V11.3984H70.9966V11.6668H70.0749L67.9866 17.2084Z" fill="white"/>
<path d="M77.9871 11.4393C78.2639 11.4386 78.5381 11.4925 78.7939 11.5981C79.0498 11.7036 79.2822 11.8587 79.4779 12.0544C79.6736 12.2501 79.8287 12.4826 79.9342 12.7384C80.0398 12.9942 80.0937 13.2684 80.093 13.5452V15.0502H78.833V12.5302C78.8361 12.4174 78.8165 12.3052 78.7753 12.2002C78.7342 12.0952 78.6723 11.9995 78.5933 11.919C78.5144 11.8384 78.42 11.7746 78.3159 11.7312C78.2117 11.6879 78.0999 11.666 77.9871 11.6668H77.6488C77.5375 11.6661 77.4272 11.6874 77.3242 11.7297C77.2212 11.7719 77.1277 11.8342 77.049 11.9129C76.9703 11.9916 76.908 12.0851 76.8658 12.1881C76.8236 12.2911 76.8022 12.4014 76.803 12.5127V23.4735C76.803 23.6978 76.8921 23.913 77.0507 24.0716C77.2093 24.2302 77.4245 24.3193 77.6488 24.3193H77.9871C78.0984 24.3201 78.2088 24.2988 78.3117 24.2565C78.4147 24.2143 78.5083 24.152 78.587 24.0733C78.6657 23.9946 78.7279 23.9011 78.7702 23.7981C78.8124 23.6951 78.8338 23.5848 78.833 23.4735V20.9535H80.093V22.4585C80.0937 22.7353 80.0398 23.0095 79.9342 23.2653C79.8287 23.5211 79.6736 23.7536 79.4779 23.9493C79.2822 24.145 79.0498 24.3001 78.7939 24.4056C78.5381 24.5112 78.2639 24.5651 77.9871 24.5644H77.6488C77.3721 24.5651 77.0979 24.5112 76.842 24.4056C76.5862 24.3001 76.3537 24.145 76.158 23.9493C75.9623 23.7536 75.8073 23.5211 75.7017 23.2653C75.5962 23.0095 75.5422 22.7353 75.543 22.4585V13.5277C75.5422 13.2507 75.5961 12.9762 75.7016 12.72C75.8071 12.4639 75.9621 12.231 76.1577 12.0349C76.3533 11.8387 76.5857 11.6831 76.8416 11.5769C77.0975 11.4707 77.3718 11.416 77.6488 11.416H77.9871V11.4393Z" fill="white"/>
<path d="M89.6047 22.6801H89.8672V24.5643H84.6172V24.3018H85.4455V11.6668H84.6172V11.4043H87.5339V11.6668H86.7114V24.3018H87.9889C88.4128 24.3018 88.8193 24.1334 89.119 23.8337C89.4188 23.5339 89.5872 23.1274 89.5872 22.7035L89.6047 22.6801Z" fill="white"/>
<path d="M100.513 11.4159V11.6668H99.6908V22.4584C99.6908 22.7355 99.6362 23.0098 99.53 23.2657C99.4238 23.5215 99.2682 23.7539 99.072 23.9496C98.8758 24.1452 98.643 24.3002 98.3868 24.4057C98.1307 24.5111 97.8562 24.565 97.5792 24.5643H97.2408C96.6823 24.5643 96.1467 24.3424 95.7518 23.9475C95.3569 23.5526 95.135 23.0169 95.135 22.4584V11.6668H94.3125V11.3984H97.2292V11.6668H96.4067V23.1351C96.4067 23.4445 96.5296 23.7413 96.7484 23.9601C96.9672 24.1789 97.2639 24.3018 97.5733 24.3018C97.8179 24.3025 98.0602 24.2549 98.2864 24.1617C98.5125 24.0684 98.7179 23.9314 98.8909 23.7585C99.0638 23.5855 99.2008 23.3801 99.2941 23.154C99.3873 22.9278 99.4349 22.6855 99.4342 22.4409V11.6668H98.6058V11.3984L100.513 11.4159Z" fill="white"/>
<path d="M109.573 13.5278V15.027H108.313V12.507C108.313 12.3962 108.291 12.2865 108.249 12.1842C108.206 12.0819 108.144 11.989 108.065 11.9109C107.987 11.8329 107.893 11.7711 107.791 11.7292C107.688 11.6874 107.578 11.6662 107.468 11.667H107.129C106.905 11.667 106.69 11.7561 106.531 11.9147C106.372 12.0733 106.283 12.2885 106.283 12.5128V16.042C106.282 16.1787 106.313 16.3139 106.375 16.4358C106.437 16.5577 106.528 16.6628 106.639 16.742L108.693 18.2061C108.97 18.398 109.198 18.6541 109.355 18.9527C109.512 19.2513 109.595 19.5836 109.597 19.9211V22.4586C109.597 22.7357 109.542 23.01 109.436 23.2659C109.33 23.5217 109.174 23.7541 108.978 23.9498C108.782 24.1454 108.549 24.3004 108.293 24.4059C108.037 24.5113 107.762 24.5652 107.485 24.5645H107.147C106.588 24.5645 106.053 24.3426 105.658 23.9477C105.263 23.5528 105.041 23.0171 105.041 22.4586V20.9536H106.301V23.4736C106.301 23.698 106.39 23.9131 106.549 24.0717C106.707 24.2304 106.922 24.3195 107.147 24.3195H107.485C107.597 24.3202 107.707 24.2989 107.81 24.2568C107.914 24.2146 108.008 24.1524 108.087 24.0738C108.166 23.9952 108.229 23.9017 108.272 23.7987C108.315 23.6957 108.337 23.5852 108.337 23.4736V19.9386C108.339 19.8012 108.307 19.6654 108.244 19.5433C108.181 19.4211 108.088 19.3165 107.975 19.2386L105.928 17.7745C105.646 17.5858 105.415 17.3318 105.253 17.0341C105.092 16.7364 105.005 16.404 105 16.0653V13.5278C104.999 13.2508 105.053 12.9763 105.159 12.7202C105.264 12.464 105.419 12.2312 105.615 12.035C105.81 11.8388 106.043 11.6832 106.299 11.577C106.554 11.4708 106.829 11.4161 107.106 11.4161H107.444C107.723 11.4131 108 11.4654 108.259 11.5702C108.517 11.675 108.752 11.8302 108.95 12.0267C109.149 12.2231 109.306 12.457 109.413 12.7147C109.519 12.9724 109.574 13.2488 109.573 13.5278Z" fill="white"/>
<path d="M116.219 11.6668V24.3193H117.047V24.5818H114.131V24.3193H114.918V11.6668H114.09V11.3984H117.007V11.6668H116.219Z" fill="white"/>
<path d="M129.29 11.4159V11.6668H128.404L126.164 24.5643H124.834L122.576 11.6668H121.672V11.3984H124.589V11.6668H123.836L126 24.0743L128.176 11.6668H127.406V11.3984L129.29 11.4159Z" fill="white"/>
<path d="M138.917 13.2593C138.916 12.8364 138.747 12.4313 138.447 12.1328C138.147 11.8344 137.742 11.6668 137.319 11.6668H136.041V17.8501H137.506C137.612 17.8509 137.718 17.8304 137.817 17.79C137.915 17.7495 138.005 17.6898 138.081 17.6143C138.156 17.5389 138.216 17.4492 138.256 17.3505C138.297 17.2518 138.317 17.146 138.316 17.0393H138.579V18.9234H138.316C138.317 18.8167 138.297 18.711 138.256 18.6122C138.216 18.5135 138.156 18.4238 138.081 18.3484C138.005 18.2729 137.915 18.2132 137.817 18.1727C137.718 18.1323 137.612 18.1118 137.506 18.1126H136.041V24.3018H137.319C137.743 24.3018 138.149 24.1334 138.449 23.8336C138.749 23.5339 138.917 23.1273 138.917 22.7034H139.18V24.5818H133.93V24.3193H134.752V11.6668H133.936V11.3984H139.186V13.3001L138.917 13.2593Z" fill="white"/>
<path d="M159.155 22.4761C159.156 22.7529 159.102 23.0271 158.997 23.2829C158.891 23.5387 158.736 23.7712 158.54 23.9669C158.345 24.1626 158.112 24.3177 157.856 24.4232C157.6 24.5288 157.326 24.5827 157.05 24.582H156.711C156.432 24.5858 156.156 24.5342 155.897 24.43C155.639 24.3259 155.403 24.1713 155.205 23.9752C155.007 23.7792 154.85 23.5457 154.743 23.2884C154.636 23.031 154.581 22.7549 154.582 22.4761V13.5453C154.581 13.2685 154.635 12.9944 154.741 12.7385C154.846 12.4827 155.001 12.2502 155.197 12.0545C155.393 11.8588 155.625 11.7037 155.881 11.5982C156.137 11.4926 156.411 11.4387 156.688 11.4395H157.026C157.303 11.4387 157.577 11.4926 157.833 11.5982C158.089 11.7037 158.321 11.8588 158.517 12.0545C158.713 12.2502 158.868 12.4827 158.973 12.7385C159.079 12.9944 159.133 13.2685 159.132 13.5453V15.0503H157.872V12.5303C157.875 12.4195 157.856 12.3092 157.817 12.2057C157.777 12.1022 157.717 12.0076 157.641 11.9274C157.564 11.8471 157.473 11.7828 157.371 11.7381C157.27 11.6934 157.16 11.6692 157.05 11.667H156.711C156.6 11.6662 156.49 11.6875 156.387 11.7298C156.284 11.772 156.19 11.8343 156.111 11.913C156.033 11.9917 155.97 12.0852 155.928 12.1882C155.886 12.2912 155.865 12.4015 155.865 12.5128V23.4736C155.865 23.698 155.954 23.9131 156.113 24.0717C156.272 24.2303 156.487 24.3195 156.711 24.3195H157.05C157.161 24.3202 157.271 24.2989 157.374 24.2567C157.477 24.2144 157.571 24.1521 157.649 24.0735C157.728 23.9948 157.79 23.9012 157.833 23.7982C157.875 23.6953 157.896 23.5849 157.895 23.4736V19.8978H157.067V19.6353H159.155V22.4761Z" fill="white"/>
<path d="M169.836 11.4159V11.6668H169.007V22.4584C169.008 22.7352 168.954 23.0094 168.849 23.2652C168.743 23.5211 168.588 23.7535 168.392 23.9492C168.196 24.1449 167.964 24.3 167.708 24.4055C167.452 24.5111 167.178 24.565 166.901 24.5643H166.563C166.286 24.565 166.012 24.5111 165.756 24.4055C165.5 24.3 165.268 24.1449 165.072 23.9492C164.877 23.7535 164.722 23.5211 164.616 23.2652C164.51 23.0094 164.456 22.7352 164.457 22.4584V11.6668H163.629V11.3984H166.546V11.6668H165.717V23.1351C165.717 23.4445 165.84 23.7413 166.059 23.9601C166.278 24.1789 166.574 24.3018 166.884 24.3018C167.128 24.3025 167.371 24.2549 167.597 24.1617C167.823 24.0684 168.028 23.9314 168.201 23.7585C168.374 23.5855 168.511 23.3801 168.605 23.154C168.698 22.9278 168.746 22.6855 168.745 22.4409V11.6668H167.916V11.3984L169.836 11.4159Z" fill="white"/>
<path d="M179.7 22.6801H179.969V24.5643H174.719V24.3018H175.547V11.6668H174.719V11.4043H177.635V11.6668H176.807V24.3018H178.085C178.508 24.3018 178.915 24.1334 179.215 23.8337C179.515 23.5339 179.683 23.1274 179.683 22.7035L179.7 22.6801Z" fill="white"/>
<path d="M189.818 13.2593C189.816 12.8364 189.647 12.4313 189.347 12.1328C189.048 11.8344 188.642 11.6668 188.219 11.6668H186.942V17.8501H188.418C188.524 17.8509 188.63 17.8304 188.728 17.7899C188.826 17.7493 188.916 17.6895 188.991 17.614C189.066 17.5385 189.125 17.4487 189.165 17.35C189.204 17.2513 189.224 17.1457 189.223 17.0393H189.485V18.9234H189.223C189.224 18.817 189.204 18.7114 189.165 18.6127C189.125 18.514 189.066 18.4242 188.991 18.3487C188.916 18.2732 188.826 18.2134 188.728 18.1728C188.63 18.1323 188.524 18.1118 188.418 18.1126H186.948V24.3018H188.225C188.649 24.3018 189.056 24.1334 189.355 23.8336C189.655 23.5339 189.823 23.1273 189.823 22.7034H190.086V24.5818H184.836V24.3193H185.664V11.6668H184.836V11.3984H190.086V13.3001L189.818 13.2593Z" fill="white"/>
<path d="M200.557 11.416V13.3002H200.289C200.29 13.0906 200.249 12.8829 200.169 12.689C200.09 12.4951 199.972 12.3188 199.824 12.1703C199.676 12.0218 199.501 11.904 199.307 11.8236C199.113 11.7432 198.906 11.7018 198.696 11.7018H198.393V24.3368H199.221V24.5993H196.305V24.3368H197.133V11.7018H196.83C196.406 11.7018 195.999 11.8702 195.699 12.17C195.4 12.4697 195.231 12.8763 195.231 13.3002H194.969V11.416H200.557Z" fill="white"/>
<path d="M210.001 13.5278V15.0269H208.741V12.5069C208.74 12.3948 208.717 12.284 208.673 12.1809C208.629 12.0778 208.565 11.9845 208.485 11.9063C208.405 11.8282 208.31 11.7668 208.205 11.7257C208.101 11.6846 207.99 11.6646 207.878 11.6669H207.539C207.428 11.6661 207.318 11.6875 207.215 11.7297C207.112 11.772 207.018 11.8342 206.94 11.9129C206.861 11.9916 206.799 12.0852 206.756 12.1882C206.714 12.2911 206.693 12.4015 206.694 12.5128V16.0419C206.69 16.1789 206.721 16.3146 206.783 16.4368C206.845 16.5589 206.937 16.6638 207.049 16.7419L209.097 18.2061C209.375 18.3979 209.602 18.654 209.759 18.9527C209.917 19.2513 210 19.5835 210.001 19.9211V22.4586C210.002 22.7353 209.948 23.0095 209.842 23.2654C209.737 23.5212 209.582 23.7537 209.386 23.9494C209.19 24.1451 208.958 24.3001 208.702 24.4057C208.446 24.5112 208.172 24.5652 207.895 24.5644H207.557C207.28 24.5652 207.006 24.5112 206.75 24.4057C206.494 24.3001 206.262 24.1451 206.066 23.9494C205.87 23.7537 205.715 23.5212 205.61 23.2654C205.504 23.0095 205.45 22.7353 205.451 22.4586V20.9536H206.711V23.4736C206.71 23.5849 206.732 23.6952 206.774 23.7982C206.816 23.9012 206.878 23.9947 206.957 24.0734C207.036 24.1521 207.129 24.2144 207.232 24.2566C207.335 24.2988 207.446 24.3202 207.557 24.3194H207.895C208.007 24.3202 208.117 24.2988 208.22 24.2566C208.323 24.2144 208.416 24.1521 208.495 24.0734C208.574 23.9947 208.636 23.9012 208.678 23.7982C208.721 23.6952 208.742 23.5849 208.741 23.4736V19.9386C208.743 19.8018 208.711 19.6667 208.649 19.5448C208.587 19.4229 208.497 19.3178 208.385 19.2386L206.332 17.7744C206.056 17.5822 205.831 17.3266 205.675 17.0292C205.518 16.7318 205.436 16.4012 205.434 16.0653V13.5278C205.433 13.2507 205.487 12.9763 205.592 12.7201C205.698 12.4639 205.853 12.2311 206.048 12.0349C206.244 11.8388 206.476 11.6831 206.732 11.5769C206.988 11.4707 207.262 11.4161 207.539 11.4161H207.878C208.156 11.4138 208.432 11.4667 208.69 11.5719C208.948 11.677 209.183 11.8323 209.38 12.0287C209.578 12.2251 209.734 12.4587 209.841 12.716C209.947 12.9733 210.002 13.2492 210.001 13.5278Z" fill="white"/>
</svg>
