<svg width="312" height="54" viewBox="0 0 312 54" fill="none" xmlns="http://www.w3.org/2000/svg">
<path d="M0 6.67871C0 2.96829 3.01467 0 6.67871 0C10.3891 0 13.3574 3.01467 13.3574 6.67871H0Z" fill="#F6F0E3"/>
<path d="M26.7615 6.6787C26.7615 10.3891 23.7466 13.3574 20.0825 13.3574C16.3721 13.3574 13.4038 10.3427 13.4038 6.6787H26.7615Z" fill="#F6F0E3"/>
<path d="M26.7617 6.6787C26.7617 2.96828 29.7764 -7.62939e-06 33.4404 -7.62939e-06C37.1045 -7.62939e-06 40.1191 3.01466 40.1191 6.6787H26.7617Z" fill="#F6F0E3"/>
<path d="M53.4766 6.6787C53.4766 10.3891 50.4619 13.3574 46.7979 13.3574C43.0874 13.3574 40.1191 10.3427 40.1191 6.6787H53.4766Z" fill="#F6F0E3"/>
<path d="M0 20.0362C0 16.3258 3.01467 13.3574 6.67871 13.3574C10.3891 13.3574 13.3574 16.3722 13.3574 20.0362H0Z" fill="#F6F0E3"/>
<path d="M26.7615 20.0362C26.7615 23.7466 23.7466 26.7149 20.0825 26.7149C16.3721 26.7149 13.4038 23.7003 13.4038 20.0362H26.7615Z" fill="#F6F0E3"/>
<path d="M26.7617 20.0362C26.7617 16.3258 29.7764 13.3574 33.4404 13.3574C37.1045 13.3574 40.1191 16.3722 40.1191 20.0362H26.7617Z" fill="#F6F0E3"/>
<path d="M53.4766 20.0362C53.4766 23.7466 50.4619 26.7149 46.7979 26.7149C43.0874 26.7149 40.1191 23.7003 40.1191 20.0362H53.4766Z" fill="#F6F0E3"/>
<path d="M0 33.3938C0 29.6834 3.01467 26.7149 6.67871 26.7149C10.3891 26.7149 13.3574 29.7297 13.3574 33.3938H0Z" fill="#F6F0E3"/>
<path d="M26.7615 33.3938C26.7615 37.1042 23.7466 40.0725 20.0825 40.0725C16.3721 40.0725 13.4038 37.0578 13.4038 33.3938H26.7615Z" fill="#F6F0E3"/>
<path d="M26.7617 33.3938C26.7617 29.6833 29.7764 26.7149 33.4404 26.7149C37.1045 26.7149 40.1191 29.7297 40.1191 33.3938H26.7617Z" fill="#F6F0E3"/>
<path d="M53.4766 33.3938C53.4766 37.1042 50.4619 40.0725 46.7979 40.0725C43.0874 40.0725 40.1191 37.0578 40.1191 33.3938H53.4766Z" fill="#F6F0E3"/>
<path d="M0 46.7976C0 43.0872 3.01467 40.1189 6.67871 40.1189C10.3891 40.1189 13.3574 43.1336 13.3574 46.7976H0Z" fill="#F6F0E3"/>
<path d="M26.7615 46.7976C26.7615 50.508 23.7466 53.4763 20.0825 53.4763C16.3721 53.4763 13.4038 50.4616 13.4038 46.7976H26.7615Z" fill="#F6F0E3"/>
<path d="M26.7617 46.7976C26.7617 43.0872 29.7764 40.1189 33.4404 40.1189C37.1045 40.1189 40.1191 43.1336 40.1191 46.7976H26.7617Z" fill="#F6F0E3"/>
<path d="M53.4766 46.7976C53.4766 50.508 50.4619 53.4763 46.7979 53.4763C43.0874 53.4763 40.1191 50.4616 40.1191 46.7976H53.4766Z" fill="#F6F0E3"/>
<path d="M87.6122 19.6652C87.6122 18.3665 86.5455 17.2997 85.2468 17.2997H83.3454V26.483H85.5251C86.1745 26.483 86.7311 25.9729 86.7311 25.2772H87.102V28.06H86.7311C86.7311 27.4107 86.2208 26.8541 85.5251 26.8541H83.3454V36.0374H85.2468C86.5455 36.0374 87.6122 34.9706 87.6122 33.672H87.9834V36.4548H80.1914V36.0837H81.3973V17.2997H80.1914V16.9288H87.9834V19.7116L87.6122 19.6652Z" fill="#F6F0E3"/>
<path d="M101.016 25.5555L104.17 36.1302H105.515V36.5012H101.155V36.1302H102.176L99.9031 28.5239L96.9813 36.1302H98.1408V36.5012H95.3115V36.1302H96.6565L99.7641 27.9209L96.6101 17.3462H95.3115V16.9751H99.6712V17.3462H98.6046L100.877 24.9525L103.799 17.3462H102.686V16.9751H105.515V17.3462H104.124L101.016 25.5555Z" fill="#F6F0E3"/>
<path d="M115.858 16.9751C117.574 16.9751 118.965 18.3665 118.965 20.0826V22.3088H117.11V18.5521C117.11 17.8564 116.554 17.2997 115.858 17.2997H115.348C114.652 17.2997 114.095 17.8564 114.095 18.5521V34.8315C114.095 35.5272 114.652 36.0837 115.348 36.0837H115.858C116.554 36.0837 117.11 35.5272 117.11 34.8315V31.0748H118.965V33.3009C118.965 35.017 117.574 36.4085 115.858 36.4085H115.348C113.632 36.4085 112.24 35.017 112.24 33.3009V20.0362C112.24 18.3202 113.632 16.9288 115.348 16.9288L115.858 16.9751Z" fill="#F6F0E3"/>
<path d="M133.111 33.672H133.482V36.4548H125.69V36.0837H126.896V17.2997H125.69V16.9288H130.05V17.2997H128.844V36.0837H130.746C132.044 36.0837 133.111 35.017 133.111 33.672Z" fill="#F6F0E3"/>
<path d="M149.344 16.9288V17.2997H148.138V33.3474C148.138 35.0634 146.747 36.4548 145.031 36.4548H144.521C142.805 36.4548 141.413 35.0634 141.413 33.3474V17.2997H140.161V16.9288H144.521V17.2997H143.315V34.3214C143.315 35.2954 144.103 36.0837 145.077 36.0837C146.608 36.0837 147.86 34.8779 147.86 33.3009V17.2997H146.654V16.9288H149.344Z" fill="#F6F0E3"/>
<path d="M162.794 20.0826V22.3088H160.939V18.5521C160.939 17.8564 160.383 17.2997 159.687 17.2997H159.177C158.481 17.2997 157.925 17.8564 157.925 18.5521V23.793C157.925 24.2104 158.11 24.5815 158.435 24.8134L161.496 26.9933C162.331 27.5962 162.841 28.5238 162.841 29.5442V33.3009C162.841 35.017 161.449 36.4085 159.733 36.4085H159.223C157.507 36.4085 156.116 35.017 156.116 33.3009V31.0748H157.971V34.8315C157.971 35.5272 158.527 36.0837 159.223 36.0837H159.733C160.429 36.0837 160.986 35.5272 160.986 34.8315V29.5905C160.986 29.1731 160.8 28.8021 160.475 28.5702L157.414 26.3903C156.579 25.7874 156.069 24.8598 156.069 23.8394V20.0826C156.069 18.3665 157.461 16.9751 159.177 16.9751H159.687C161.403 16.9287 162.794 18.3201 162.794 20.0826Z" fill="#F6F0E3"/>
<path d="M172.673 17.3462V36.1302H173.879V36.5012H169.52V36.1302H170.725V17.3462H169.52V16.9751H173.879V17.3462H172.673Z" fill="#F6F0E3"/>
<path d="M192.06 16.9288V17.2997H190.762L187.422 36.4548H185.428L182.089 17.2997H180.744V16.9288H185.103V17.2997H183.99L187.19 35.7128L190.391 17.2997H189.231V16.9288H192.06Z" fill="#F6F0E3"/>
<path d="M206.392 19.6652C206.392 18.3665 205.325 17.2997 204.027 17.2997H202.125V26.4831H204.305C204.954 26.4831 205.511 25.9729 205.511 25.2772H205.882V28.06H205.511C205.511 27.4107 205.001 26.8541 204.305 26.8541H202.125V36.0374H204.027C205.325 36.0374 206.392 34.9706 206.392 33.672H206.763V36.4548H198.971V36.0837H200.177V17.2997H198.971V16.9288H206.763V19.7116L206.392 19.6652Z" fill="#F6F0E3"/>
<path d="M236.446 33.3474C236.446 35.0634 235.055 36.4548 233.339 36.4548H232.829C231.113 36.4548 229.721 35.0634 229.721 33.3474V20.0826C229.721 18.3665 231.113 16.9751 232.829 16.9751H233.339C235.055 16.9751 236.446 18.3665 236.446 20.0826V22.3088H234.591V18.5521C234.591 17.8564 234.035 17.2997 233.339 17.2997H232.829C232.133 17.2997 231.576 17.8564 231.576 18.5521V34.8315C231.576 35.5272 232.133 36.0837 232.829 36.0837H233.339C234.035 36.0837 234.591 35.5272 234.591 34.8315V29.5442H233.339V29.1731H236.446V33.3474Z" fill="#F6F0E3"/>
<path d="M252.309 16.9288V17.2997H251.103V33.3474C251.103 35.0634 249.711 36.4548 247.995 36.4548H247.485C245.769 36.4548 244.378 35.0634 244.378 33.3474V17.2997H243.125V16.9288H247.485V17.2997H246.279V34.3214C246.279 35.2954 247.068 36.0837 248.042 36.0837C249.572 36.0837 250.824 34.8779 250.824 33.3009V17.2997H249.619V16.9288H252.309Z" fill="#F6F0E3"/>
<path d="M266.965 33.672H267.336V36.4548H259.544V36.0837H260.75V17.2997H259.544V16.9288H263.904V17.2997H262.698V36.0837H264.599C265.898 36.0837 266.965 35.017 266.965 33.672Z" fill="#F6F0E3"/>
<path d="M281.992 19.6652C281.992 18.3665 280.925 17.2997 279.627 17.2997H277.725V26.4831H279.905C280.554 26.4831 281.111 25.9729 281.111 25.2772H281.482V28.06H281.111C281.111 27.4107 280.601 26.8541 279.905 26.8541H277.725V36.0374H279.627C280.925 36.0374 281.992 34.9706 281.992 33.672H282.363V36.4548H274.571V36.0837H275.777V17.2997H274.571V16.9288H282.363V19.7116L281.992 19.6652Z" fill="#F6F0E3"/>
<path d="M297.947 16.9288V19.7116H297.576C297.576 18.413 296.509 17.3462 295.21 17.3462H294.746V36.1302H295.952V36.5012H291.593V36.1302H292.798V17.3462H292.335C291.036 17.3462 289.969 18.413 289.969 19.7116H289.598V16.9288H297.947Z" fill="#F6F0E3"/>
<path d="M311.954 20.0826V22.3088H310.098V18.5521C310.098 17.8564 309.542 17.2997 308.846 17.2997H308.336C307.64 17.2997 307.084 17.8564 307.084 18.5521V23.793C307.084 24.2104 307.269 24.5815 307.594 24.8134L310.655 26.9933C311.49 27.5962 312 28.5238 312 29.5442V33.3009C312 35.017 310.609 36.4085 308.893 36.4085H308.382C306.666 36.4085 305.275 35.017 305.275 33.3009V31.0748H307.13V34.8315C307.13 35.5272 307.687 36.0837 308.382 36.0837H308.893C309.588 36.0837 310.145 35.5272 310.145 34.8315V29.5905C310.145 29.1731 309.959 28.8021 309.635 28.5702L306.573 26.3903C305.739 25.7874 305.229 24.8598 305.229 23.8394V20.0826C305.229 18.3665 306.62 16.9751 308.336 16.9751H308.846C310.562 16.9287 311.954 18.3201 311.954 20.0826Z" fill="#F6F0E3"/>
</svg>
