<?xml version="1.0" encoding="utf-8"?>
<!-- Generator: Adobe Illustrator 22.1.0, SVG Export Plug-In . SVG Version: 6.00 Build 0)  -->
<svg version="1.1" id="Layer_1" xmlns="http://www.w3.org/2000/svg" xmlns:xlink="http://www.w3.org/1999/xlink" x="0px" y="0px"
	 viewBox="0 0 245 196" style="enable-background:new 0 0 245 196;" xml:space="preserve">
<style type="text/css">
	.st0{fill:#FF9536;}
</style>
<g>
	<g>
		<path class="st0" d="M167.5,163.9l-0.6-6.3l-0.8-8.7l-0.1-0.6l-0.2-0.2l-0.3-0.1l-1.6-0.1l-2-0.6l-0.3-3.1l-0.1-0.5l-0.2-0.6
			l-0.3-0.5l-0.4-0.5l-0.5-0.3l-1.1,0l-1.9,0.1l-0.1,0.1l-9.3,0.2l-5.9-2.9l-0.5-0.2l-0.2-0.1l0-0.1l0-0.4l-1.6-0.1l-0.3-1.6l0.1,0
			v-0.1l-13.1-87.3l1.4,0.5l1.3,0.8h0.2l0.3-0.3l0.1-0.4v-0.4l-0.1-0.2l-1.1-0.7l-5.1-20.2L123,28l-0.8-5.3l-0.1,0l-0.2-0.8l0.1,0
			v-0.1l-0.1-0.3l-0.1-0.1l0-0.3l-0.2-0.7l-0.1-0.2v-0.2l0-0.7l-0.1-0.1l-0.3-0.3l-0.4-0.1l-0.2,0l-0.3,0.2L120,19l0,0.4l-0.2,0.4
			l-0.1,0l-0.2,0.4l-0.2,0.5v0.1l-0.1,0.1l-0.5,1.1v0.3l-0.1,0.1l-0.2,0.6l-0.1,0.2l0,0.3l0,0l-0.4,1.1v0.1l-0.3,1.2l-8.7,16.1h-0.1
			l-0.5-0.1h-0.3l-0.2,0.3l-0.1,0.4l0,0.5l0.1,0.1l1.9,0.3l2.6,0.9l0.1,0.1l0,0.1l-2.8,9.8l-2.8,10.5l-2.1,8.8l-1.8,8.5l-1.5,9.7
			l-0.1,1.3l-10.8,44.2l-0.1,0l-0.8,2.4h-0.1l0,0.1l-0.2,0.3l-0.4,2l-2.6,0.1h-1.3l-0.1,0l-2.2,0.2l-0.1-0.1l-0.1,0.1l-1.4,0.1
			l-0.1-0.1h-0.3l-0.3,0.2l-0.3,0.8l-0.3,1.3l-0.4,2.5l-0.1,0.1l-0.2,0.7l-0.7,3.3l-0.1,0.1l-0.2,0.1l-0.4,1.6l-0.4,1.9l0,0.6
			l0.1,0.3l0.3,0.8l0.8,2.6l0.7,1.9l0.7,1.2l0.4,0.3l7.5,3.5l5.9,2.7l18.3,8.2l1,0.3h0.1l0.5-0.4l0.1-0.2l0.2-0.7l0.3-1.8l0.4-3.8
			l0.4-5.6l0.2-4.9l0.9,0.4l1.3,0.4l5.7,1.2l12.8,2.6l29.9,6.4l1.4,0.1l0.6-0.3l0.1-0.7v-1.6L167.5,163.9z M112.3,44.2L112.3,44.2
			l-2-0.7l0.1,0l2,0.3l0.1,0.1L112.3,44.2z M116.9,28.6l-0.8,2.5l-3.3,11.4l-0.2,0l-3.5-0.5l0,0l8.2-15.2l0,0.1L116.9,28.6z
			 M119.6,47.1l-0.3,3.3l0-3.6l0.3,0.1V47.1z M119.7,46l-0.1,0.8l0,0l-0.3-0.1l0-1.9l0.4,0L119.7,46z M119.7,43.5l-0.1,0l-0.3,0
			l0-3.9l0.2-3.9l0.4-8.4l0,1.9L119.7,43.5z M119.9,23.8l-0.5,10.3l0.1-7l-0.1-4.4l0.5-0.9L119.9,23.8z M121.5,26.6l0-3.9l0.2,0.8
			l0,0.4L121.5,26.6z M127.9,48.3v0.1l-2.1-1.4l-2.4-16.2l-0.1-0.6L127.9,48.3z M134.9,141L134.9,141l-2.9,1.5l-1.6,0l0,0l-0.1,0
			H129l-0.4-1l-0.1-0.3l0.7-0.1v-0.1l-0.2-0.6l-0.1-0.2l-0.9-0.1l-4.9-0.9l-0.5-0.1l0-0.1l0-0.1v-0.3l-0.1,0l-0.2-0.2l-0.2-0.1
			l-0.1-0.1l-0.2-4.3l1.1,0.4l1.5,0.6l0.2,0.1l0.6,0.2l0.1,0l9,3l0,0.1l-0.1,0v0.1l0.4,2l-0.1,0.1L134.9,141z"/>
		<path class="st0" d="M167.5,163.9l-0.6-6.3l-0.8-8.7l-0.1-0.6l-0.2-0.2l-0.3-0.1l-1.6-0.1l-2-0.6l-0.3-3.1l-0.1-0.5l-0.2-0.6
			l-0.3-0.5l-0.4-0.5l-0.5-0.3l-1.1,0l-1.9,0.1l-0.1,0.1l-9.3,0.2l-5.9-2.9l-0.5-0.2l-0.2-0.1l0-0.1l0-0.4l-1.6-0.1l-0.3-1.6l0.1,0
			v-0.1l-13.1-87.3l1.4,0.5l1.3,0.8h0.2l0.3-0.3l0.1-0.4v-0.4l-0.1-0.2l-1.1-0.7l-5.1-20.2L123,28l-0.8-5.3l-0.1,0l-0.2-0.8l0.1,0
			v-0.1l-0.1-0.3l-0.1-0.1l0-0.3l-0.2-0.7l-0.1-0.2v-0.2l0-0.7l-0.1-0.1l-0.3-0.3l-0.4-0.1l-0.2,0l-0.3,0.2L120,19l0,0.4l-0.2,0.4
			l-0.1,0l-0.2,0.4l-0.2,0.5v0.1l-0.1,0.1l-0.5,1.1v0.3l-0.1,0.1l-0.2,0.6l-0.1,0.2l0,0.3l0,0l-0.4,1.1v0.1l-0.3,1.2l-8.7,16.1h-0.1
			l-0.5-0.1h-0.3l-0.2,0.3l-0.1,0.4l0,0.5l0.1,0.1l1.9,0.3l2.6,0.9l0.1,0.1l0,0.1l-2.8,9.8l-2.8,10.5l-2.1,8.8l-1.8,8.5l-1.5,9.7
			l-0.1,1.3l-10.8,44.2l-0.1,0l-0.8,2.4h-0.1l0,0.1l-0.2,0.3l-0.4,2l-2.6,0.1h-1.3l-0.1,0l-2.2,0.2l-0.1-0.1l-0.1,0.1l-1.4,0.1
			l-0.1-0.1h-0.3l-0.3,0.2l-0.3,0.8l-0.3,1.3l-0.4,2.5l-0.1,0.1l-0.2,0.7l-0.7,3.3l-0.1,0.1l-0.2,0.1l-0.4,1.6l-0.4,1.9l0,0.6
			l0.1,0.3l0.3,0.8l0.8,2.6l0.7,1.9l0.7,1.2l0.4,0.3l7.5,3.5l5.9,2.7l18.3,8.2l1,0.3h0.1l0.5-0.4l0.1-0.2l0.2-0.7l0.3-1.8l0.4-3.8
			l0.4-5.6l0.2-4.9l0.9,0.4l1.3,0.4l5.7,1.2l12.8,2.6l29.9,6.4l1.4,0.1l0.6-0.3l0.1-0.7v-1.6L167.5,163.9z M112.3,44.2L112.3,44.2
			l-2-0.7l0.1,0l2,0.3l0.1,0.1L112.3,44.2z M116.9,28.6l-0.8,2.5l-3.3,11.4l-0.2,0l-3.5-0.5l0,0l8.2-15.2l0,0.1L116.9,28.6z
			 M119.6,47.1l-0.3,3.3l0-3.6l0.3,0.1V47.1z M119.7,46l-0.1,0.8l0,0l-0.3-0.1l0-1.9l0.4,0L119.7,46z M119.7,43.5l-0.1,0l-0.3,0
			l0-3.9l0.2-3.9l0.4-8.4l0,1.9L119.7,43.5z M119.9,23.8l-0.5,10.3l0.1-7l-0.1-4.4l0.5-0.9L119.9,23.8z M121.5,26.6l0-3.9l0.2,0.8
			l0,0.4L121.5,26.6z M127.9,48.3v0.1l-2.1-1.4l-2.4-16.2l-0.1-0.6L127.9,48.3z M134.9,141L134.9,141l-2.9,1.5l-1.6,0l0,0l-0.1,0
			H129l-0.4-1l-0.1-0.3l0.7-0.1v-0.1l-0.2-0.6l-0.1-0.2l-0.9-0.1l-4.9-0.9l-0.5-0.1l0-0.1l0-0.1v-0.3l-0.1,0l-0.2-0.2l-0.2-0.1
			l-0.1-0.1l-0.2-4.3l1.1,0.4l1.5,0.6l0.2,0.1l0.6,0.2l0.1,0l9,3l0,0.1l-0.1,0v0.1l0.4,2l-0.1,0.1L134.9,141z"/>
	</g>
</g>
</svg>
