<?xml version="1.0" encoding="utf-8"?>
<!-- Generator: Adobe Illustrator 22.1.0, SVG Export Plug-In . SVG Version: 6.00 Build 0)  -->
<svg version="1.1" id="Layer_1" xmlns="http://www.w3.org/2000/svg" xmlns:xlink="http://www.w3.org/1999/xlink" x="0px" y="0px"
	 viewBox="0 0 245 196" style="enable-background:new 0 0 245 196;" xml:space="preserve">
<style type="text/css">
	.st0{fill:#FF9536;}
</style>
<g>
	<g>
		<path class="st0" d="M122.4,30.7c45.4,19.8,67.6,53.3,67.9,102.6c-21.9-7.7-46.1-7.7-67.9,0V30.7z M116.2,30.7v102.6
			c-11.1-3.1-18.3-3.1-25.7,0C91.2,97.9,98.6,63.2,116.2,30.7z M196,151.8c-0.6,4.1-2.8,7-6.5,9.7c-3.7,2.8-8.3,3.8-12.9,3.8H86.3
			c-6.2,0-1.7-13.5-36.9-19.5c-0.6-0.1-0.6-1,0-1h35.3c-0.6-0.5-1.1-1.2-1.1-2.1c0-1.4,1.2-2.6,2.6-2.6H106c0.7,0,1.3-0.6,1.3-1.3
			c0-1.4,1.2-2.6,2.6-2.6h43.8c1.4,0,2.6,1.2,2.6,2.6c0,0.7,0.6,1.3,1.3,1.3h19.8c1.4,0,2.6,1.2,2.6,2.6c0,0.8-0.4,1.6-1.1,2.1h9.7
			C192.8,144.8,196.6,147.8,196,151.8z"/>
		<path class="st0" d="M196,151.8c-0.6,4.1-2.8,7-6.5,9.7c-3.7,2.8-8.3,3.8-12.9,3.8H86.3c-6.2,0-1.7-13.5-36.9-19.5
			c-0.6-0.1-0.6-1,0-1h35.3c-0.6-0.5-1.1-1.2-1.1-2.1c0-1.4,1.2-2.6,2.6-2.6H106c0.7,0,1.3-0.6,1.3-1.3c0-1.4,1.2-2.6,2.6-2.6h43.8
			c1.4,0,2.6,1.2,2.6,2.6c0,0.7,0.6,1.3,1.3,1.3h19.8c1.4,0,2.6,1.2,2.6,2.6c0,0.8-0.4,1.6-1.1,2.1h9.7
			C192.8,144.8,196.6,147.8,196,151.8z"/>
		<path class="st0" d="M116.2,30.7v102.6c-11.1-3.1-18.3-3.1-25.7,0C91.2,97.9,98.6,63.2,116.2,30.7z"/>
		<path class="st0" d="M190.4,133.3c-21.9-7.7-46.1-7.7-67.9,0V30.7C167.9,50.4,190,83.9,190.4,133.3z"/>
	</g>
</g>
</svg>
