<?xml version="1.0" encoding="utf-8"?>
<!-- Generator: Adobe Illustrator 22.1.0, SVG Export Plug-In . SVG Version: 6.00 Build 0)  -->
<svg version="1.1" id="Layer_1" xmlns="http://www.w3.org/2000/svg" xmlns:xlink="http://www.w3.org/1999/xlink" x="0px" y="0px"
	 viewBox="0 0 245 196" style="enable-background:new 0 0 245 196;" xml:space="preserve">
<style type="text/css">
	.st0{fill:#FF9536;}
</style>
<g>
	<g>
		<path class="st0" d="M31.8,107.6c0.3-0.7,0.5-1.5,3.4-2.1c2.1-0.4,1.2-0.2,1.7-0.3c2.4-0.6,5-0.6,7.7-1.1c1.2-0.1,2.4-0.3,3.6-0.4
			c0.1-0.1,0.3-0.3,0.4-0.4c2.3-0.4,4.6-0.7,6.9-1.1c1.9-0.2,3.8-0.4,5.6-0.6c3.4-0.4,6.8-0.8,10.1-1.2c2.5-0.4,5-0.1,7.2-0.7
			c1.8-0.5,3.6-1.3,5.2-2c3.8-1.6,7.3-3.4,11.1-4.9c4.6-1.8,11.1-2,16.5-2.9c0.3,0,0.7,0,1,0l7.6,0c1.7,0,3.4-0.1,5-0.1
			c1,0,1.9,0,2.9,0.1l2.3-0.3c4.5-0.9,8.3-2.1,12.5-3.4c1.4-0.4,2.8-0.7,4.3-1.1c1.1-0.1,2.2-0.3,3.3-0.4c0.3-0.3,0.7-0.5,1-0.8
			h-0.3c0.1-0.9,0.1-1.8,0.2-2.7c0.2-0.3,0.5-0.6,0.7-1c1.3-0.7,2,0.3,2.8,0.7c0.4,0.7,0.4,2.2,0.4,3.1c0.5,0,0.9-0.1,1.4-0.1
			c0-0.4,0-0.7,0-1.1c-0.1,0-0.2-0.1-0.4-0.1c0-0.1,0-0.1,0-0.2c0.2,0,0.3-0.1,0.5-0.1c0-1.7,0-3.4,0-5.1h-0.5v-0.7h1.6l0,0.1v0.5
			c-0.2,0-0.3,0-0.5,0c0,1.7-0.1,3.3-0.1,5c0.1,0,0.1,0,0.2,0c0-2.3,0.1-3.9,1.5-4.8c1.5-1,3.8,0.3,4.2,1.5c0,0.6,0.1,1.1,0.1,1.7
			h0.1c0-2.4-0.1-4.8-0.1-7.3h0.7c0,3.1,0,6.3,0,9.4c-0.1,0.2-0.2,0.6-0.2,1c0.8,0.2,1.6,0.4,2.4,0.6c0.9,0.3,1.8,0.9,2.6,1.2
			c0.1,0.2,0.1,0.5,0.2,0.7c-2.2,2.4-5.3,4.4-7.9,6.3c-1.2,0.9-2.7,1.4-2.7,3.5c1.1,1,2.9,1.5,4.3,2.2c0.8,0.4,3.7,1.4,6.1,1.4
			c2.9,0,5.8,0,8.7,0c2.2,0.2,4.3,0.4,6.5,0.6c8.2,1.7,15.4,4.3,19.8,9.8c1,1.3,2.4,2.5,3.1,4.1c2.7,0.8,5.7-0.4,6.5,2.4
			c0.2,0.5,0.3,1.1,0,1.7c-0.8,1.1-6,0.9-8,0.9c0,0.2,0,0.5-0.1,0.7c-4.1,0.1-8.2,0.2-12.3,0.3c-12.9,0.2-25.9,0.4-38.8,0.7
			c-11.9,0.2-23.8,0.5-35.7,0.7c-7.7,0.1-15.5,0.3-23.2,0.4c-5.4,0.1-10.8,0.2-16.3,0.3l-10.2,0.2c-1.7,0-3.4,0.1-5.1,0.1
			c-1.8,0-3.5,0-5.3,0c-3.9,0-7.8,0-11.6,0c-3.8-2.8-6.9-6.6-10.6-9.6c-1.2-1.1-2.5-2.3-3.7-3.4C31.7,108.9,31.8,108.7,31.8,107.6z"
			/>
		<path class="st0" d="M32.2,109.6c1.3,1.2,2.5,2.3,3.7,3.4c3.7,3,6.7,6.8,10.6,9.6c3.9,0,7.8,0,11.6,0c1.8,0,3.5,0,5.3,0
			c1.7,0,3.4-0.1,5.1-0.1l10.2-0.2c5.4-0.1,10.8-0.2,16.3-0.3c7.7-0.1,15.5-0.3,23.2-0.4c11.9-0.2,23.8-0.5,35.7-0.7
			c12.9-0.2,25.9-0.4,38.8-0.7c4.1-0.1,8.2-0.2,12.3-0.3c0-0.2,0.1-0.5,0.1-0.7c2,0,7.3,0.2,8-0.9c0.3-0.6,0.1-1.2,0-1.7
			c-0.8-2.8-3.8-1.6-6.5-2.4c-0.7-1.6-2.1-2.9-3.1-4.1c-4.4-5.5-11.5-8.1-19.8-9.8c-2.2-0.2-4.3-0.4-6.5-0.6c-2.9,0-5.8,0-8.7,0
			c-2.4,0-5.3-1-6.1-1.4c-1.4-0.6-3.2-1.1-4.3-2.2c0-2.1,1.5-2.6,2.7-3.5c2.6-2,5.7-3.9,7.9-6.3c-0.1-0.2-0.1-0.5-0.2-0.7
			c-0.8-0.3-1.7-0.9-2.6-1.2c-0.8-0.2-1.6-0.4-2.4-0.6c0-0.4,0.1-0.7,0.2-1c0-3.1,0-6.3,0-9.4h-0.7c0,2.4,0.1,4.8,0.1,7.3H163
			c0-0.6-0.1-1.1-0.1-1.7c-0.4-1.3-2.7-2.5-4.2-1.5c-1.4,0.9-1.5,2.5-1.5,4.8c-0.1,0-0.2,0-0.2,0c0-1.7,0.1-3.4,0.1-5
			c0.2,0,0.3,0,0.5,0v-0.5l0-0.1h-1.6v0.7h0.5c0,1.7,0,3.4,0,5.1c-0.2,0-0.3,0.1-0.5,0.1c0,0.1,0,0.1,0,0.2c0.1,0,0.2,0.1,0.4,0.1
			c0,0.4,0,0.7,0,1.1c-0.5,0-1,0.1-1.4,0.1c-0.1-0.9,0-2.4-0.4-3.1c-0.8-0.4-1.5-1.4-2.8-0.7c-0.2,0.3-0.5,0.6-0.7,1
			c-0.1,0.9-0.1,1.8-0.2,2.7h0.3c-0.3,0.3-0.7,0.5-1,0.8c-1.1,0.2-2.2,0.3-3.3,0.4c-1.4,0.4-2.8,0.7-4.3,1.1
			c-4.2,1.2-8,2.5-12.5,3.4l-2.3,0.3c-1,0-2-0.1-2.9-0.1c-1.7,0-3.4,0.1-5,0.1l-7.6,0c-0.3,0-0.7,0-1,0c-5.3,0.9-11.9,1.1-16.5,2.9
			c-3.8,1.5-7.3,3.3-11.1,4.9c-1.6,0.7-3.4,1.6-5.2,2c-2.3,0.6-4.7,0.3-7.2,0.7c-3.4,0.4-6.8,0.8-10.1,1.2c-1.9,0.2-3.8,0.4-5.6,0.6
			c-2.3,0.4-4.6,0.7-6.9,1.1c-0.1,0.1-0.3,0.3-0.4,0.4c-1.2,0.1-2.4,0.3-3.6,0.4c-2.7,0.5-5.3,0.5-7.7,1.1c-0.6,0.1,0.3-0.1-1.7,0.3
			c-3,0.7-3.1,1.5-3.4,2.1C31.8,108.7,31.7,108.9,32.2,109.6z"/>
	</g>
</g>
</svg>
