<svg width="10" height="14" viewBox="0 0 10 14" fill="none" xmlns="http://www.w3.org/2000/svg">
<path d="M5 8.79857C6.37874 8.79857 7.49998 7.63247 7.49998 6.19857C7.49998 4.76467 6.37874 3.59857 5 3.59857C3.62127 3.59857 2.50003 4.76467 2.50003 6.19857C2.50003 7.63247 3.62127 8.79857 5 8.79857ZM5 4.89857C5.68937 4.89857 6.24999 5.48162 6.24999 6.19857C6.24999 6.91552 5.68937 7.49857 5 7.49857C4.31063 7.49857 3.75002 6.91552 3.75002 6.19857C3.75002 5.48162 4.31063 4.89857 5 4.89857Z" fill="#F7B654"/>
<path d="M4.6375 13.8777C4.74625 13.9583 4.87313 13.9986 5 13.9986C5.12687 13.9986 5.25375 13.9583 5.3625 13.8777C5.55249 13.7379 10.0181 10.3846 9.99995 6.19857C9.99995 3.33142 7.75684 0.998566 5 0.998566C2.24316 0.998566 5.5023e-05 3.33142 5.5023e-05 6.19532C-0.0180698 10.3846 4.44751 13.7379 4.6375 13.8777ZM5 2.29857C7.0681 2.29857 8.74996 4.04772 8.74996 6.20182C8.76308 9.08652 6.00749 11.6768 5 12.5263C3.99314 11.6761 1.23692 9.08522 1.25004 6.19857C1.25004 4.04772 2.9319 2.29857 5 2.29857Z" fill="#F7B654"/>
</svg>
