<svg width="11" height="14" viewBox="0 0 11 14" fill="none" xmlns="http://www.w3.org/2000/svg">
<path d="M5.5 8.39933C7.01661 8.39933 8.24997 7.14353 8.24997 5.59933C8.24997 4.05513 7.01661 2.79933 5.5 2.79933C3.98339 2.79933 2.75003 4.05513 2.75003 5.59933C2.75003 7.14353 3.98339 8.39933 5.5 8.39933ZM5.5 4.19933C6.25831 4.19933 6.87499 4.82723 6.87499 5.59933C6.87499 6.37143 6.25831 6.99933 5.5 6.99933C4.7417 6.99933 4.12502 6.37143 4.12502 5.59933C4.12502 4.82723 4.7417 4.19933 5.5 4.19933Z" fill="#F7B654"/>
<path d="M5.10125 13.8691C5.22088 13.9559 5.36044 13.9993 5.5 13.9993C5.63956 13.9993 5.77912 13.9559 5.89875 13.8691C6.10774 13.7186 11.0199 10.1073 10.9999 5.59933C10.9999 2.51163 8.53253 -0.000671387 5.5 -0.000671387C2.46747 -0.000671387 6.05253e-05 2.51163 6.05253e-05 5.59583C-0.0198768 10.1073 4.89226 13.7186 5.10125 13.8691ZM5.5 1.39933C7.77491 1.39933 9.62495 3.28303 9.62495 5.60283C9.63939 8.70943 6.60824 11.4989 5.5 12.4138C4.39245 11.4982 1.36061 8.70803 1.37505 5.59933C1.37505 3.28303 3.22509 1.39933 5.5 1.39933Z" fill="#F7B654"/>
</svg>
