<svg width="163" height="24" viewBox="0 0 163 24" fill="none" xmlns="http://www.w3.org/2000/svg">
<path d="M3.512 18V12.816H6.56C8.216 12.816 9.608 12.312 10.688 11.328C11.768 10.32 12.32 9.024 12.32 7.44C12.32 6 11.816 4.776 10.784 3.744C9.776 2.712 8.336 2.184 6.488 2.184H0.728V18H3.512ZM5.912 4.296C8.312 4.296 9.512 5.712 9.512 7.512C9.512 8.352 9.224 9.096 8.672 9.744C8.12 10.368 7.232 10.68 6.056 10.68H3.488V4.296H5.912ZM19.8099 9.312C20.2899 9.312 20.7459 9.408 21.2019 9.576V7.248C20.8899 7.128 20.5299 7.056 20.0739 7.056C18.5379 7.056 17.4339 7.752 16.7379 9.144C16.6899 9.144 16.6659 9.144 16.6419 9.12L16.2819 7.344H14.4339V18H16.9539V13.08C16.9539 10.8 18.1059 9.312 19.8099 9.312ZM27.6826 7.032C26.0266 7.032 24.6346 7.584 23.5066 8.664C22.4026 9.744 21.8506 11.064 21.8506 12.648C21.8506 14.256 22.3786 15.6 23.4346 16.656C24.4906 17.712 25.9066 18.24 27.6826 18.24C29.3866 18.24 30.7546 17.712 31.8346 16.656C32.9146 15.6 33.4666 14.256 33.4666 12.648C33.4666 11.04 32.9386 9.696 31.8586 8.64C30.7786 7.56 29.3866 7.032 27.6826 7.032ZM24.3946 12.6C24.3946 11.616 24.7066 10.776 25.3066 10.104C25.9306 9.408 26.7226 9.072 27.7066 9.072C28.6906 9.072 29.4826 9.408 30.0826 10.104C30.7066 10.776 31.0186 11.616 31.0186 12.6C31.0186 14.64 29.7226 16.2 27.7066 16.2C25.6666 16.2 24.3946 14.712 24.3946 12.6ZM38.7809 3.912C38.7809 3.12 38.1809 2.472 37.3409 2.472C36.5489 2.472 35.8529 3.12 35.8529 3.912C35.8529 4.752 36.4769 5.376 37.3409 5.376C38.1809 5.376 38.7809 4.752 38.7809 3.912ZM33.9809 23.496C36.7409 23.328 38.5649 21.744 38.5649 18.12V7.32H36.0449V17.976C36.0449 20.304 35.3009 21.336 33.0689 21.456C33.1649 21.696 33.3089 22.032 33.5249 22.488L33.9809 23.496ZM46.5397 7.008C44.9797 7.008 43.6837 7.56 42.6517 8.64C41.6437 9.72 41.1397 11.04 41.1397 12.624C41.1397 14.304 41.6437 15.672 42.6757 16.704C43.7077 17.736 45.1717 18.264 47.0437 18.264C48.6517 18.264 50.0437 17.88 51.1717 17.088V15C49.9477 15.864 48.6517 16.296 47.2357 16.296C45.2437 16.296 43.8037 15.24 43.6837 13.152H51.6757V12.552C51.6757 10.896 51.2197 9.576 50.2837 8.544C49.3717 7.512 48.1237 7.008 46.5397 7.008ZM46.6357 8.904C48.0997 8.904 49.0837 9.888 49.3477 11.496H43.7557C44.0197 9.96 45.0997 8.904 46.6357 8.904ZM59.3913 7.032C57.7353 7.032 56.3433 7.584 55.2633 8.664C54.1833 9.744 53.6553 11.112 53.6553 12.768C53.6553 14.376 54.1353 15.696 55.0953 16.728C56.0553 17.76 57.3993 18.264 59.1513 18.264C60.5433 18.264 61.6713 18.024 62.5353 17.544V15.456C61.7433 15.96 60.8073 16.224 59.7273 16.224C58.6473 16.224 57.8073 15.912 57.1593 15.288C56.5353 14.64 56.2233 13.8 56.2233 12.72C56.2233 10.44 57.7353 9.048 59.7753 9.048C60.6873 9.048 61.4793 9.24 62.1513 9.648V7.512C61.4073 7.2 60.4713 7.032 59.3913 7.032ZM65.5719 7.248L63.6519 7.8V9.24H65.3559V14.208C65.3559 16.872 66.1479 18.24 68.6679 18.24C69.6519 18.24 70.5159 18 71.2359 17.52V15.528C70.5879 15.936 69.9399 16.152 69.3399 16.152C68.2599 16.152 67.8759 15.576 67.8759 14.352V9.24H70.8039V7.32H67.8759V3.936H67.3719L65.5719 7.248ZM92.6161 18L87.4321 9.816L92.2801 2.184H89.2801L85.0801 9.384L80.8321 2.184H77.8801L82.6801 9.816L77.5201 18H80.4721L85.0801 10.272L89.5921 18H92.6161ZM99.7614 10.2C99.7614 12.552 100.481 14.472 101.897 15.984C103.313 17.496 105.329 18.24 107.897 18.24C110.129 18.24 111.929 17.928 113.345 17.304V9.984H110.849V15.528C110.009 15.864 109.121 16.032 108.185 16.032C106.385 16.032 104.993 15.504 104.009 14.424C103.049 13.344 102.569 11.928 102.569 10.224C102.569 8.376 103.121 6.888 104.225 5.808C105.353 4.704 106.769 4.152 108.473 4.152C110.033 4.152 111.425 4.488 112.673 5.16V2.688C111.545 2.112 110.081 1.824 108.281 1.824C105.761 1.824 103.721 2.616 102.137 4.224C100.553 5.832 99.7614 7.824 99.7614 10.2ZM116.293 13.872C116.293 16.752 117.637 18.192 120.325 18.192C121.765 18.192 122.917 17.64 123.757 16.536H123.853L124.237 18H126.157V7.32H123.637V12.72C123.637 15.048 122.581 16.2 120.949 16.2C119.629 16.2 118.813 15.144 118.813 13.536V7.296H116.293V13.872ZM131.775 0.935999H129.231V18H131.775V0.935999ZM139.633 7.008C138.073 7.008 136.777 7.56 135.745 8.64C134.737 9.72 134.233 11.04 134.233 12.624C134.233 14.304 134.737 15.672 135.769 16.704C136.801 17.736 138.265 18.264 140.137 18.264C141.745 18.264 143.137 17.88 144.265 17.088V15C143.041 15.864 141.745 16.296 140.329 16.296C138.337 16.296 136.897 15.24 136.777 13.152H144.769V12.552C144.769 10.896 144.313 9.576 143.377 8.544C142.465 7.512 141.217 7.008 139.633 7.008ZM139.729 8.904C141.193 8.904 142.177 9.888 142.441 11.496H136.849C137.113 9.96 138.193 8.904 139.729 8.904ZM148.189 7.248L146.269 7.8V9.24H147.973V14.208C147.973 16.872 148.765 18.24 151.285 18.24C152.269 18.24 153.133 18 153.853 17.52V15.528C153.205 15.936 152.557 16.152 151.957 16.152C150.877 16.152 150.493 15.576 150.493 14.352V9.24H153.421V7.32H150.493V3.936H149.989L148.189 7.248ZM154.732 17.328C155.812 17.928 157.084 18.24 158.572 18.24C161.164 18.24 162.748 16.92 162.748 15.024C162.748 11.544 157.54 11.664 157.54 10.104C157.54 9.336 158.092 8.952 159.22 8.952C160.18 8.952 161.188 9.24 162.22 9.84V7.776C161.14 7.296 160.012 7.056 158.86 7.056C156.652 7.056 155.044 8.184 155.044 10.08C155.044 13.248 160.3 13.128 160.3 15.144C160.3 15.984 159.628 16.416 158.284 16.416C157.06 16.416 155.86 15.984 154.732 15.144V17.328Z" fill="white"/>
</svg>
