<?xml version="1.0" encoding="utf-8"?>
<!-- Generator: Adobe Illustrator 22.1.0, SVG Export Plug-In . SVG Version: 6.00 Build 0)  -->
<svg version="1.1" id="Layer_1" xmlns="http://www.w3.org/2000/svg" xmlns:xlink="http://www.w3.org/1999/xlink" x="0px" y="0px"
	 viewBox="0 0 245 196" style="enable-background:new 0 0 245 196;" xml:space="preserve">
<style type="text/css">
	.st0{fill:#FF9536;}
</style>
<g>
	<g>
		<path class="st0" d="M110.5,29c0-1,1.4-1.2,1.7-0.3l34.9,112.6c0.9,2.8-1.2,5.6-4.1,5.6h-26.6c-3.2,0-5.9-2.6-5.9-5.8V29z
			 M92.6,141.2l10.8-62c0.1-0.6,1-0.5,1,0.1v61.8c0,3.2-2.6,5.8-5.9,5.8h-1C94.4,146.9,92.1,144.2,92.6,141.2z M206.4,167.9h-135
			c-5.7,0-11.2-1.3-16.3-3.9l-16.3-8.2c-1.7-0.8-1-3.4,0.9-3.3l48.5,3.5c0.8,0,1.4-0.5,1.4-1.3c0-1.5,1.3-2.7,2.8-2.5l65.2,5.1
			c1.4,0.1,2.4,1.3,2.4,2.6c0,0.7,0.5,1.3,1.2,1.3l38,2.7c2.7,0.2,5.3,0.9,7.7,2.2C207.5,166.3,207.1,167.9,206.4,167.9z"/>
		<path class="st0" d="M206.4,167.9h-135c-5.7,0-11.2-1.3-16.3-3.9l-16.3-8.2c-1.7-0.8-1-3.4,0.9-3.3l48.5,3.5
			c0.8,0,1.4-0.5,1.4-1.3c0-1.5,1.3-2.7,2.8-2.5l65.2,5.1c1.4,0.1,2.4,1.3,2.4,2.6c0,0.7,0.5,1.3,1.2,1.3l38,2.7
			c2.7,0.2,5.3,0.9,7.7,2.2C207.5,166.3,207.1,167.9,206.4,167.9z"/>
		<path class="st0" d="M143,146.9h-26.6c-3.2,0-5.9-2.6-5.9-5.8V29c0-1,1.4-1.2,1.7-0.3l34.9,112.6C148,144.1,145.9,146.9,143,146.9
			z"/>
		<path class="st0" d="M104.4,79.2v61.8c0,3.2-2.6,5.8-5.9,5.8h-1c-3.1,0-5.4-2.8-4.9-5.8l10.8-62C103.5,78.5,104.4,78.6,104.4,79.2
			z"/>
	</g>
</g>
</svg>
