<svg width="90" height="47" viewBox="0 0 90 47" fill="none" xmlns="http://www.w3.org/2000/svg">
<path fill-rule="evenodd" clip-rule="evenodd" d="M86.9918 47H12.6847L0 34.515L34.3124 35.0484L44.5718 28.6452H46.5474L61.7278 10.7254L63.6746 5.87848H64.7844L68.6247 0V3.3136L64.9988 5.87792H69.1394V21.0518H69.7009L72.416 22.9794H69.14V28.8431L73.6194 33.3089L67.9739 33.4465L75.5735 42.1019L90 41.9676L86.9918 47ZM68.1222 11.7542H61.9928L54.2566 21.0507H68.1222V11.7542ZM57.4742 28.6452H60.4834V22.9794H52.7522L57.4742 28.6452ZM61.5944 28.6452H68.1222V22.9788H61.5944V28.6452ZM52.0199 23.9282L52.7516 22.9788H52.6519L47.9371 28.6447H55.993L52.0199 23.9282Z" fill="#FF9536"/>
</svg>
