<svg width="15" height="12" viewBox="0 0 15 12" fill="none" xmlns="http://www.w3.org/2000/svg">
<path d="M12.9276 2.91647C12.9372 3.04477 12.9372 3.17234 12.9372 3.2999C12.9372 7.20392 9.9657 11.7025 4.53526 11.7025C2.86221 11.7025 1.30794 11.2179 0 10.3763C0.23754 10.4034 0.466283 10.4129 0.713354 10.4129C2.09387 10.4129 3.36442 9.94663 4.37983 9.15117C3.08143 9.12404 1.99343 8.27359 1.61806 7.10348C1.80061 7.13061 1.9839 7.14894 2.17599 7.14894C2.44065 7.14894 2.70679 7.11228 2.95386 7.0485C1.59973 6.7743 0.585786 5.58586 0.585786 4.15036V4.1137C0.979487 4.33291 1.43624 4.47001 1.92012 4.48834C1.12465 3.95901 0.603382 3.05357 0.603382 2.02936C0.603382 1.48096 0.749278 0.978021 1.00515 0.539598C2.45898 2.33068 4.6445 3.50152 7.09468 3.62982C7.04923 3.40988 7.02137 3.18187 7.02137 2.95312C7.02137 1.32553 8.33811 0 9.97449 0C10.8249 0 11.5926 0.35631 12.1322 0.932566C12.7993 0.804264 13.4386 0.557193 14.0061 0.219211C13.7869 0.904706 13.3199 1.48096 12.7077 1.8468C13.3023 1.78229 13.8785 1.61806 14.4078 1.38932C14.0061 1.97437 13.5039 2.49564 12.9276 2.91647Z" fill="white"/>
</svg>
