<svg width="24" height="18" viewBox="0 0 24 18" fill="none" xmlns="http://www.w3.org/2000/svg">
<path d="M1.17073 0C0.524166 0 0 0.537237 0 1.2C0 1.86276 0.524166 2.4 1.17073 2.4H22.8293C23.4758 2.4 24 1.86276 24 1.2C24 0.537237 23.4758 0 22.8293 0H1.17073ZM1.17073 7.8C0.524166 7.8 0 8.33724 0 9C0 9.66276 0.524166 10.2 1.17073 10.2H22.8293C23.4758 10.2 24 9.66276 24 9C24 8.33724 23.4758 7.8 22.8293 7.8H1.17073ZM1.17073 15.6C0.524166 15.6 0 16.1372 0 16.8C0 17.4628 0.524166 18 1.17073 18H22.8293C23.4758 18 24 17.4628 24 16.8C24 16.1372 23.4758 15.6 22.8293 15.6H1.17073Z" fill="white"/>
</svg>
