<svg width="9" height="9" viewBox="0 0 9 9" fill="none" xmlns="http://www.w3.org/2000/svg">
    <g clip-path="url(#clip0002)">
        <path
            d="M5.49124 4.50068L8.85622 1.13556C8.94878 1.04293 8.99985 0.919342 9 0.787562C9 0.655708 8.94893 0.531977 8.85622 0.439489L8.56134 0.144684C8.46863 0.0518302 8.34505 0.000976562 8.21312 0.000976562C8.08141 0.000976562 7.95783 0.0518302 7.86512 0.144684L4.50015 3.50959L1.13502 0.144684C1.04246 0.0518302 0.918805 0.000976562 0.786951 0.000976562C0.655244 0.000976562 0.531585 0.0518302 0.439024 0.144684L0.144 0.439489C-0.048 0.631489 -0.048 0.943781 0.144 1.13556L3.50905 4.50068L0.144 7.86566C0.0513659 7.95844 0.000365854 8.08203 0.000365854 8.21381C0.000365854 8.34559 0.0513659 8.46917 0.144 8.56188L0.438951 8.85668C0.531512 8.94946 0.655244 9.00039 0.786878 9.00039C0.918732 9.00039 1.04239 8.94946 1.13495 8.85668L4.50007 5.49171L7.86505 8.85668C7.95776 8.94946 8.08134 9.00039 8.21305 9.00039H8.21319C8.34498 9.00039 8.46856 8.94946 8.56127 8.85668L8.85615 8.56188C8.94871 8.46924 8.99978 8.34559 8.99978 8.21381C8.99978 8.08203 8.94871 7.95844 8.85615 7.86573L5.49124 4.50068Z"
            fill="#000"/>
    </g>
    <defs>
        <clipPath id="clip0002">
            <rect width="9" height="9" fill="white"/>
        </clipPath>
    </defs>
</svg>
