<svg width="16" height="16" viewBox="0 0 16 16" fill="none" xmlns="http://www.w3.org/2000/svg">
<path d="M1.82534 0.313179C1.40777 -0.104393 0.730751 -0.104393 0.313179 0.313179C-0.104393 0.730751 -0.104393 1.40777 0.313179 1.82534L6.48787 8.00003L0.313243 14.1747C-0.104329 14.5922 -0.104329 15.2692 0.313243 15.6868C0.730815 16.1044 1.40783 16.1044 1.8254 15.6868L8.00003 9.51219L14.1747 15.6868C14.5922 16.1044 15.2693 16.1044 15.6868 15.6868C16.1044 15.2692 16.1044 14.5922 15.6868 14.1747L9.51219 8.00003L15.6869 1.82534C16.1045 1.40777 16.1045 0.730751 15.6869 0.313179C15.2693 -0.104393 14.5923 -0.104393 14.1747 0.313179L8.00003 6.48787L1.82534 0.313179Z" fill="white"/>
</svg>
