<svg width="18" height="18" viewBox="0 0 18 18" fill="none" xmlns="http://www.w3.org/2000/svg">
<path fill-rule="evenodd" clip-rule="evenodd" d="M0.364329 0.363979C0.841291 -0.112988 1.60514 -0.122397 2.07045 0.342915L9.00008 7.27262L15.9297 0.342936C16.395 -0.122376 17.1589 -0.112967 17.6358 0.364C18.1128 0.840967 18.1222 1.60483 17.6569 2.07014L10.7273 8.99982L17.6572 15.9299C18.1225 16.3952 18.1131 17.159 17.6362 17.636C17.1592 18.113 16.3954 18.1224 15.93 17.6571L9.00008 10.727L2.0701 17.6571C1.60479 18.1224 0.840937 18.113 0.363975 17.636C-0.112987 17.1591 -0.122396 16.3952 0.342911 15.9299L7.2729 8.99982L0.343267 2.07012C-0.122041 1.6048 -0.112633 0.840946 0.364329 0.363979Z" fill="white"/>
</svg>
