<svg width="40" height="40" viewBox="0 0 40 40" fill="none" xmlns="http://www.w3.org/2000/svg">
<path d="M4.56335 0.782947C3.51942 -0.260982 1.82688 -0.260982 0.782947 0.782947C-0.260982 1.82688 -0.260982 3.51942 0.782947 4.56335L16.2197 20.0001L0.783107 35.4366C-0.260822 36.4806 -0.260823 38.1731 0.783107 39.2171C1.82704 40.261 3.51958 40.261 4.56351 39.2171L20.0001 23.7805L35.4366 39.2171C36.4806 40.261 38.1731 40.261 39.217 39.2171C40.261 38.1731 40.261 36.4806 39.217 35.4366L23.7805 20.0001L39.2172 4.56335C40.2611 3.51942 40.2611 1.82688 39.2172 0.782947C38.1733 -0.260982 36.4807 -0.260982 35.4368 0.782947L20.0001 16.2197L4.56335 0.782947Z" fill="#AB3996"/>
</svg>
