<svg width="15" height="20" viewBox="0 0 15 20" fill="none" xmlns="http://www.w3.org/2000/svg">
<path d="M10.8327 7.49999C10.8327 6.84072 10.6372 6.19625 10.2709 5.64809C9.90464 5.09993 9.38405 4.67268 8.77496 4.42039C8.16588 4.1681 7.49565 4.10209 6.84905 4.23071C6.20245 4.35932 5.6085 4.67679 5.14233 5.14297C4.67615 5.60914 4.35868 6.20309 4.23007 6.84969C4.10145 7.49629 4.16746 8.16652 4.41975 8.7756C4.67204 9.38469 5.09929 9.90528 5.64745 10.2716C6.19561 10.6378 6.84008 10.8333 7.49935 10.8333C8.38341 10.8333 9.23125 10.4821 9.85637 9.85701C10.4815 9.23189 10.8327 8.38405 10.8327 7.49999ZM7.49935 9.16666C7.16972 9.16666 6.84748 9.06891 6.5734 8.88577C6.29932 8.70264 6.0857 8.44234 5.95955 8.1378C5.83341 7.83325 5.8004 7.49814 5.86471 7.17484C5.92902 6.85154 6.08775 6.55457 6.32084 6.32148C6.55393 6.08839 6.8509 5.92966 7.1742 5.86535C7.4975 5.80104 7.83261 5.83405 8.13716 5.96019C8.4417 6.08634 8.702 6.29996 8.88513 6.57404C9.06827 6.84812 9.16602 7.17036 9.16602 7.49999C9.16602 7.94202 8.99042 8.36594 8.67786 8.6785C8.3653 8.99106 7.94138 9.16666 7.49935 9.16666Z" fill="#2A398D"/>
<path d="M7.5 20C7.70256 19.9997 7.89808 19.9256 8.05 19.7917C8.33333 19.5417 15 13.6417 15 7.5C15 5.51088 14.2098 3.60322 12.8033 2.1967C11.3968 0.790176 9.48912 0 7.5 0C5.51088 0 3.60322 0.790176 2.1967 2.1967C0.790176 3.60322 2.96403e-08 5.51088 0 7.5C0 12.7833 6.66667 19.475 6.90833 19.7583C6.9862 19.8356 7.07855 19.8967 7.18008 19.9381C7.28161 19.9796 7.39033 20.0006 7.5 20ZM7.5 1.66667C9.0471 1.66667 10.5308 2.28125 11.6248 3.37521C12.7188 4.46917 13.3333 5.9529 13.3333 7.5C13.3333 11.9 9.10833 16.45 7.5 17.9917C5.94167 16.325 1.66667 11.325 1.66667 7.5C1.66667 5.9529 2.28125 4.46917 3.37521 3.37521C4.46917 2.28125 5.9529 1.66667 7.5 1.66667Z" fill="#2A398D"/>
</svg>
