<svg width="26" height="26" viewBox="0 0 26 26" fill="none" xmlns="http://www.w3.org/2000/svg">
<path fill-rule="evenodd" clip-rule="evenodd" d="M24.3883 25L18.2757 18.8877L17.5955 19.4166C15.8501 20.7739 13.6679 21.5892 11.2952 21.5892C5.61953 21.5892 1 16.9698 1 11.2946C1 5.61934 5.61953 1 11.2952 1C16.9709 1 21.5904 5.61934 21.5904 11.2946C21.5904 13.667 20.7752 15.849 19.4164 17.5957L18.8873 18.276L25 24.3884L24.3883 25ZM20.7249 11.2946C20.7249 6.09354 16.4964 1.86534 11.2952 1.86534C6.09401 1.86534 1.8655 6.09354 1.8655 11.2946C1.8655 16.4956 6.09401 20.7238 11.2952 20.7238C16.4964 20.7238 20.7249 16.4956 20.7249 11.2946Z" fill="white" stroke="white"/>
</svg>
