<svg width="20" height="24" viewBox="0 0 20 24" fill="none" xmlns="http://www.w3.org/2000/svg">
<path fill-rule="evenodd" clip-rule="evenodd" d="M13.9622 20.9303C13.9622 20.9303 11.2912 18.2887 11.287 18.2845C10.932 17.9328 10.3556 17.9328 9.99999 18.2845C9.64442 18.6361 9.64442 19.2062 9.99999 19.5573C10.003 19.5609 12.0552 21.5898 14.2256 23.7363C14.5806 24.0879 15.157 24.0879 15.5126 23.7363C17.5878 21.684 19.4117 19.8801 19.7333 19.5621C20.0889 19.2104 20.0889 18.6403 19.7333 18.2893C19.3777 17.9376 18.8013 17.9376 18.4463 18.2893L15.7826 20.9231V6.90084C15.7826 6.66201 15.6867 6.43337 15.5162 6.26415C15.3451 6.09553 15.1139 6.00071 14.8724 6.00071C14.6309 6.00071 14.3998 6.09553 14.2286 6.26415C14.0581 6.43337 13.9622 6.66201 13.9622 6.90084V20.9303ZM6.03773 3.06989L8.71301 5.71507C9.06859 6.06672 9.64442 6.06672 9.99999 5.71507C10.3556 5.36342 10.3556 4.79394 9.99999 4.44229L5.77501 0.263288C5.41944 -0.0877626 4.84299 -0.0877626 4.48742 0.263288C2.41285 2.31558 0.588878 4.11944 0.266679 4.43748C-0.0888929 4.78913 -0.0888929 5.35922 0.266679 5.71087C0.622251 6.06192 1.19869 6.06192 1.55427 5.71087L4.2174 3.07649V17.0987C4.2174 17.3375 4.31327 17.5668 4.48438 17.7354C4.65489 17.904 4.88607 17.9988 5.12757 17.9988C5.36906 17.9988 5.60086 17.904 5.77136 17.7354C5.94186 17.5668 6.03773 17.3375 6.03773 17.0987V3.06989Z" fill="white"/>
</svg>
