<svg width="22" height="20" viewBox="0 0 22 20" fill="none" xmlns="http://www.w3.org/2000/svg">
<path d="M4.9987 6.49864V20H0.272135V6.49864H4.9987ZM5.29948 2.3297C5.30903 2.99273 5.06793 3.54678 4.57617 3.99183C4.08442 4.43688 3.4375 4.6594 2.63542 4.6594H2.60677C1.82378 4.6594 1.19358 4.43688 0.716146 3.99183C0.238715 3.54678 0 2.99273 0 2.3297C0 1.65758 0.245877 1.10127 0.73763 0.660763C1.22938 0.220254 1.87153 0 2.66406 0C3.4566 0 4.09158 0.220254 4.56901 0.660763C5.04644 1.10127 5.28993 1.65758 5.29948 2.3297ZM22 12.2616V20H17.2878V12.7793C17.2878 11.8256 17.0944 11.0786 16.7077 10.5381C16.321 9.99773 15.717 9.72752 14.8958 9.72752C14.2943 9.72752 13.7906 9.8842 13.3848 10.1975C12.9789 10.5109 12.6758 10.8992 12.4753 11.3624C12.3702 11.6349 12.3177 12.0027 12.3177 12.4659V20H7.60547C7.62457 16.376 7.63411 13.4378 7.63411 11.1853C7.63411 8.93279 7.62934 7.58856 7.61979 7.15259L7.60547 6.49864H12.3177V8.46049H12.2891C12.48 8.16985 12.6758 7.91553 12.8763 7.69755C13.0768 7.47956 13.3466 7.24341 13.6855 6.9891C14.0245 6.73479 14.4399 6.53724 14.9316 6.39646C15.4234 6.25568 15.9701 6.18529 16.5716 6.18529C18.2044 6.18529 19.5174 6.70073 20.5104 7.73161C21.5035 8.76249 22 10.2725 22 12.2616Z" fill="#2A398D"/>
</svg>
