<svg width="22" height="18" viewBox="0 0 22 18" fill="none" xmlns="http://www.w3.org/2000/svg">
<path d="M22 2.1375C21.3765 3.05625 20.6227 3.83906 19.7386 4.48594C19.7479 4.61719 19.7525 4.81406 19.7525 5.07656C19.7525 6.29531 19.5757 7.51172 19.2221 8.72578C18.8684 9.93984 18.331 11.1047 17.6098 12.2203C16.8885 13.3359 16.03 14.3227 15.0343 15.1805C14.0385 16.0383 12.838 16.7227 11.4327 17.2336C10.0275 17.7445 8.52454 18 6.92386 18C4.40186 18 2.09391 17.3203 0 15.9609C0.325719 15.9984 0.688663 16.0172 1.08883 16.0172C3.18274 16.0172 5.04865 15.3703 6.68655 14.0766C5.70939 14.0578 4.8346 13.7555 4.06218 13.1695C3.28976 12.5836 2.75931 11.8359 2.47081 10.9266C2.77792 10.9734 3.06176 10.9969 3.32234 10.9969C3.7225 10.9969 4.11802 10.9453 4.50888 10.8422C3.46658 10.6266 2.60343 10.1039 1.91942 9.27422C1.23541 8.44453 0.893401 7.48125 0.893401 6.38437V6.32812C1.52623 6.68437 2.20558 6.87656 2.93147 6.90469C2.31726 6.49219 1.82868 5.95312 1.46574 5.2875C1.10279 4.62187 0.92132 3.9 0.92132 3.12187C0.92132 2.29688 1.12606 1.53281 1.53553 0.829687C2.66159 2.22656 4.03194 3.34453 5.64657 4.18359C7.26121 5.02266 8.98985 5.48906 10.8325 5.58281C10.758 5.22656 10.7208 4.87969 10.7208 4.54219C10.7208 3.28594 11.1605 2.21484 12.04 1.32891C12.9194 0.442969 13.9827 0 15.2297 0C16.5326 0 17.6307 0.478125 18.5241 1.43437C19.5385 1.2375 20.4924 0.871875 21.3858 0.3375C21.0415 1.41562 20.3807 2.25 19.4036 2.84062C20.269 2.74688 21.1345 2.5125 22 2.1375Z" fill="#2A398D"/>
</svg>
