<svg width="8" height="10" viewBox="0 0 8 10" fill="none" xmlns="http://www.w3.org/2000/svg">
<path d="M7.5225 2.55115C7.7115 2.35828 7.8155 2.10215 7.8155 1.82969C7.8155 1.55722 7.7115 1.30109 7.5225 1.10822L6.7295 0.298995C6.5405 0.106128 6.2895 0 6.0225 0C5.7555 0 5.5045 0.106128 5.316 0.298485L0 5.70641V7.95908H2.2065L7.5225 2.55115ZM6.0225 1.02046L6.816 1.82917L6.021 2.63738L5.228 1.82866L6.0225 1.02046ZM1 6.93862V6.1299L4.52 2.54911L5.313 3.35833L1.7935 6.93862H1ZM0 8.97954H8V10H0V8.97954Z" fill="#808FA7"/>
</svg>
