<svg width="16" height="15" viewBox="0 0 16 15" fill="none" xmlns="http://www.w3.org/2000/svg">
<path d="M15.2727 10.6749H8.96971C8.56806 10.6749 8.24244 10.9977 8.24244 11.3958V14.2792C8.24244 14.6773 8.56806 15 8.96971 15H15.2727C15.6744 15 16 14.6773 16 14.2792V11.3958C16 10.9977 15.6744 10.6749 15.2727 10.6749ZM14.5455 13.5583H9.69698V12.1166H14.5455V13.5583Z" fill="white" fill-opacity="0.5"/>
<path d="M11.5267 5.98792C11.8108 5.70641 11.8108 5.25001 11.5267 4.9685C11.3029 4.74667 10.9698 4.70044 10.6995 4.82827L6.86843 1.03104C6.99735 0.763173 6.95071 0.432977 6.7269 0.2111C6.44292 -0.0703667 5.98242 -0.0703667 5.69839 0.2111L2.61287 3.26946C2.61272 3.26961 2.61263 3.26975 2.61248 3.26994L2.27008 3.60932C1.98606 3.89078 1.98606 4.34722 2.27008 4.62874C2.41209 4.7695 2.59823 4.8399 2.78431 4.8399C2.89151 4.8399 2.99847 4.81577 3.09723 4.76902L4.49844 6.1579L0.213018 10.4055C-0.071006 10.687 -0.071006 11.1434 0.213018 11.4249C0.35503 11.5657 0.541163 11.6361 0.727247 11.6361C0.913332 11.6361 1.09951 11.5657 1.24148 11.4249L5.52695 7.17732L6.92821 8.56625C6.79934 8.83411 6.84598 9.16426 7.06978 9.38609C7.2118 9.52685 7.39793 9.5972 7.58401 9.5972C7.77015 9.5972 7.95628 9.5268 8.09824 9.38609L11.5267 5.98792ZM7.9269 7.51713L4.15565 3.77915L5.86993 2.08016L9.64113 5.81804L7.9269 7.51713Z" fill="white" fill-opacity="0.5"/>
</svg>
