<svg width="18" height="17" viewBox="0 0 18 17" fill="none" xmlns="http://www.w3.org/2000/svg">
<path d="M17 14.9709H15.5671L16.6068 12.8016L16.6754 12.6584H16.5166H9.56875V11.9396H15.8586H16.0427L15.9425 11.7852L9.56875 1.95928V1V0.9H9.46875H8.70386H8.64227L8.61455 0.955005L3.48601 11.1339L3.41296 11.2789H3.57532H8.43125V12.6584H3.2334H3.17234L3.14444 12.7127L1.98484 14.9709H1H0.9V15.0709V16V16.1H1H17H17.1V16V15.0709V14.9709H17ZM14.3074 14.9709H3.26166L3.86929 13.7875H14.8745L14.3074 14.9709ZM9.56875 10.8105V4.04491L13.9573 10.8105H9.56875ZM8.43125 3.84317V10.1498H5.25367L8.43125 3.84317Z" fill="#FF7544" stroke="#FF7544" stroke-width="0.2"/>
</svg>
