<svg width="21" height="19" viewBox="0 0 21 19" fill="none" xmlns="http://www.w3.org/2000/svg">
<path d="M17.843 18H3.157C1.96771 18 1 17.0187 1 15.8128V3.18722C1 1.98127 1.96771 1 3.157 1H17.843C19.0323 1 20 1.98127 20 3.18722V15.8128C20 17.0187 19.0323 18 17.843 18ZM3.157 1.65151C2.32195 1.65151 1.64251 2.34047 1.64251 3.18722V15.8128C1.64251 16.6595 2.32195 17.3485 3.157 17.3485H17.843C18.678 17.3485 19.3575 16.6595 19.3575 15.8128V3.18722C19.3575 2.34047 18.678 1.65151 17.843 1.65151H3.157Z" fill="#808FA7"/>
<path d="M17.1005 13.0266H12.0523C11.8748 13.0266 11.7311 12.8808 11.7311 12.7008C11.7311 12.5211 11.8748 12.3751 12.0523 12.3751H17.1005C17.2778 12.3751 17.4217 12.5211 17.4217 12.7008C17.4217 12.8808 17.2779 13.0266 17.1005 13.0266Z" fill="#808FA7"/>
<path d="M17.1005 15.3818H12.0523C11.8748 15.3818 11.7311 15.236 11.7311 15.056C11.7311 14.8762 11.8748 14.7303 12.0523 14.7303H17.1005C17.2778 14.7303 17.4217 14.8762 17.4217 15.056C17.4217 15.236 17.2779 15.3818 17.1005 15.3818Z" fill="#808FA7"/>
<path d="M17.1005 8.31623H12.0523C11.8748 8.31623 11.7311 8.17044 11.7311 7.99047C11.7311 7.81069 11.8748 7.66472 12.0523 7.66472H17.1005C17.2778 7.66472 17.4217 7.81069 17.4217 7.99047C17.4217 8.17044 17.2779 8.31623 17.1005 8.31623Z" fill="#808FA7"/>
<path d="M17.1005 10.6714H12.0523C11.8748 10.6714 11.7311 10.5256 11.7311 10.3457C11.7311 10.1659 11.8748 10.0199 12.0523 10.0199H17.1005C17.2778 10.0199 17.4217 10.1659 17.4217 10.3457C17.4217 10.5256 17.2779 10.6714 17.1005 10.6714Z" fill="#808FA7"/>
<path d="M19.6787 5.36189H1.32126C1.14378 5.36189 1 5.2161 1 5.03613C1 4.85617 1.14378 4.71038 1.32126 4.71038H19.6787C19.8562 4.71038 20 4.85617 20 5.03613C20 5.2161 19.8562 5.36189 19.6787 5.36189Z" fill="#808FA7"/>
<path d="M5.86806 4.20084C5.3168 4.20084 4.86826 3.7462 4.86826 3.18722C4.86826 2.62823 5.3168 2.17359 5.86806 2.17359C6.41933 2.17359 6.86769 2.62823 6.86769 3.18722C6.86769 3.7462 6.41933 4.20084 5.86806 4.20084ZM5.86806 2.8251C5.67104 2.8251 5.51078 2.98762 5.51078 3.18722C5.51078 3.38681 5.67104 3.54933 5.86806 3.54933C6.06491 3.54933 6.22518 3.38681 6.22518 3.18722C6.22518 2.98762 6.06491 2.8251 5.86806 2.8251Z" fill="#808FA7"/>
<path d="M3.31656 4.20084C2.76547 4.20084 2.31693 3.7462 2.31693 3.18722C2.31693 2.62823 2.76547 2.17359 3.31656 2.17359C3.86782 2.17359 4.31636 2.62823 4.31636 3.18722C4.31636 3.7462 3.86782 4.20084 3.31656 4.20084ZM3.31656 2.8251C3.11972 2.8251 2.95945 2.98762 2.95945 3.18722C2.95945 3.38681 3.11972 3.54933 3.31656 3.54933C3.51358 3.54933 3.67385 3.38681 3.67385 3.18722C3.67385 2.98762 3.51358 2.8251 3.31656 2.8251Z" fill="#808FA7"/>
<path d="M8.37945 4.20084C7.82819 4.20084 7.37983 3.7462 7.37983 3.18722C7.37983 2.62823 7.82819 2.17359 8.37945 2.17359C8.93072 2.17359 9.37926 2.62823 9.37926 3.18722C9.37926 3.7462 8.93072 4.20084 8.37945 4.20084ZM8.37945 2.8251C8.18243 2.8251 8.02234 2.98762 8.02234 3.18722C8.02234 3.38681 8.18261 3.54933 8.37945 3.54933C8.57647 3.54933 8.73674 3.38681 8.73674 3.18722C8.73674 2.98762 8.57647 2.8251 8.37945 2.8251Z" fill="#808FA7"/>
<path d="M9.62802 15.3818H3.79952C3.62204 15.3818 3.47826 15.236 3.47826 15.056V7.99047C3.47826 7.81069 3.62204 7.66472 3.79952 7.66472H9.62802C9.8055 7.66472 9.94928 7.81069 9.94928 7.99047V15.056C9.94928 15.236 9.8055 15.3818 9.62802 15.3818ZM4.12077 14.7303H9.30676V8.31623H4.12077V14.7303Z" fill="#808FA7"/>
<path d="M17.843 18H3.157C1.96771 18 1 17.0187 1 15.8128V3.18722C1 1.98127 1.96771 1 3.157 1H17.843C19.0323 1 20 1.98127 20 3.18722V15.8128C20 17.0187 19.0323 18 17.843 18ZM3.157 1.65151C2.32195 1.65151 1.64251 2.34047 1.64251 3.18722V15.8128C1.64251 16.6595 2.32195 17.3485 3.157 17.3485H17.843C18.678 17.3485 19.3575 16.6595 19.3575 15.8128V3.18722C19.3575 2.34047 18.678 1.65151 17.843 1.65151H3.157Z" stroke="#808FA7" stroke-width="0.2"/>
<path d="M17.1005 13.0266H12.0523C11.8748 13.0266 11.7311 12.8808 11.7311 12.7008C11.7311 12.5211 11.8748 12.3751 12.0523 12.3751H17.1005C17.2778 12.3751 17.4217 12.5211 17.4217 12.7008C17.4217 12.8808 17.2779 13.0266 17.1005 13.0266Z" stroke="#808FA7" stroke-width="0.2"/>
<path d="M17.1005 15.3818H12.0523C11.8748 15.3818 11.7311 15.236 11.7311 15.056C11.7311 14.8762 11.8748 14.7303 12.0523 14.7303H17.1005C17.2778 14.7303 17.4217 14.8762 17.4217 15.056C17.4217 15.236 17.2779 15.3818 17.1005 15.3818Z" stroke="#808FA7" stroke-width="0.2"/>
<path d="M17.1005 8.31623H12.0523C11.8748 8.31623 11.7311 8.17044 11.7311 7.99047C11.7311 7.81069 11.8748 7.66472 12.0523 7.66472H17.1005C17.2778 7.66472 17.4217 7.81069 17.4217 7.99047C17.4217 8.17044 17.2779 8.31623 17.1005 8.31623Z" stroke="#808FA7" stroke-width="0.2"/>
<path d="M17.1005 10.6714H12.0523C11.8748 10.6714 11.7311 10.5256 11.7311 10.3457C11.7311 10.1659 11.8748 10.0199 12.0523 10.0199H17.1005C17.2778 10.0199 17.4217 10.1659 17.4217 10.3457C17.4217 10.5256 17.2779 10.6714 17.1005 10.6714Z" stroke="#808FA7" stroke-width="0.2"/>
<path d="M19.6787 5.36189H1.32126C1.14378 5.36189 1 5.2161 1 5.03613C1 4.85617 1.14378 4.71038 1.32126 4.71038H19.6787C19.8562 4.71038 20 4.85617 20 5.03613C20 5.2161 19.8562 5.36189 19.6787 5.36189Z" stroke="#808FA7" stroke-width="0.2"/>
<path d="M5.86806 4.20084C5.3168 4.20084 4.86826 3.7462 4.86826 3.18722C4.86826 2.62823 5.3168 2.17359 5.86806 2.17359C6.41933 2.17359 6.86769 2.62823 6.86769 3.18722C6.86769 3.7462 6.41933 4.20084 5.86806 4.20084ZM5.86806 2.8251C5.67104 2.8251 5.51078 2.98762 5.51078 3.18722C5.51078 3.38681 5.67104 3.54933 5.86806 3.54933C6.06491 3.54933 6.22518 3.38681 6.22518 3.18722C6.22518 2.98762 6.06491 2.8251 5.86806 2.8251Z" stroke="#808FA7" stroke-width="0.2"/>
<path d="M3.31656 4.20084C2.76547 4.20084 2.31693 3.7462 2.31693 3.18722C2.31693 2.62823 2.76547 2.17359 3.31656 2.17359C3.86782 2.17359 4.31636 2.62823 4.31636 3.18722C4.31636 3.7462 3.86782 4.20084 3.31656 4.20084ZM3.31656 2.8251C3.11972 2.8251 2.95945 2.98762 2.95945 3.18722C2.95945 3.38681 3.11972 3.54933 3.31656 3.54933C3.51358 3.54933 3.67385 3.38681 3.67385 3.18722C3.67385 2.98762 3.51358 2.8251 3.31656 2.8251Z" stroke="#808FA7" stroke-width="0.2"/>
<path d="M8.37945 4.20084C7.82819 4.20084 7.37983 3.7462 7.37983 3.18722C7.37983 2.62823 7.82819 2.17359 8.37945 2.17359C8.93072 2.17359 9.37926 2.62823 9.37926 3.18722C9.37926 3.7462 8.93072 4.20084 8.37945 4.20084ZM8.37945 2.8251C8.18243 2.8251 8.02234 2.98762 8.02234 3.18722C8.02234 3.38681 8.18261 3.54933 8.37945 3.54933C8.57647 3.54933 8.73674 3.38681 8.73674 3.18722C8.73674 2.98762 8.57647 2.8251 8.37945 2.8251Z" stroke="#808FA7" stroke-width="0.2"/>
<path d="M9.62802 15.3818H3.79952C3.62204 15.3818 3.47826 15.236 3.47826 15.056V7.99047C3.47826 7.81069 3.62204 7.66472 3.79952 7.66472H9.62802C9.8055 7.66472 9.94928 7.81069 9.94928 7.99047V15.056C9.94928 15.236 9.8055 15.3818 9.62802 15.3818ZM4.12077 14.7303H9.30676V8.31623H4.12077V14.7303Z" stroke="#808FA7" stroke-width="0.2"/>
</svg>
