<svg width="21" height="21" viewBox="0 0 21 21" fill="none" xmlns="http://www.w3.org/2000/svg">
<path d="M3.4 17.2427C3.4 17.574 3.66863 17.8427 4 17.8427L9.4 17.8427C9.73137 17.8427 10 17.574 10 17.2427C10 16.9113 9.73137 16.6427 9.4 16.6427H4.6V11.8427C4.6 11.5113 4.33137 11.2427 4 11.2427C3.66863 11.2427 3.4 11.5113 3.4 11.8427L3.4 17.2427ZM8.57574 11.8184L3.57574 16.8184L4.42426 17.6669L9.42426 12.6669L8.57574 11.8184Z" fill="#808FA7"/>
<path d="M17.8422 4C17.8422 3.66863 17.5736 3.4 17.2422 3.4L11.8422 3.4C11.5108 3.4 11.2422 3.66863 11.2422 4C11.2422 4.33137 11.5108 4.6 11.8422 4.6H16.6422V9.4C16.6422 9.73137 16.9108 10 17.2422 10C17.5736 10 17.8422 9.73137 17.8422 9.4L17.8422 4ZM12.6665 9.42426L17.6665 4.42426L16.8179 3.57574L11.8179 8.57574L12.6665 9.42426Z" fill="#808FA7"/>
</svg>
