<svg width="21" height="21" viewBox="0 0 21 21" fill="none" xmlns="http://www.w3.org/2000/svg">
<path d="M19.339 20.1768L19.5158 20.3535L19.6925 20.1768L20.1768 19.6926L20.3536 19.5158L20.1768 19.339L15.4936 14.6561L15.777 14.2918C16.885 12.8674 17.5508 11.0865 17.5508 9.14988C17.5508 4.5189 13.7817 0.75 9.15038 0.75C4.51907 0.75 0.75 4.5189 0.75 9.14988C0.75 13.7809 4.51907 17.5498 9.15038 17.5498C11.0872 17.5498 12.8682 16.884 14.2915 15.7772L14.6558 15.4939L19.339 20.1768ZM9.15038 1.93506C13.1299 1.93506 16.3656 5.17047 16.3656 9.14988C16.3656 13.1293 13.1299 16.3647 9.15038 16.3647C5.17081 16.3647 1.93518 13.1293 1.93518 9.14988C1.93518 5.17047 5.17081 1.93506 9.15038 1.93506Z" fill="#808FA7" stroke="#808FA7" stroke-width="0.5"/>
</svg>
