<svg width="19" height="23" viewBox="0 0 19 23" fill="none" xmlns="http://www.w3.org/2000/svg">
<path d="M9.41892 12.393C9.44205 12.393 9.46518 12.393 9.49293 12.393C9.50218 12.393 9.51143 12.393 9.52069 12.393C9.53456 12.393 9.55307 12.393 9.56694 12.393C10.9223 12.3692 12.0185 11.8787 12.828 10.9404C14.6089 8.87327 14.3128 5.32968 14.2805 4.99151C14.1648 2.45289 12.9992 1.23835 12.037 0.671568C11.3201 0.24767 10.4828 0.0190516 9.54844 0H9.51606C9.51143 0 9.50218 0 9.49756 0H9.4698C8.95636 0 7.94797 0.0857321 6.98122 0.652516C6.00984 1.2193 4.82568 2.43384 4.71004 4.99151C4.67766 5.32968 4.38162 8.87327 6.16248 10.9404C6.96734 11.8787 8.06361 12.3692 9.41892 12.393ZM5.94508 5.11058C5.94508 5.09629 5.9497 5.08201 5.9497 5.07248C6.10235 1.65749 8.45679 1.29074 9.46518 1.29074H9.48368C9.49293 1.29074 9.50681 1.29074 9.52069 1.29074C10.7696 1.31932 12.8928 1.84324 13.0362 5.07248C13.0362 5.08677 13.0362 5.10106 13.0408 5.11058C13.0454 5.14392 13.3692 8.38269 11.8983 10.0878C11.3154 10.7641 10.5383 11.0975 9.51606 11.1071C9.50681 11.1071 9.50218 11.1071 9.49293 11.1071C9.48368 11.1071 9.47906 11.1071 9.4698 11.1071C8.45217 11.0975 7.67044 10.7641 7.09223 10.0878C5.62591 8.39222 5.94045 5.13916 5.94508 5.11058Z" fill="#00204E"/>
<path d="M18.9987 18.2705C18.9987 18.2657 18.9987 18.2609 18.9987 18.2562C18.9987 18.2181 18.9941 18.18 18.9941 18.1371C18.9663 17.194 18.9062 14.9888 16.8987 14.2839C16.8848 14.2791 16.8663 14.2744 16.8524 14.2696C14.7663 13.7219 13.0316 12.4835 13.0131 12.4692C12.731 12.2644 12.3424 12.3359 12.1435 12.6264C11.9446 12.917 12.014 13.317 12.2962 13.5218C12.3748 13.579 14.2158 14.8983 16.5194 15.508C17.5971 15.9033 17.7174 17.0893 17.7498 18.1752C17.7498 18.2181 17.7498 18.2562 17.7544 18.2943C17.759 18.7229 17.7313 19.385 17.6573 19.766C16.9079 20.2042 13.9706 21.7188 9.50229 21.7188C5.05244 21.7188 2.09667 20.1994 1.34269 19.7612C1.26868 19.3802 1.2363 18.7182 1.24555 18.2895C1.24555 18.2514 1.25018 18.2133 1.25018 18.1704C1.28256 17.0845 1.40282 15.8985 2.48059 15.5032C4.78416 14.8936 6.62516 13.5695 6.70379 13.5171C6.98595 13.3123 7.05534 12.9122 6.85644 12.6217C6.65754 12.3311 6.26898 12.2597 5.98682 12.4645C5.96832 12.4788 4.24296 13.7171 2.14755 14.2649C2.12905 14.2696 2.11517 14.2744 2.10129 14.2791C0.0937714 14.9888 0.0336384 17.194 0.00588466 18.1323C0.00588466 18.1752 0.00588456 18.2133 0.00125893 18.2514C0.00125893 18.2562 0.00125893 18.2609 0.00125893 18.2657C-0.0033667 18.5134 -0.00799223 19.785 0.237166 20.4233C0.283422 20.5471 0.366684 20.6519 0.477699 20.7233C0.616467 20.8186 3.94229 23 9.50692 23C15.0715 23 18.3974 20.8138 18.5361 20.7233C18.6425 20.6519 18.7304 20.5471 18.7767 20.4233C19.008 19.7898 19.0033 18.5181 18.9987 18.2705Z" fill="#00204E"/>
</svg>
