<svg width="13" height="15" viewBox="0 0 13 15" fill="none" xmlns="http://www.w3.org/2000/svg">
<path d="M2.88889 6.75H4.33333V8.25H2.88889V6.75ZM2.88889 9.75H4.33333V11.25H2.88889V9.75ZM5.77778 6.75H7.22222V8.25H5.77778V6.75ZM5.77778 9.75H7.22222V11.25H5.77778V9.75ZM8.66667 6.75H10.1111V8.25H8.66667V6.75ZM8.66667 9.75H10.1111V11.25H8.66667V9.75Z" fill="white" fill-opacity="0.5"/>
<path d="M1.44444 15H11.5556C12.3522 15 13 14.3273 13 13.5V3C13 2.17275 12.3522 1.5 11.5556 1.5H10.1111V0H8.66667V1.5H4.33333V0H2.88889V1.5H1.44444C0.647833 1.5 0 2.17275 0 3V13.5C0 14.3273 0.647833 15 1.44444 15ZM11.5556 4.5L11.5563 13.5H1.44444V4.5H11.5556Z" fill="white" fill-opacity="0.5"/>
</svg>
