<svg width="33" height="33" viewBox="0 0 33 33" fill="none" xmlns="http://www.w3.org/2000/svg">
<rect x="32.5" y="32.5" width="32" height="32" rx="16" transform="rotate(-180 32.5 32.5)" stroke="#808FA7" stroke-opacity="0.5"/>
<path d="M22.4243 15.67C22.6586 15.9043 22.6586 16.2842 22.4243 16.5185L18.6059 20.3369C18.3716 20.5712 17.9917 20.5712 17.7574 20.3369C17.523 20.1026 17.523 19.7227 17.7574 19.4884L21.1515 16.0942L17.7574 12.7001C17.523 12.4658 17.523 12.0859 17.7574 11.8516C17.9917 11.6173 18.3716 11.6173 18.6059 11.8516L22.4243 15.67ZM10 15.4942L22 15.4942L22 16.6942L10 16.6942L10 15.4942Z" fill="#808FA7"/>
</svg>
