<svg width="11" height="14" viewBox="0 0 11 14" fill="none" xmlns="http://www.w3.org/2000/svg">
<path d="M5.5 8.4C7.01661 8.4 8.24997 7.1442 8.24997 5.6C8.24997 4.0558 7.01661 2.8 5.5 2.8C3.98339 2.8 2.75003 4.0558 2.75003 5.6C2.75003 7.1442 3.98339 8.4 5.5 8.4ZM5.5 4.2C6.25831 4.2 6.87499 4.8279 6.87499 5.6C6.87499 6.3721 6.25831 7 5.5 7C4.7417 7 4.12502 6.3721 4.12502 5.6C4.12502 4.8279 4.7417 4.2 5.5 4.2Z" fill="#FF7544"/>
<path d="M5.10125 13.8698C5.22088 13.9566 5.36044 14 5.5 14C5.63956 14 5.77912 13.9566 5.89875 13.8698C6.10774 13.7193 11.0199 10.108 10.9999 5.6C10.9999 2.5123 8.53253 0 5.5 0C2.46747 0 6.05253e-05 2.5123 6.05253e-05 5.5965C-0.0198768 10.108 4.89226 13.7193 5.10125 13.8698ZM5.5 1.4C7.77491 1.4 9.62495 3.2837 9.62495 5.6035C9.63939 8.7101 6.60824 11.4996 5.5 12.4145C4.39245 11.4989 1.36061 8.7087 1.37505 5.6C1.37505 3.2837 3.22509 1.4 5.5 1.4Z" fill="#FF7544"/>
</svg>
