<svg width="15" height="15" viewBox="0 0 15 15" fill="none" xmlns="http://www.w3.org/2000/svg">
<path opacity="0.5" d="M13.4919 14.1768L13.6687 14.3535L13.8455 14.1768L14.1768 13.8455L14.3536 13.6687L14.1768 13.4919L11.0218 10.3371L11.1729 10.1429C11.9412 9.15515 12.4031 7.91974 12.4031 6.57623C12.4031 3.36406 9.78896 0.75 6.57657 0.75C3.36419 0.75 0.75 3.36406 0.75 6.57623C0.75 9.7884 3.36419 12.4025 6.57657 12.4025C7.9202 12.4025 9.15569 11.9405 10.1427 11.173L10.3369 11.022L13.4919 14.1768ZM6.57657 1.71873C9.25584 1.71873 11.4343 3.89709 11.4343 6.57623C11.4343 9.25537 9.25584 11.4337 6.57657 11.4337C3.89731 11.4337 1.71881 9.25537 1.71881 6.57623C1.71881 3.89709 3.89731 1.71873 6.57657 1.71873Z" fill="white" stroke="white" stroke-width="0.5"/>
</svg>
