<svg width="31" height="35" viewBox="0 0 31 35" fill="none" xmlns="http://www.w3.org/2000/svg">
<g opacity="0.1">
<path d="M0.637911 14.5016C0.251789 14.6603 0 15.0343 0 15.449V22.5192C0 28.2703 4.71503 32.9492 10.5107 32.9492C12.1194 32.9492 13.6318 33.5709 14.7694 34.6996C14.9711 34.8999 15.2355 35 15.5 35C15.7644 35 16.0289 34.8999 16.2306 34.6997C17.3682 33.5709 18.8807 32.9493 20.4893 32.9493C26.2849 32.9493 31 28.2704 31 22.5193V15.5173C31 15.1026 30.7482 14.7286 30.3621 14.57C29.9758 14.4112 29.5314 14.499 29.236 14.7923L23.036 20.9447C22.7404 21.238 22.652 21.679 22.8119 22.0622C22.9719 22.4454 23.3487 22.6945 23.7666 22.6945H24.6961C24.216 25.0318 22.1284 26.7968 19.6333 26.7968H19.5793L19.0213 16.4744H21.6999C22.2706 16.4744 22.7333 16.0153 22.7333 15.449V11.3474C22.7333 10.7811 22.2706 10.322 21.6999 10.322H18.6885L18.6293 9.2056C20.272 7.96869 21.0202 5.88575 20.5044 3.8316C20.045 2.00173 18.4803 0.5086 16.6108 0.116144C13.3299 -0.572655 10.3333 1.89228 10.3333 5.12661C10.3333 6.73048 11.1003 8.2407 12.3707 9.20403L12.3114 10.322H9.29993C8.72926 10.322 8.2666 10.7811 8.2666 11.3474V15.449C8.2666 16.0153 8.72926 16.4744 9.29993 16.4744H11.9786L11.4205 26.7968H11.3666C8.85835 26.7968 6.76179 24.9825 6.29631 22.6269L7.26764 22.6263C7.67911 22.6127 8.04319 22.358 8.19433 21.978C8.34554 21.598 8.25502 21.1652 7.9639 20.8764L1.7639 14.724C1.4685 14.4306 1.0239 14.3429 0.637911 14.5016ZM2.06667 17.9246L4.85529 20.6918C4.43562 20.8232 4.13333 21.2124 4.13333 21.6698C4.13333 25.6277 7.37821 28.8476 11.3667 28.8476H12.4C12.9492 28.8476 13.4024 28.4213 13.4319 27.8772L14.1008 15.504C14.1326 14.9168 13.6608 14.4236 13.0689 14.4236H10.3333V12.3728H13.2919C13.8415 12.3728 14.295 11.9459 14.3238 11.4013L14.4652 8.73173C14.4855 8.3472 14.2872 7.98387 13.9515 7.79075C12.9944 7.24018 12.3999 6.21935 12.3999 5.12661C12.3999 3.24527 14.1342 1.6924 16.183 2.12252C17.2959 2.35611 18.2267 3.24219 18.4991 4.32734C18.8975 5.91412 18.0575 7.21017 17.0483 7.79068C16.7127 7.98373 16.5143 8.34714 16.5346 8.73166L16.6761 11.4012C16.7049 11.9458 17.1584 12.3727 17.708 12.3727H20.6665V14.4235H17.931C17.3384 14.4235 16.8674 14.9174 16.8991 15.5039L17.568 27.8771C17.5974 28.4213 18.0506 28.8476 18.5999 28.8476H19.6332C23.6217 28.8476 26.8665 25.6276 26.8665 21.6697C26.8665 21.23 26.5877 20.855 26.1958 20.7093L28.9332 17.9929V22.5193C28.9332 27.1395 25.1453 30.8985 20.4892 30.8985C18.6571 30.8985 16.9179 31.4989 15.4999 32.6057C14.0819 31.4989 12.3426 30.8985 10.5105 30.8985C5.85452 30.8985 2.06653 27.1396 2.06653 22.5193L2.06667 17.9246Z" fill="white"/>
<path d="M15.5 6.15192C16.0707 6.15192 16.5333 5.69283 16.5333 5.12652C16.5333 4.56021 16.0707 4.10113 15.5 4.10113C14.9293 4.10113 14.4667 4.56021 14.4667 5.12652C14.4667 5.69283 14.9293 6.15192 15.5 6.15192Z" fill="white"/>
</g>
</svg>
