<svg width="19" height="36" viewBox="0 0 19 36" fill="none" xmlns="http://www.w3.org/2000/svg">
<g opacity="0.1">
<path d="M9.50007 0C4.26174 0 7.04627e-05 4.25025 7.04627e-05 9.47454V9.93867C7.04627e-05 10.8003 0.341157 11.6057 0.960441 12.2066C1.57951 12.8073 2.39754 13.1254 3.26097 13.1015C4.96161 13.0551 6.34513 11.6165 6.34513 9.8948V9.47461C6.34513 8.62685 6.67994 7.8312 7.28788 7.2341C7.88375 6.64868 8.66759 6.32812 9.5 6.32812C9.51636 6.32812 9.53292 6.32827 9.54935 6.32848C11.2618 6.35456 12.6549 7.79449 12.6549 9.53831V12.8684C12.6549 13.6252 12.0376 14.241 11.2787 14.241H4.19047C1.87985 14.241 0 16.1158 0 18.4202V31.0845C0 33.7949 2.211 36 4.92869 36H14.0713C16.789 36 19 33.7949 19 31.0845V9.47454C19.0001 4.25025 14.7384 0 9.50007 0ZM16.885 31.0845C16.885 32.6318 15.6228 33.8906 14.0714 33.8906H4.92876C3.3773 33.8906 2.11511 32.6318 2.11511 31.0845V18.4203C2.11511 17.2789 3.04616 16.3504 4.19054 16.3504H11.2788C13.2039 16.3504 14.7701 14.7884 14.7701 12.8685V9.53838C14.7701 6.64896 12.4425 4.26298 9.58164 4.21945C8.16132 4.19864 6.81834 4.73477 5.80382 5.73117C4.78895 6.72799 4.23016 8.05739 4.23016 9.47461V9.8948C4.23016 10.4849 3.7695 10.9775 3.20309 10.9929C2.91679 11.0011 2.64176 10.8949 2.4354 10.6948C2.2289 10.4944 2.11518 10.2259 2.11518 9.93874V9.47461C2.11511 5.41336 5.42798 2.10938 9.50007 2.10938C13.5722 2.10938 16.885 5.41336 16.885 9.47454V31.0845Z" fill="white"/>
<path d="M12.6382 29.9876H6.36208C5.77805 29.9876 5.30456 30.4598 5.30456 31.0423C5.30456 31.6247 5.77805 32.0969 6.36208 32.0969H12.6382C13.2222 32.0969 13.6957 31.6247 13.6957 31.0423C13.6957 30.4598 13.2222 29.9876 12.6382 29.9876Z" fill="white"/>
<path d="M9.50008 27.6415C11.725 27.6415 13.535 25.8362 13.535 23.6174C13.535 21.3985 11.725 19.5932 9.50008 19.5932C7.2752 19.5932 5.46514 21.3985 5.46514 23.6173C5.46514 25.8362 7.2752 27.6415 9.50008 27.6415ZM9.50008 21.7026C10.5587 21.7026 11.42 22.5616 11.42 23.6173C11.42 24.6731 10.5587 25.5321 9.50008 25.5321C8.44143 25.5321 7.58019 24.6731 7.58019 23.6174C7.58019 22.5617 8.44143 21.7026 9.50008 21.7026Z" fill="white"/>
</g>
</svg>
