<svg width="30" height="30" viewBox="0 0 30 30" fill="none" xmlns="http://www.w3.org/2000/svg">
<path d="M15 30C6.7292 30 0 23.2708 0 15C0 6.7292 6.7292 0 15 0C23.2708 0 30 6.7292 30 15C30 23.2708 23.2708 30 15 30ZM15 1.49878C7.55506 1.49878 1.49878 7.55506 1.49878 15C1.49878 22.4449 7.55506 28.5012 15 28.5012C22.4449 28.5012 28.5012 22.4449 28.5012 15C28.5012 7.55506 22.4449 1.49878 15 1.49878Z" fill="white" fill-opacity="0.23"/>
<path d="M18.9702 18.9703C18.8234 19.1171 18.6337 19.1905 18.438 19.1905C18.2422 19.1905 18.0526 19.1171 17.9058 18.9703L14.9938 16.0584L12.0819 18.9703C11.9351 19.1171 11.7455 19.1905 11.5497 19.1905C11.354 19.1905 11.1643 19.1171 11.0175 18.9703C10.7239 18.6766 10.7239 18.2056 11.0175 17.9119L13.9416 15L11.0297 12.0881C10.7361 11.7945 10.7361 11.3234 11.0297 11.0298C11.3234 10.7362 11.7944 10.7362 12.0881 11.0298L15 13.9417L17.9119 11.0298C18.2055 10.7362 18.6766 10.7362 18.9702 11.0298C19.2638 11.3234 19.2638 11.7945 18.9702 12.0881L16.0583 15L18.9702 17.9119C19.2638 18.2056 19.2638 18.6766 18.9702 18.9703Z" fill="white" fill-opacity="0.23"/>
</svg>
