<svg width="34" height="23" viewBox="0 0 34 23" fill="none" xmlns="http://www.w3.org/2000/svg">
<g opacity="0.1">
<path d="M1.78766 5.31028C2.77419 4.35326 4.1747 3.42287 5.83804 2.6196C9.23465 0.979319 13.4074 0 17 0C20.5926 0 24.7653 0.979319 28.162 2.6196C29.8254 3.42287 31.2259 4.35326 32.2124 5.31028C33.3985 6.46113 34 7.63924 34 8.81199C34 10.6441 32.8902 12.4339 30.7907 13.9879C29.911 14.639 29.0351 15.1195 28.4565 15.4074V17.6166C28.4565 20.585 25.9751 23 22.925 23H11.075C8.02486 23 5.54346 20.585 5.54346 17.6166V15.4074C4.96493 15.1196 4.08903 14.6391 3.20928 13.9879C1.10978 12.4339 0 10.6441 0 8.81199C0 7.63924 0.601509 6.46113 1.78766 5.31028ZM7.7609 17.6165C7.7609 19.395 9.2476 20.8419 11.075 20.8419H22.925C24.7525 20.8419 26.2392 19.395 26.2392 17.6165V15.8065H7.7609V17.6165ZM6.88739 13.6484H27.1125C28.5824 12.9885 31.7826 11.079 31.7826 8.81199C31.7826 7.57584 29.9746 5.90403 27.1764 4.55277C24.0713 3.05332 20.2671 2.15808 17 2.15808C13.7329 2.15808 9.92866 3.05332 6.82357 4.55277C4.02548 5.90409 2.21737 7.57591 2.21737 8.81199C2.21737 11.0796 5.41908 12.9895 6.88739 13.6484Z" fill="white"/>
<path d="M15.0397 8.4314C15.2477 9.10076 15.5566 9.48963 15.8913 9.71389V7.43915H14.7825V5.28114H15.8913V4.41169H18.1086V5.28114H19.2174V7.43915H18.1086V9.71408C18.4432 9.48989 18.7521 9.10089 18.9602 8.43133L21.0826 9.05616C20.4681 11.0332 18.9804 12.1671 16.9993 12.1671C15.0195 12.1671 13.5317 11.0332 12.9172 9.05616L15.0397 8.4314Z" fill="white"/>
</g>
</svg>
