<svg width="27" height="35" viewBox="0 0 27 35" fill="none" xmlns="http://www.w3.org/2000/svg">
<path opacity="0.1" d="M14.817 18.9161V13.4211C16.1647 12.8727 17.1218 11.5095 17.1218 9.91772C17.1218 7.84344 15.4973 6.15582 13.5001 6.15582C11.5027 6.15582 9.87816 7.84344 9.87816 9.91772C9.87816 11.5095 10.8353 12.8727 12.183 13.4211V18.9161C10.65 18.3513 9.54881 16.8308 9.54881 15.0476H6.91461C6.91461 18.8189 9.8689 21.8873 13.5001 21.8873C17.1311 21.8873 20.0854 18.8189 20.0854 15.0476H17.4512C17.4512 16.8308 16.35 18.3513 14.817 18.9161ZM13.5001 8.89179C14.0447 8.89179 14.4879 9.35188 14.4879 9.91772C14.4879 10.4833 14.0447 10.9436 13.5001 10.9436C12.9553 10.9436 12.5121 10.4833 12.5121 9.91772C12.5121 9.35188 12.9553 8.89179 13.5001 8.89179ZM13.5001 0C6.05616 0 0 6.29013 0 14.0217V14.4091C0 18.3192 2.15832 22.8758 6.41533 27.952C9.50125 31.632 12.5442 34.1978 12.6723 34.3055L13.5001 35L14.3277 34.3055C14.4558 34.1978 17.4987 31.632 20.5847 27.952C24.8417 22.8758 27 18.3192 27 14.4091V14.0217C27 6.29013 20.9438 0 13.5001 0ZM24.3658 14.4091C24.3658 21.017 16.1683 29.0162 13.5001 31.4445C10.831 29.0154 2.63421 21.0168 2.63421 14.4091V14.0217C2.63421 7.79858 7.5085 2.73598 13.5001 2.73598C19.4915 2.73598 24.3658 7.79858 24.3658 14.0217V14.4091Z" fill="white"/>
</svg>
