<svg width="36" height="38" viewBox="0 0 36 38" fill="none" xmlns="http://www.w3.org/2000/svg">
<g opacity="0.1">
<mask id="path-1-outside-1" maskUnits="userSpaceOnUse" x="0" y="0" width="36" height="38" fill="black">
<rect fill="white" width="36" height="38"/>
<path d="M18.1289 8.50002C16.068 8.50002 14.3899 6.81702 14.3899 4.75005C14.3899 2.68307 16.0664 1 18.1289 1C20.1898 1 21.8679 2.683 21.8679 4.74998C21.8679 6.81695 20.1898 8.50002 18.1289 8.50002ZM18.1289 2.49998C16.892 2.49998 15.8855 3.50945 15.8855 4.74998C15.8855 5.9905 16.892 6.99998 18.1289 6.99998C19.3658 6.99998 20.3723 5.9905 20.3723 4.74998C20.3723 3.50952 19.3642 2.49998 18.1289 2.49998Z"/>
<path d="M7.53103 10C5.47011 10 3.79204 8.317 3.79204 6.25002C3.79204 4.18305 5.46864 2.50005 7.53103 2.50005C9.59195 2.50005 11.27 4.18305 11.27 6.25002C11.27 8.317 9.59195 10 7.53103 10ZM7.53103 4.00002C6.29414 4.00002 5.28762 5.0095 5.28762 6.25002C5.28762 7.49055 6.29267 8.50002 7.53103 8.50002C8.76792 8.50002 9.77444 7.49055 9.77444 6.25002C9.77444 5.0095 8.76637 4.00002 7.53103 4.00002Z"/>
<path d="M1.01765 22.4725L1.97635 14.7865C2.20819 12.913 3.80396 11.5015 5.68548 11.5015H9.37812C9.79392 11.5015 10.2127 11.575 10.624 11.722C11.0129 11.86 11.2162 12.289 11.0786 12.679C10.9395 13.0691 10.5133 13.2745 10.1244 13.135C9.87461 13.0465 9.62335 13.0015 9.37812 13.0015H5.68548C4.55627 13.0015 3.60058 13.849 3.46002 14.9725L2.50131 22.6585C2.47439 22.8745 2.53868 23.0845 2.68225 23.248C2.82583 23.4115 3.02472 23.5015 3.24311 23.5015H3.79197C4.18534 23.5015 4.50986 23.8045 4.53825 24.1975L5.23672 34.0015H9.82673L9.99127 31.6975C10.0212 31.285 10.3727 30.97 10.7899 31.003C11.2012 31.0315 11.5123 31.3915 11.4824 31.804L11.2685 34.8041C11.2385 35.1956 10.9125 35.5001 10.5222 35.5001H4.5398C4.14797 35.5001 3.82191 35.1956 3.79499 34.8056L3.09651 24.9971C2.50727 24.9581 1.95539 24.6881 1.56203 24.2411C1.13585 23.7565 0.936886 23.113 1.01765 22.4725Z"/>
<path d="M11.279 28.606L12.3633 23.0995C11.617 22.612 11.1743 21.703 11.285 20.7355L12.2736 13.6435C12.5084 11.566 14.1491 10 16.0859 10H19.9057C21.844 10 23.4847 11.566 23.718 13.624L24.711 20.7535C24.8202 21.7044 24.3775 22.612 23.6312 23.098L24.7155 28.6045C24.7589 28.8235 24.7021 29.053 24.56 29.2255C24.4194 29.3995 24.204 29.5 23.9826 29.5H21.4401L20.2317 36.3805C20.1674 36.739 19.8578 37 19.4958 37H16.5046C16.1412 37 15.8316 36.739 15.7643 36.382L14.5558 29.5015H12.0133C11.7904 29.5015 11.5781 29.401 11.436 29.227C11.294 29.0545 11.2357 28.825 11.279 28.606ZM13.9502 22.8115L12.9272 28H15.1885C15.5505 28 15.8616 28.261 15.9244 28.6195L17.1313 35.5H18.8677L20.0792 28.618C20.142 28.2595 20.4516 27.9985 20.815 27.9985H23.0749L22.0534 22.81C21.9771 22.4215 22.2149 22.0405 22.5963 21.94C23.0121 21.8306 23.2828 21.3941 23.2319 20.9425L22.2389 13.813C22.0893 12.4945 21.0888 11.5 19.9117 11.5H16.0919C14.9149 11.5 13.9144 12.4945 13.7618 13.8325L12.7732 20.9245C12.7194 21.3955 12.9916 21.832 13.4059 21.9415C13.7871 22.042 14.0249 22.423 13.9502 22.8115Z"/>
<path d="M25.2091 31.0015C25.6174 30.9625 25.9778 31.2835 26.0077 31.696L26.1723 34H30.7637L31.4607 24.196C31.4891 23.8045 31.8151 23.5 32.2085 23.5H32.7574C32.9757 23.5 33.1746 23.41 33.3182 23.2465C33.4618 23.083 33.5261 22.8745 33.4992 22.657L32.5404 14.971C32.4014 13.8475 31.4457 13 30.315 13H26.6223C26.4549 13 26.2769 13.0255 26.0585 13.084C25.6577 13.183 25.2494 12.949 25.1446 12.5485C25.04 12.148 25.2792 11.7371 25.6786 11.632C26.0241 11.542 26.3232 11.5 26.6238 11.5H30.3151C32.1965 11.5 33.7909 12.9116 34.0242 14.785L34.9828 22.471C35.0621 23.1115 34.8647 23.755 34.4384 24.2395C34.0451 24.6865 33.4932 24.9565 32.9039 24.9955L32.2055 34.804C32.1771 35.1955 31.851 35.5 31.4607 35.5H25.4783C25.0865 35.5 24.7604 35.1955 24.732 34.8025L24.5181 31.8025C24.4882 31.39 24.7993 31.0315 25.2091 31.0015Z"/>
<path d="M28.4695 10C26.4086 10 24.7305 8.317 24.7305 6.25002C24.7305 4.18305 26.4071 2.50005 28.4695 2.50005C30.5304 2.50005 32.2085 4.18305 32.2085 6.25002C32.2085 8.317 30.5304 10 28.4695 10ZM28.4695 4.00002C27.2326 4.00002 26.2261 5.0095 26.2261 6.25002C26.2261 7.49055 27.2311 8.50002 28.4695 8.50002C29.7049 8.50002 30.7129 7.49055 30.7129 6.25002C30.7129 5.0095 29.7049 4.00002 28.4695 4.00002Z"/>
</mask>
<path d="M18.1289 8.50002C16.068 8.50002 14.3899 6.81702 14.3899 4.75005C14.3899 2.68307 16.0664 1 18.1289 1C20.1898 1 21.8679 2.683 21.8679 4.74998C21.8679 6.81695 20.1898 8.50002 18.1289 8.50002ZM18.1289 2.49998C16.892 2.49998 15.8855 3.50945 15.8855 4.74998C15.8855 5.9905 16.892 6.99998 18.1289 6.99998C19.3658 6.99998 20.3723 5.9905 20.3723 4.74998C20.3723 3.50952 19.3642 2.49998 18.1289 2.49998Z" fill="white"/>
<path d="M7.53103 10C5.47011 10 3.79204 8.317 3.79204 6.25002C3.79204 4.18305 5.46864 2.50005 7.53103 2.50005C9.59195 2.50005 11.27 4.18305 11.27 6.25002C11.27 8.317 9.59195 10 7.53103 10ZM7.53103 4.00002C6.29414 4.00002 5.28762 5.0095 5.28762 6.25002C5.28762 7.49055 6.29267 8.50002 7.53103 8.50002C8.76792 8.50002 9.77444 7.49055 9.77444 6.25002C9.77444 5.0095 8.76637 4.00002 7.53103 4.00002Z" fill="white"/>
<path d="M1.01765 22.4725L1.97635 14.7865C2.20819 12.913 3.80396 11.5015 5.68548 11.5015H9.37812C9.79392 11.5015 10.2127 11.575 10.624 11.722C11.0129 11.86 11.2162 12.289 11.0786 12.679C10.9395 13.0691 10.5133 13.2745 10.1244 13.135C9.87461 13.0465 9.62335 13.0015 9.37812 13.0015H5.68548C4.55627 13.0015 3.60058 13.849 3.46002 14.9725L2.50131 22.6585C2.47439 22.8745 2.53868 23.0845 2.68225 23.248C2.82583 23.4115 3.02472 23.5015 3.24311 23.5015H3.79197C4.18534 23.5015 4.50986 23.8045 4.53825 24.1975L5.23672 34.0015H9.82673L9.99127 31.6975C10.0212 31.285 10.3727 30.97 10.7899 31.003C11.2012 31.0315 11.5123 31.3915 11.4824 31.804L11.2685 34.8041C11.2385 35.1956 10.9125 35.5001 10.5222 35.5001H4.5398C4.14797 35.5001 3.82191 35.1956 3.79499 34.8056L3.09651 24.9971C2.50727 24.9581 1.95539 24.6881 1.56203 24.2411C1.13585 23.7565 0.936886 23.113 1.01765 22.4725Z" fill="white"/>
<path d="M11.279 28.606L12.3633 23.0995C11.617 22.612 11.1743 21.703 11.285 20.7355L12.2736 13.6435C12.5084 11.566 14.1491 10 16.0859 10H19.9057C21.844 10 23.4847 11.566 23.718 13.624L24.711 20.7535C24.8202 21.7044 24.3775 22.612 23.6312 23.098L24.7155 28.6045C24.7589 28.8235 24.7021 29.053 24.56 29.2255C24.4194 29.3995 24.204 29.5 23.9826 29.5H21.4401L20.2317 36.3805C20.1674 36.739 19.8578 37 19.4958 37H16.5046C16.1412 37 15.8316 36.739 15.7643 36.382L14.5558 29.5015H12.0133C11.7904 29.5015 11.5781 29.401 11.436 29.227C11.294 29.0545 11.2357 28.825 11.279 28.606ZM13.9502 22.8115L12.9272 28H15.1885C15.5505 28 15.8616 28.261 15.9244 28.6195L17.1313 35.5H18.8677L20.0792 28.618C20.142 28.2595 20.4516 27.9985 20.815 27.9985H23.0749L22.0534 22.81C21.9771 22.4215 22.2149 22.0405 22.5963 21.94C23.0121 21.8306 23.2828 21.3941 23.2319 20.9425L22.2389 13.813C22.0893 12.4945 21.0888 11.5 19.9117 11.5H16.0919C14.9149 11.5 13.9144 12.4945 13.7618 13.8325L12.7732 20.9245C12.7194 21.3955 12.9916 21.832 13.4059 21.9415C13.7871 22.042 14.0249 22.423 13.9502 22.8115Z" fill="white"/>
<path d="M25.2091 31.0015C25.6174 30.9625 25.9778 31.2835 26.0077 31.696L26.1723 34H30.7637L31.4607 24.196C31.4891 23.8045 31.8151 23.5 32.2085 23.5H32.7574C32.9757 23.5 33.1746 23.41 33.3182 23.2465C33.4618 23.083 33.5261 22.8745 33.4992 22.657L32.5404 14.971C32.4014 13.8475 31.4457 13 30.315 13H26.6223C26.4549 13 26.2769 13.0255 26.0585 13.084C25.6577 13.183 25.2494 12.949 25.1446 12.5485C25.04 12.148 25.2792 11.7371 25.6786 11.632C26.0241 11.542 26.3232 11.5 26.6238 11.5H30.3151C32.1965 11.5 33.7909 12.9116 34.0242 14.785L34.9828 22.471C35.0621 23.1115 34.8647 23.755 34.4384 24.2395C34.0451 24.6865 33.4932 24.9565 32.9039 24.9955L32.2055 34.804C32.1771 35.1955 31.851 35.5 31.4607 35.5H25.4783C25.0865 35.5 24.7604 35.1955 24.732 34.8025L24.5181 31.8025C24.4882 31.39 24.7993 31.0315 25.2091 31.0015Z" fill="white"/>
<path d="M28.4695 10C26.4086 10 24.7305 8.317 24.7305 6.25002C24.7305 4.18305 26.4071 2.50005 28.4695 2.50005C30.5304 2.50005 32.2085 4.18305 32.2085 6.25002C32.2085 8.317 30.5304 10 28.4695 10ZM28.4695 4.00002C27.2326 4.00002 26.2261 5.0095 26.2261 6.25002C26.2261 7.49055 27.2311 8.50002 28.4695 8.50002C29.7049 8.50002 30.7129 7.49055 30.7129 6.25002C30.7129 5.0095 29.7049 4.00002 28.4695 4.00002Z" fill="white"/>
<path d="M18.1289 8.50002C16.068 8.50002 14.3899 6.81702 14.3899 4.75005C14.3899 2.68307 16.0664 1 18.1289 1C20.1898 1 21.8679 2.683 21.8679 4.74998C21.8679 6.81695 20.1898 8.50002 18.1289 8.50002ZM18.1289 2.49998C16.892 2.49998 15.8855 3.50945 15.8855 4.74998C15.8855 5.9905 16.892 6.99998 18.1289 6.99998C19.3658 6.99998 20.3723 5.9905 20.3723 4.74998C20.3723 3.50952 19.3642 2.49998 18.1289 2.49998Z" stroke="white" stroke-width="0.2" mask="url(#path-1-outside-1)"/>
<path d="M7.53103 10C5.47011 10 3.79204 8.317 3.79204 6.25002C3.79204 4.18305 5.46864 2.50005 7.53103 2.50005C9.59195 2.50005 11.27 4.18305 11.27 6.25002C11.27 8.317 9.59195 10 7.53103 10ZM7.53103 4.00002C6.29414 4.00002 5.28762 5.0095 5.28762 6.25002C5.28762 7.49055 6.29267 8.50002 7.53103 8.50002C8.76792 8.50002 9.77444 7.49055 9.77444 6.25002C9.77444 5.0095 8.76637 4.00002 7.53103 4.00002Z" stroke="white" stroke-width="0.2" mask="url(#path-1-outside-1)"/>
<path d="M1.01765 22.4725L1.97635 14.7865C2.20819 12.913 3.80396 11.5015 5.68548 11.5015H9.37812C9.79392 11.5015 10.2127 11.575 10.624 11.722C11.0129 11.86 11.2162 12.289 11.0786 12.679C10.9395 13.0691 10.5133 13.2745 10.1244 13.135C9.87461 13.0465 9.62335 13.0015 9.37812 13.0015H5.68548C4.55627 13.0015 3.60058 13.849 3.46002 14.9725L2.50131 22.6585C2.47439 22.8745 2.53868 23.0845 2.68225 23.248C2.82583 23.4115 3.02472 23.5015 3.24311 23.5015H3.79197C4.18534 23.5015 4.50986 23.8045 4.53825 24.1975L5.23672 34.0015H9.82673L9.99127 31.6975C10.0212 31.285 10.3727 30.97 10.7899 31.003C11.2012 31.0315 11.5123 31.3915 11.4824 31.804L11.2685 34.8041C11.2385 35.1956 10.9125 35.5001 10.5222 35.5001H4.5398C4.14797 35.5001 3.82191 35.1956 3.79499 34.8056L3.09651 24.9971C2.50727 24.9581 1.95539 24.6881 1.56203 24.2411C1.13585 23.7565 0.936886 23.113 1.01765 22.4725Z" stroke="white" stroke-width="0.2" mask="url(#path-1-outside-1)"/>
<path d="M11.279 28.606L12.3633 23.0995C11.617 22.612 11.1743 21.703 11.285 20.7355L12.2736 13.6435C12.5084 11.566 14.1491 10 16.0859 10H19.9057C21.844 10 23.4847 11.566 23.718 13.624L24.711 20.7535C24.8202 21.7044 24.3775 22.612 23.6312 23.098L24.7155 28.6045C24.7589 28.8235 24.7021 29.053 24.56 29.2255C24.4194 29.3995 24.204 29.5 23.9826 29.5H21.4401L20.2317 36.3805C20.1674 36.739 19.8578 37 19.4958 37H16.5046C16.1412 37 15.8316 36.739 15.7643 36.382L14.5558 29.5015H12.0133C11.7904 29.5015 11.5781 29.401 11.436 29.227C11.294 29.0545 11.2357 28.825 11.279 28.606ZM13.9502 22.8115L12.9272 28H15.1885C15.5505 28 15.8616 28.261 15.9244 28.6195L17.1313 35.5H18.8677L20.0792 28.618C20.142 28.2595 20.4516 27.9985 20.815 27.9985H23.0749L22.0534 22.81C21.9771 22.4215 22.2149 22.0405 22.5963 21.94C23.0121 21.8306 23.2828 21.3941 23.2319 20.9425L22.2389 13.813C22.0893 12.4945 21.0888 11.5 19.9117 11.5H16.0919C14.9149 11.5 13.9144 12.4945 13.7618 13.8325L12.7732 20.9245C12.7194 21.3955 12.9916 21.832 13.4059 21.9415C13.7871 22.042 14.0249 22.423 13.9502 22.8115Z" stroke="white" stroke-width="0.2" mask="url(#path-1-outside-1)"/>
<path d="M25.2091 31.0015C25.6174 30.9625 25.9778 31.2835 26.0077 31.696L26.1723 34H30.7637L31.4607 24.196C31.4891 23.8045 31.8151 23.5 32.2085 23.5H32.7574C32.9757 23.5 33.1746 23.41 33.3182 23.2465C33.4618 23.083 33.5261 22.8745 33.4992 22.657L32.5404 14.971C32.4014 13.8475 31.4457 13 30.315 13H26.6223C26.4549 13 26.2769 13.0255 26.0585 13.084C25.6577 13.183 25.2494 12.949 25.1446 12.5485C25.04 12.148 25.2792 11.7371 25.6786 11.632C26.0241 11.542 26.3232 11.5 26.6238 11.5H30.3151C32.1965 11.5 33.7909 12.9116 34.0242 14.785L34.9828 22.471C35.0621 23.1115 34.8647 23.755 34.4384 24.2395C34.0451 24.6865 33.4932 24.9565 32.9039 24.9955L32.2055 34.804C32.1771 35.1955 31.851 35.5 31.4607 35.5H25.4783C25.0865 35.5 24.7604 35.1955 24.732 34.8025L24.5181 31.8025C24.4882 31.39 24.7993 31.0315 25.2091 31.0015Z" stroke="white" stroke-width="0.2" mask="url(#path-1-outside-1)"/>
<path d="M28.4695 10C26.4086 10 24.7305 8.317 24.7305 6.25002C24.7305 4.18305 26.4071 2.50005 28.4695 2.50005C30.5304 2.50005 32.2085 4.18305 32.2085 6.25002C32.2085 8.317 30.5304 10 28.4695 10ZM28.4695 4.00002C27.2326 4.00002 26.2261 5.0095 26.2261 6.25002C26.2261 7.49055 27.2311 8.50002 28.4695 8.50002C29.7049 8.50002 30.7129 7.49055 30.7129 6.25002C30.7129 5.0095 29.7049 4.00002 28.4695 4.00002Z" stroke="white" stroke-width="0.2" mask="url(#path-1-outside-1)"/>
</g>
</svg>
