<svg width="37" height="37" viewBox="0 0 37 37" fill="none" xmlns="http://www.w3.org/2000/svg">
<path opacity="0.1" d="M1.02736 30.2286C0.797576 30.9876 1.09155 31.8078 1.75159 32.2477L7.0016 35.7477C7.29733 35.945 7.64476 36.05 7.99997 36.05H29C29.3552 36.05 29.7027 35.945 29.9984 35.7476C29.9984 35.7476 29.9984 35.7476 29.9984 35.7476L35.2484 32.2476C35.9085 31.8078 36.2024 30.9876 35.9726 30.2286C35.7429 29.4691 35.0432 28.95 34.25 28.95H2.74995C1.95676 28.95 1.25714 29.469 1.02736 30.2286ZM1.02736 30.2286L1.07521 30.2431L1.02735 30.2286C1.02735 30.2286 1.02735 30.2286 1.02736 30.2286ZM21.6594 6.2324L21.6592 6.23244C20.8126 6.39564 20.2 7.13722 20.2 8.00002V25.5C20.2 26.4942 21.0058 27.3 22 27.3H29C29.5971 27.3 30.1556 27.0037 30.4904 26.5092C30.8252 26.0149 30.8931 25.3861 30.671 24.8316C30.671 24.8316 30.671 24.8316 30.671 24.8316L23.671 7.33163C23.3938 6.63859 22.7248 6.20002 22.0006 6.20002C21.8877 6.20002 21.7737 6.21086 21.6594 6.2324ZM17.1904 1.00463V1.00463L17.1902 1.0046C17.0434 0.968011 16.8959 0.95 16.75 0.95C16.0996 0.95 15.4846 1.30399 15.1653 1.89682L15.2094 1.92053L15.1653 1.89682L2.91531 24.6468C2.61471 25.2049 2.63035 25.8792 2.95488 26.4234L2.9549 26.4234C3.27954 26.967 3.86638 27.3 4.49996 27.3H16.75C17.7442 27.3 18.55 26.4942 18.55 25.5V2.75C18.55 1.92559 17.9896 1.20622 17.1904 1.00463ZM22.05 25.45V8.25965L28.9262 25.45H22.05ZM16.7 25.45H4.58367L16.7 2.94832V25.45ZM34.0849 30.8L28.9849 34.2H8.01511L2.91509 30.8H34.0849Z" fill="white" stroke="white" stroke-width="0.1"/>
</svg>
