<svg width="15" height="17" viewBox="0 0 15 17" fill="none" xmlns="http://www.w3.org/2000/svg">
<path d="M3.33333 7.65H5V9.35H3.33333V7.65ZM3.33333 11.05H5V12.75H3.33333V11.05ZM6.66667 7.65H8.33333V9.35H6.66667V7.65ZM6.66667 11.05H8.33333V12.75H6.66667V11.05ZM10 7.65H11.6667V9.35H10V7.65ZM10 11.05H11.6667V12.75H10V11.05Z" fill="#808FA7"/>
<path d="M1.66667 17H13.3333C14.2525 17 15 16.2376 15 15.3V3.4C15 2.46245 14.2525 1.7 13.3333 1.7H11.6667V0H10V1.7H5V0H3.33333V1.7H1.66667C0.7475 1.7 0 2.46245 0 3.4V15.3C0 16.2376 0.7475 17 1.66667 17ZM13.3333 5.1L13.3342 15.3H1.66667V5.1H13.3333Z" fill="#808FA7"/>
</svg>
