<svg width="20" height="19" viewBox="0 0 20 19" fill="none" xmlns="http://www.w3.org/2000/svg">
<path fill-rule="evenodd" clip-rule="evenodd" d="M0.531165 8.82456L3.28804 1.47389C3.50694 0.891799 4.07266 0.5 4.693 0.5H18C18.8269 0.5 19.5 1.17314 19.5 2V11C19.5 11.8269 18.8269 12.5 18 12.5H15.2348L10.3853 18.3194C10.2886 18.4345 10.1478 18.5 10 18.5H8.388C7.90734 18.5 7.45196 18.2668 7.16955 17.8765C6.88888 17.4873 6.81216 16.9809 6.96436 16.5251L8.30565 12.5H2C1.17314 12.5 0.5 11.8269 0.5 11V9C0.5 8.93824 0.510819 8.87882 0.531165 8.82456ZM7.69219 17.5H9.76517L14.5 11.819V1.5H4.34651L1.5 9.09033V11.5H9C9.16075 11.5 9.31156 11.5771 9.40529 11.7072C9.50006 11.8388 9.52507 12.0056 9.47428 12.156L7.69219 17.5ZM15.5 1.5V11.5H18.5011L18.4999 1.5H15.5Z" fill="#FF7544"/>
</svg>
