<svg width="9" height="12" viewBox="0 0 9 12" fill="none" xmlns="http://www.w3.org/2000/svg">
<path d="M8.46281 3.06138C8.67544 2.82994 8.79244 2.52258 8.79244 2.19562C8.79244 1.86867 8.67544 1.5613 8.46281 1.32986L7.57069 0.358794C7.35806 0.127353 7.07569 0 6.77531 0C6.47494 0 6.19256 0.127353 5.9805 0.358182L0 6.8477V9.5509H2.48231L8.46281 3.06138ZM6.77531 1.22455L7.668 2.19501L6.77362 3.16486L5.8815 2.1944L6.77531 1.22455ZM1.125 8.32634V7.35589L5.085 3.05893L5.97713 4.03L2.01769 8.32634H1.125ZM0 10.7754H9V12H0V10.7754Z" fill="#808FA7"/>
</svg>
