<svg width="60" height="47" viewBox="0 0 60 47" fill="none" xmlns="http://www.w3.org/2000/svg">
<path d="M23.1817 19.1334H36.818C37.5721 19.1334 38.1816 18.5211 38.1816 17.7668C38.1816 17.0124 37.5721 16.4002 36.818 16.4002H23.1817C22.429 16.4002 21.8181 17.0124 21.8181 17.7668C21.8181 18.5211 22.429 19.1334 23.1817 19.1334Z" fill="#808FA7" fill-opacity="0.25"/>
<path d="M17.7272 24.6H42.2726C43.0267 24.6 43.6362 23.9877 43.6362 23.2334C43.6362 22.4791 43.0267 21.8668 42.2726 21.8668H17.7272C16.9745 21.8668 16.3636 22.4791 16.3636 23.2334C16.3636 23.9877 16.9745 24.6 17.7272 24.6Z" fill="#808FA7" fill-opacity="0.25"/>
<path d="M29.9999 32.8C19.4727 32.8 10.909 41.3826 10.909 51.9334C10.909 62.4842 19.4727 71.0666 29.9999 71.0666C40.5271 71.0666 49.0909 62.484 49.0909 51.9332C49.0909 41.3825 40.5271 32.8 29.9999 32.8ZM34.9009 46.2028C33.4595 46.3641 31.8463 46.4666 29.9999 46.4666C28.1521 46.4666 26.5389 46.3641 25.099 46.2028C26.205 40.7389 28.684 37.4753 29.9999 36.0635C31.3172 37.4782 33.7949 40.7404 34.9009 46.2028ZM35.2908 48.913C35.3876 49.8711 35.4544 50.8659 35.4544 51.9334C35.4544 53.0008 35.3876 53.9943 35.292 54.9511C33.7306 54.7774 31.9974 54.6668 30.0217 54.6668C28.0294 54.6668 26.2799 54.7789 24.7089 54.9551C24.6121 53.997 24.5453 53.0021 24.5453 51.9334C24.5453 50.8661 24.6121 49.8711 24.7089 48.913C26.2743 49.0879 28.0157 49.2 29.9998 49.2C31.9838 49.2 33.7241 49.0879 35.2908 48.913ZM26.6264 35.8873C25.1113 37.9564 23.3182 41.2188 22.4113 45.7943C18.9 45.0987 16.9554 44.0298 16.0568 43.3931C18.3722 39.6114 22.159 36.8303 26.6264 35.8873ZM13.6363 51.9334C13.6363 49.7905 14.0604 47.7472 14.8104 45.8695C16.1113 46.732 18.3694 47.8239 22.0104 48.5182C21.8972 49.602 21.8181 50.7268 21.8181 51.9335C21.8181 53.1416 21.8972 54.2678 22.0118 55.3516C18.3709 56.0473 16.1127 57.1405 14.8104 58.0015C14.0617 56.1221 13.6363 54.0776 13.6363 51.9334ZM16.0595 60.4777C16.9677 59.8341 18.9177 58.7708 22.4113 58.0765C23.3194 62.6494 25.1127 65.9102 26.6264 67.9794C22.1604 67.0364 18.3749 64.2579 16.0595 60.4777ZM25.1004 57.6665C26.5458 57.5039 28.1659 57.4 30.0218 57.4C31.8586 57.4 33.4663 57.5025 34.9009 57.6611C33.7949 63.1277 31.3159 66.3913 29.9999 67.8031C28.684 66.3899 26.205 63.1264 25.1004 57.6665ZM33.3749 67.9794C34.8885 65.9104 36.6817 62.6453 37.59 58.0683C41.0931 58.7599 43.0432 59.8232 43.9486 60.4627C41.6344 64.2512 37.8449 67.035 33.3749 67.9794ZM46.3635 51.9334C46.3635 54.0723 45.9394 56.1112 45.1949 57.9863C43.8871 57.1239 41.6277 56.0347 37.9895 55.3446C38.1026 54.2622 38.1817 53.1387 38.1817 51.9334C38.1817 50.7266 38.1014 49.6018 37.9881 48.5195C41.6235 47.8279 43.8858 46.7387 45.1935 45.8777C45.9394 47.7527 46.3635 49.7931 46.3635 51.9334ZM37.5886 45.7943C36.6817 41.2201 34.8885 37.9564 33.3749 35.8873C37.8436 36.8303 41.6317 39.6142 43.9485 43.3999C43.0309 44.0463 41.0754 45.1042 37.5886 45.7943Z" fill="#808FA7" fill-opacity="0.25"/>
<path d="M53.1818 5.46661H51.8182V4.1C51.8182 1.83955 49.9827 0 47.7273 0H4.09091C1.83547 0 0 1.83955 0 4.1V80.6334C0 81.3877 0.61092 82 1.36358 82H53.1818C57.0053 82 60 78.9988 60 75.1666V12.3C59.9998 8.53216 56.9412 5.46661 53.1818 5.46661ZM57.2727 75.1666C57.2727 77.4653 55.4768 79.2666 53.1818 79.2666H2.72716V4.1C2.72716 3.34695 3.33936 2.73339 4.09075 2.73339H47.7271C48.4798 2.73339 49.0907 3.34695 49.0907 4.1V5.46661H6.81807C6.06541 5.46661 5.45449 6.07889 5.45449 6.83323C5.45449 7.58756 6.06541 8.19984 6.81807 8.19984H53.1816C55.3988 8.19984 57.2725 10.0777 57.2725 12.2998V75.1666H57.2727Z" fill="#808FA7" fill-opacity="0.25"/>
</svg>
