<svg width="30" height="30" viewBox="0 0 30 30" fill="none" xmlns="http://www.w3.org/2000/svg">
<path d="M14.2105 9.47368V7.89474H15.7895V9.47368H14.2105Z" fill="#FF7544"/>
<path d="M14.2105 22.1053V14.2105H15.7895V22.1053H14.2105Z" fill="#FF7544"/>
<path fill-rule="evenodd" clip-rule="evenodd" d="M0 15C0 6.7297 6.7297 0 15 0C23.2703 0 30 6.7297 30 15C30 23.2703 23.2703 30 15 30C6.7297 30 0 23.2703 0 15ZM15 1.57895C7.59925 1.57895 1.57895 7.59925 1.57895 15C1.57895 22.4008 7.59925 28.4211 15 28.4211C22.4008 28.4211 28.4211 22.4008 28.4211 15C28.4211 7.59925 22.4008 1.57895 15 1.57895Z" fill="#FF7544"/>
</svg>
