<svg width="44" height="49" viewBox="0 0 44 49" fill="none" xmlns="http://www.w3.org/2000/svg">
<path d="M42.874 23.543H35.7908V0.957106C35.7908 0.570082 35.5576 0.221053 35.2 0.0729044C34.8423 -0.0753397 34.4307 0.00677353 34.1571 0.280293L31.4459 2.99137L28.7349 0.280389C28.3612 -0.0933319 27.7552 -0.0933319 27.3814 0.280389L24.6703 2.99147L21.9595 0.280389C21.5858 -0.0933319 20.9798 -0.0933319 20.606 0.280389L17.8949 2.99147L15.1837 0.280389C14.81 -0.0933319 14.204 -0.0933319 13.8303 0.280389L11.1192 2.99147L8.40832 0.280389C8.0346 -0.0933319 7.42861 -0.0933319 7.05479 0.280389L4.34371 2.99147L1.63273 0.280389C1.2613 -0.091035 0.660577 -0.0929491 0.285899 0.275125C0.0891332 0.468541 -0.00628292 0.72627 0.000320596 0.982275V44.0236C0.000320596 46.7676 2.23269 49 4.97669 49H38.8533C38.8531 49 38.8535 49 38.8533 49C38.8536 49 38.8544 49 38.8546 49C41.5986 49 43.831 46.7676 43.831 44.0236V24.5C43.831 23.9714 43.4025 23.543 42.874 23.543ZM4.97669 47.0859C3.28801 47.0859 1.91429 45.7121 1.91429 44.0235V3.26881L3.66699 5.02152C4.04072 5.39524 4.64671 5.39524 5.02052 5.02152L7.7316 2.31044L10.4427 5.02152C10.8164 5.39524 11.4224 5.39524 11.7962 5.02152L14.5073 2.31044L17.2185 5.02152C17.5922 5.39524 18.1982 5.39524 18.5719 5.02152L21.283 2.31044L23.994 5.02152C24.3678 5.39524 24.9738 5.39524 25.3476 5.02152L28.0587 2.31044L30.7697 5.02152C31.1436 5.39524 31.7495 5.39524 32.1232 5.02152L33.8773 3.26747V24.5C33.8773 24.5087 33.8784 24.5172 33.8787 24.5259V44.0235C33.8787 45.1779 34.2749 46.2408 34.9368 47.0859H4.97669ZM41.917 44.0235C41.917 45.7121 40.5431 47.0859 38.8545 47.0859C37.166 47.0859 35.7921 45.7121 35.7921 44.0235V25.457H41.917V44.0235Z" fill="#808FA7"/>
<path d="M17.8949 15.2029C16.9451 15.2029 16.1723 14.5412 16.1723 13.728C16.1723 12.9147 16.9452 12.253 17.8949 12.253C18.8448 12.253 19.6175 12.9147 19.6175 13.728C19.6175 14.2566 20.0459 14.685 20.5745 14.685C21.1031 14.685 21.5315 14.2566 21.5315 13.728C21.5315 12.168 20.3942 10.8517 18.8519 10.4591V9.81079C18.8519 9.28222 18.4235 8.85376 17.8949 8.85376C17.3663 8.85376 16.9379 9.28222 16.9379 9.81079V10.4591C15.3955 10.8517 14.2583 12.1681 14.2583 13.728C14.2583 15.5966 15.8897 17.1169 17.8949 17.1169C18.8448 17.1169 19.6175 17.7786 19.6175 18.5918C19.6175 19.4051 18.8448 20.0667 17.8949 20.0667C16.9451 20.0667 16.1723 19.405 16.1723 18.5918C16.1723 18.0633 15.7439 17.6348 15.2153 17.6348C14.6868 17.6348 14.2583 18.0633 14.2583 18.5918C14.2583 20.1519 15.3956 21.4682 16.9379 21.8608V22.6417C16.9379 23.1703 17.3663 23.5987 17.8949 23.5987C18.4235 23.5987 18.8519 23.1703 18.8519 22.6417V21.8608C20.3943 21.4682 21.5315 20.1519 21.5315 18.5918C21.5315 16.7232 19.9001 15.2029 17.8949 15.2029Z" fill="#808FA7"/>
<path d="M27.5102 15.203H25.645C25.1164 15.203 24.688 15.6315 24.688 16.16C24.688 16.6886 25.1164 17.1171 25.645 17.1171H27.5102C28.0388 17.1171 28.4673 16.6886 28.4673 16.16C28.4673 15.6315 28.0388 15.203 27.5102 15.203Z" fill="#808FA7"/>
<path d="M10.1459 15.203H8.28065C7.75208 15.203 7.32362 15.6315 7.32362 16.16C7.32362 16.6886 7.75208 17.1171 8.28065 17.1171H10.1459C10.6745 17.1171 11.1029 16.6886 11.1029 16.16C11.1029 15.6315 10.6745 15.203 10.1459 15.203Z" fill="#808FA7"/>
<path d="M27.9944 25.8405H12.8328C12.3042 25.8405 11.8757 26.2689 11.8757 26.7975C11.8757 27.3261 12.3042 27.7546 12.8328 27.7546H27.9944C28.5229 27.7546 28.9514 27.3261 28.9514 26.7975C28.9513 26.2689 28.5229 25.8405 27.9944 25.8405Z" fill="#808FA7"/>
<path d="M8.47261 26.1209C8.2946 25.9429 8.04769 25.8405 7.79599 25.8405C7.54429 25.8405 7.29737 25.9429 7.11937 26.1209C6.94136 26.2989 6.83896 26.5458 6.83896 26.7975C6.83896 27.0492 6.94136 27.2961 7.11937 27.4741C7.29737 27.6522 7.54429 27.7546 7.79599 27.7546C8.04769 27.7546 8.2946 27.6522 8.47261 27.4741C8.65062 27.2961 8.75302 27.0492 8.75302 26.7975C8.75302 26.5458 8.65062 26.2989 8.47261 26.1209Z" fill="#808FA7"/>
<path d="M27.9944 32.1567H12.8328C12.3042 32.1567 11.8757 32.5852 11.8757 33.1137C11.8757 33.6423 12.3042 34.0708 12.8328 34.0708H27.9944C28.5229 34.0708 28.9514 33.6423 28.9514 33.1137C28.9513 32.5852 28.5229 32.1567 27.9944 32.1567Z" fill="#808FA7"/>
<path d="M8.47261 32.4371C8.2946 32.2591 8.04769 32.1567 7.79599 32.1567C7.54429 32.1567 7.29737 32.2591 7.11937 32.4371C6.94136 32.6151 6.83896 32.862 6.83896 33.1137C6.83896 33.3654 6.94136 33.6124 7.11937 33.7904C7.29737 33.9684 7.54429 34.0708 7.79599 34.0708C8.04769 34.0708 8.2946 33.9684 8.47261 33.7904C8.65062 33.6124 8.75302 33.3654 8.75302 33.1137C8.75302 32.862 8.65062 32.6151 8.47261 32.4371Z" fill="#808FA7"/>
<path d="M27.9944 38.4729H12.8328C12.3042 38.4729 11.8757 38.9014 11.8757 39.43C11.8757 39.9585 12.3042 40.387 12.8328 40.387H27.9944C28.5229 40.387 28.9514 39.9585 28.9514 39.43C28.9514 38.9014 28.5229 38.4729 27.9944 38.4729Z" fill="#808FA7"/>
<path d="M8.47261 38.7533C8.2946 38.5753 8.04769 38.4729 7.79599 38.4729C7.54429 38.4729 7.29737 38.5753 7.11937 38.7533C6.94136 38.9313 6.83896 39.1783 6.83896 39.43C6.83896 39.6817 6.94136 39.9286 7.11937 40.1066C7.29737 40.2846 7.54429 40.387 7.79599 40.387C8.04769 40.387 8.2946 40.2846 8.47261 40.1066C8.65062 39.9286 8.75302 39.6817 8.75302 39.43C8.75302 39.1783 8.65062 38.9313 8.47261 38.7533Z" fill="#808FA7"/>
</svg>
