<svg width="45" height="49" viewBox="0 0 45 49" fill="none" xmlns="http://www.w3.org/2000/svg">
<path d="M43.4599 23.5431H36.3767V0.957136C36.3767 0.570113 36.1435 0.221083 35.786 0.0729349C35.4282 -0.0753092 35.0166 0.00680405 34.743 0.280324L32.0318 2.9914L29.3208 0.280419C28.9471 -0.0933014 28.3411 -0.0933014 27.9673 0.280419L25.2562 2.9915L22.5454 0.280419C22.1717 -0.0933014 21.5657 -0.0933014 21.1919 0.280419L18.4808 2.9915L15.7697 0.280419C15.3959 -0.0933014 14.7899 -0.0933014 14.4162 0.280419L11.7051 2.9915L8.99426 0.280419C8.62053 -0.0933014 8.01454 -0.0933014 7.64073 0.280419L4.92965 2.9915L2.21867 0.280419C1.84724 -0.0910045 1.24651 -0.0929186 0.871836 0.275156C0.675071 0.468572 0.579655 0.7263 0.586258 0.982306V44.0236C0.586258 46.7676 2.81863 49 5.56263 49H39.4392C39.439 49 39.4394 49 39.4392 49C39.4395 49 39.4403 49 39.4406 49C42.1846 49 44.417 46.7676 44.417 44.0236V24.5C44.417 23.9714 43.9885 23.5431 43.4599 23.5431ZM5.56263 47.0859C3.87395 47.0859 2.50022 45.7121 2.50022 44.0235V3.26884L4.25293 5.02155C4.62665 5.39527 5.23264 5.39527 5.60646 5.02155L8.31754 2.31047L11.0286 5.02155C11.4023 5.39527 12.0083 5.39527 12.3821 5.02155L15.0932 2.31047L17.8044 5.02155C18.1781 5.39527 18.7841 5.39527 19.1578 5.02155L21.8689 2.31047L24.58 5.02155C24.9537 5.39527 25.5597 5.39527 25.9335 5.02155L28.6446 2.31047L31.3557 5.02155C31.7295 5.39527 32.3355 5.39527 32.7091 5.02155L34.4633 3.2675V24.5C34.4633 24.5087 34.4643 24.5172 34.4646 24.5259V44.0235C34.4646 45.1779 34.8608 46.2408 35.5228 47.0859H5.56263ZM42.5029 44.0235C42.5029 45.7121 41.1291 47.0859 39.4405 47.0859C37.7519 47.0859 36.3781 45.7121 36.3781 44.0235V25.457H42.5029V44.0235Z" fill="#00204E"/>
<path d="M18.4808 15.2029C17.531 15.2029 16.7583 14.5412 16.7583 13.728C16.7583 12.9148 17.5311 12.2531 18.4808 12.2531C19.4307 12.2531 20.2034 12.9148 20.2034 13.728C20.2034 14.2566 20.6319 14.6851 21.1604 14.6851C21.689 14.6851 22.1175 14.2566 22.1175 13.728C22.1175 12.168 20.9801 10.8517 19.4379 10.4591V9.81082C19.4379 9.28225 19.0094 8.85379 18.4808 8.85379C17.9523 8.85379 17.5238 9.28225 17.5238 9.81082V10.4591C15.9815 10.8517 14.8442 12.1681 14.8442 13.728C14.8442 15.5966 16.4757 17.1169 18.4808 17.1169C19.4307 17.1169 20.2034 17.7786 20.2034 18.5919C20.2034 19.4052 19.4307 20.0667 18.4808 20.0667C17.531 20.0667 16.7583 19.4051 16.7583 18.5919C16.7583 18.0633 16.3298 17.6348 15.8013 17.6348C15.2727 17.6348 14.8442 18.0633 14.8442 18.5919C14.8442 20.1519 15.9816 21.4682 17.5238 21.8608V22.6417C17.5238 23.1703 17.9523 23.5988 18.4808 23.5988C19.0094 23.5988 19.4379 23.1703 19.4379 22.6417V21.8608C20.9802 21.4682 22.1175 20.1519 22.1175 18.5919C22.1175 16.7233 20.486 15.2029 18.4808 15.2029Z" fill="#00204E"/>
<path d="M28.0962 15.203H26.2309C25.7024 15.203 25.2739 15.6315 25.2739 16.1601C25.2739 16.6886 25.7024 17.1171 26.2309 17.1171H28.0962C28.6247 17.1171 29.0532 16.6886 29.0532 16.1601C29.0532 15.6315 28.6247 15.203 28.0962 15.203Z" fill="#00204E"/>
<path d="M10.7318 15.203H8.86658C8.33802 15.203 7.90955 15.6315 7.90955 16.1601C7.90955 16.6886 8.33802 17.1171 8.86658 17.1171H10.7318C11.2604 17.1171 11.6889 16.6886 11.6889 16.1601C11.6889 15.6315 11.2604 15.203 10.7318 15.203Z" fill="#00204E"/>
<path d="M28.5803 25.8405H13.4187C12.8901 25.8405 12.4617 26.269 12.4617 26.7975C12.4617 27.3261 12.8901 27.7546 13.4187 27.7546H28.5803C29.1089 27.7546 29.5373 27.3261 29.5373 26.7975C29.5372 26.269 29.1089 25.8405 28.5803 25.8405Z" fill="#00204E"/>
<path d="M9.05855 26.1209C8.88054 25.9429 8.63362 25.8405 8.38193 25.8405C8.13023 25.8405 7.88331 25.9429 7.7053 26.1209C7.5273 26.2989 7.42489 26.5458 7.42489 26.7975C7.42489 27.0492 7.5273 27.2962 7.7053 27.4742C7.88331 27.6522 8.13023 27.7546 8.38193 27.7546C8.63362 27.7546 8.88054 27.6522 9.05855 27.4742C9.23655 27.2962 9.33896 27.0492 9.33896 26.7975C9.33896 26.5458 9.23655 26.2989 9.05855 26.1209Z" fill="#00204E"/>
<path d="M28.5803 32.1567H13.4187C12.8901 32.1567 12.4617 32.5852 12.4617 33.1138C12.4617 33.6423 12.8901 34.0708 13.4187 34.0708H28.5803C29.1089 34.0708 29.5373 33.6423 29.5373 33.1138C29.5372 32.5852 29.1089 32.1567 28.5803 32.1567Z" fill="#00204E"/>
<path d="M9.05855 32.4371C8.88054 32.2591 8.63362 32.1567 8.38193 32.1567C8.13023 32.1567 7.88331 32.2591 7.7053 32.4371C7.5273 32.6152 7.42489 32.8621 7.42489 33.1138C7.42489 33.3655 7.5273 33.6124 7.7053 33.7904C7.88331 33.9684 8.13023 34.0708 8.38193 34.0708C8.63362 34.0708 8.88054 33.9684 9.05855 33.7904C9.23655 33.6124 9.33896 33.3655 9.33896 33.1138C9.33896 32.8621 9.23655 32.6152 9.05855 32.4371Z" fill="#00204E"/>
<path d="M28.5803 38.473H13.4187C12.8901 38.473 12.4617 38.9014 12.4617 39.43C12.4617 39.9586 12.8901 40.387 13.4187 40.387H28.5803C29.1089 40.387 29.5373 39.9586 29.5373 39.43C29.5373 38.9014 29.1089 38.473 28.5803 38.473Z" fill="#00204E"/>
<path d="M9.05855 38.7534C8.88054 38.5754 8.63362 38.473 8.38193 38.473C8.13023 38.473 7.88331 38.5754 7.7053 38.7534C7.5273 38.9314 7.42489 39.1783 7.42489 39.43C7.42489 39.6817 7.5273 39.9286 7.7053 40.1066C7.88331 40.2846 8.13023 40.387 8.38193 40.387C8.63362 40.387 8.88054 40.2846 9.05855 40.1066C9.23655 39.9286 9.33896 39.6817 9.33896 39.43C9.33896 39.1783 9.23655 38.9314 9.05855 38.7534Z" fill="#00204E"/>
</svg>
