<svg width="32" height="30" viewBox="0 0 32 30" fill="none" xmlns="http://www.w3.org/2000/svg">
<path fill-rule="evenodd" clip-rule="evenodd" d="M0.0524876 16.1257L4.69565 28.3768C5.06432 29.347 6.01712 30 7.06189 30H29.4737C30.8663 30 32 28.8781 32 27.5V12.5C32 11.1219 30.8663 10 29.4737 10H24.8165L16.6489 0.30094C16.4861 0.109114 16.2489 0 16 0H13.2851C12.4755 0 11.7086 0.388731 11.2329 1.0391C10.7602 1.68775 10.631 2.53184 10.8873 3.29155L13.1464 10H2.52632C1.13371 10 0 11.1219 0 12.5V15.8333C0 15.9363 0.0182216 16.0353 0.0524876 16.1257ZM12.1132 1.66667H15.6045L23.5789 11.1349V28.3333H6.47832L1.68421 15.6828V11.6667H14.3158C14.5865 11.6667 14.8405 11.5382 14.9984 11.3213C15.158 11.102 15.2001 10.8239 15.1146 10.5733L12.1132 1.66667ZM25.2632 28.3333V11.6667H30.3176L30.3157 28.3333H25.2632Z" fill="#FF7544"/>
</svg>
