<svg width="22" height="15" viewBox="0 0 22 15" fill="none" xmlns="http://www.w3.org/2000/svg">
<path d="M21.2599 1.56199H12.7741C12.3661 1.56199 12.0354 1.90416 12.0354 2.32605C12.0354 2.74794 12.3661 3.09011 12.7741 3.09011H21.2599C21.6679 3.09011 21.9986 2.74794 21.9986 2.32605C21.9986 1.90416 21.6679 1.56199 21.2599 1.56199Z" fill="#FF7544"/>
<path d="M21.2599 11.9099H12.7741C12.3661 11.9099 12.0354 12.2519 12.0354 12.674C12.0354 13.0958 12.3661 13.438 12.7741 13.438H21.2599C21.6679 13.438 21.9986 13.0958 21.9986 12.674C21.9986 12.2519 21.6679 11.9099 21.2599 11.9099Z" fill="#FF7544"/>
<path d="M21.2614 5.98182H16.1257C15.7179 5.98182 15.3871 6.32399 15.3871 6.74588C15.3871 7.16776 15.7179 7.50993 16.1257 7.50993H21.2614C21.6693 7.50993 22 7.16776 22 6.74588C22 6.32399 21.6693 5.98182 21.2614 5.98182Z" fill="#FF7544"/>
<path d="M21.2614 8.94573H16.1257C15.7179 8.94573 15.3871 9.2879 15.3871 9.70979C15.3871 10.1318 15.7179 10.4738 16.1257 10.4738H21.2614C21.6693 10.4738 22 10.1318 22 9.70979C22 9.2879 21.6693 8.94573 21.2614 8.94573Z" fill="#FF7544"/>
<path d="M5.15068 7.85694C7.24394 7.85694 8.94695 6.09464 8.94695 3.92854C8.94695 1.7623 7.24394 0 5.15068 0C3.05682 0 1.35331 1.7623 1.35331 3.92854C1.35331 6.09464 3.05682 7.85694 5.15068 7.85694ZM5.15068 1.91028C6.22575 1.91028 7.1004 2.81568 7.1004 3.92866C7.1004 5.04151 6.22587 5.94692 5.15068 5.94692C4.07501 5.94692 3.19986 5.04151 3.19986 3.92866C3.19986 2.81568 4.07501 1.91028 5.15068 1.91028Z" fill="#FF7544"/>
<path d="M6.61952 8.56293H3.70418C1.66165 8.56293 0 10.2817 0 12.3944V14.0449C0 14.5724 0.413259 15 0.923276 15C1.43329 15 1.84655 14.5724 1.84655 14.0449V12.3944C1.84655 11.3351 2.67996 10.4731 3.70418 10.4731H6.61952C7.64374 10.4731 8.47715 11.3349 8.47715 12.3944V14.0449C8.47715 14.5724 8.89041 15 9.40043 15C9.91045 15 10.3237 14.5724 10.3237 14.0449V12.3944C10.3237 10.2817 8.66193 8.56293 6.61952 8.56293Z" fill="#FF7544"/>
</svg>
