<svg width="20" height="20" viewBox="0 0 20 20" fill="none" xmlns="http://www.w3.org/2000/svg">
<path d="M10 4C7.831 4 6.066 5.765 6.066 7.934H8.066C8.066 6.867 8.934 6 10 6C11.066 6 11.934 6.867 11.934 7.934C11.934 8.532 11.453 8.966 10.718 9.56C10.463 9.767 10.222 9.964 10.027 10.159C9.029 11.156 9 12.215 9 12.333V12.5H11L10.999 12.367C11 12.351 11.032 11.981 11.44 11.574C11.59 11.424 11.779 11.274 11.975 11.116C12.754 10.485 13.933 9.532 13.933 7.934C13.934 5.765 12.169 4 10 4ZM9 14H11V16H9V14Z" fill="#BCCBE3"/>
<path d="M10 0C4.486 0 0 4.486 0 10C0 15.514 4.486 20 10 20C15.514 20 20 15.514 20 10C20 4.486 15.514 0 10 0ZM10 18C5.589 18 2 14.411 2 10C2 5.589 5.589 2 10 2C14.411 2 18 5.589 18 10C18 14.411 14.411 18 10 18Z" fill="#BCCBE3"/>
</svg>
