<svg width="16" height="17" viewBox="0 0 16 17" fill="none" xmlns="http://www.w3.org/2000/svg">
<path d="M15.9959 3.77356L15.9727 3.24112L15.4298 3.18668C13.3444 2.97755 11.5516 2.21767 10.4148 1.61703C9.16967 0.95917 8.41493 0.341984 8.40801 0.336288L8.00041 0L7.59255 0.335803C7.58505 0.341966 6.83032 0.95917 5.58525 1.61701C4.44845 2.21765 2.65565 2.97754 0.570213 3.18666L0.0272802 3.2411L0.00409941 3.77354C-5.09548e-05 3.86886 -0.0872659 6.13968 0.808524 8.88943C1.33711 10.5121 2.10047 11.9659 3.07739 13.2108C4.30412 14.774 5.86881 16.0062 7.728 16.8731L7.99999 17L8.27198 16.8731C10.1312 16.0062 11.6959 14.7741 12.9226 13.2108C13.8995 11.966 14.6629 10.5121 15.1915 8.88945C16.0872 6.13972 16.0001 3.8689 15.9959 3.77356ZM7.99999 15.63C6.44896 14.8604 5.13622 13.8019 4.09456 12.4805C3.20724 11.3548 2.51069 10.034 2.0242 8.5549C1.42961 6.74697 1.29626 5.1346 1.26927 4.34288C2.10575 4.2216 2.95139 4.01753 3.79072 3.73411C4.61123 3.45705 5.42788 3.10378 6.21796 2.68416C7.01963 2.2584 7.62965 1.85174 7.99997 1.58582C8.37029 1.85172 8.98034 2.2584 9.78201 2.68416C10.5721 3.1038 11.3887 3.45705 12.2092 3.73411C13.0488 4.01763 13.8947 4.22169 14.7314 4.34297C14.7054 5.12693 14.5747 6.71658 13.9885 8.51587C13.5043 10.0023 12.8085 11.3297 11.9206 12.4612C10.8764 13.7917 9.55856 14.8567 7.99999 15.63Z" fill="white" fill-opacity="0.5"/>
<path d="M11.4402 5.6963L7.2775 9.76094L5.38794 7.9159L4.94165 8.35167V8.35169L4.49535 8.78748L7.2775 11.5041L12.3328 6.56789L11.4402 5.6963Z" fill="white" fill-opacity="0.5"/>
</svg>
