<svg width="15" height="15" viewBox="0 0 15 15" fill="none" xmlns="http://www.w3.org/2000/svg">
<g opacity="0.5">
<path fill-rule="evenodd" clip-rule="evenodd" d="M4.06944 4.34855C4.06944 2.56949 5.60993 1.1235 7.5 1.1235C9.39007 1.1235 10.9306 2.56949 10.9306 4.34855C10.9306 6.12761 9.39007 7.57359 7.5 7.57359C5.60993 7.57359 4.06944 6.12761 4.06944 4.34855ZM7.5 1.80457C6.00524 1.80457 4.79167 2.94672 4.79167 4.34855C4.79167 5.75038 6.00524 6.89253 7.5 6.89253C8.99476 6.89253 10.2083 5.75038 10.2083 4.34855C10.2083 2.94672 8.99476 1.80457 7.5 1.80457Z" fill="white"/>
<path d="M1 13.7232C1 11.1494 3.22885 9.05591 5.96528 9.05591H9.03472C11.7704 9.05591 14 11.1495 14 13.7232V14.0637H13.2778V13.7232C13.2778 11.526 11.3759 9.73698 9.03472 9.73698H5.96528C3.62411 9.73698 1.72222 11.526 1.72222 13.7232V14.0637H1V13.7232Z" fill="white"/>
<path fill-rule="evenodd" clip-rule="evenodd" d="M4.06944 4.34855C4.06944 2.56949 5.60993 1.1235 7.5 1.1235C9.39007 1.1235 10.9306 2.56949 10.9306 4.34855C10.9306 6.12761 9.39007 7.57359 7.5 7.57359C5.60993 7.57359 4.06944 6.12761 4.06944 4.34855ZM7.5 1.80457C6.00524 1.80457 4.79167 2.94672 4.79167 4.34855C4.79167 5.75038 6.00524 6.89253 7.5 6.89253C8.99476 6.89253 10.2083 5.75038 10.2083 4.34855C10.2083 2.94672 8.99476 1.80457 7.5 1.80457Z" stroke="white" stroke-width="0.5"/>
<path d="M1 13.7232C1 11.1494 3.22885 9.05591 5.96528 9.05591H9.03472C11.7704 9.05591 14 11.1495 14 13.7232V14.0637H13.2778V13.7232C13.2778 11.526 11.3759 9.73698 9.03472 9.73698H5.96528C3.62411 9.73698 1.72222 11.526 1.72222 13.7232V14.0637H1V13.7232Z" stroke="white" stroke-width="0.5"/>
</g>
</svg>
