<svg width="14" height="14" viewBox="0 0 14 14" fill="none" xmlns="http://www.w3.org/2000/svg">
<path d="M7.3293 3.52833C5.45683 3.52833 3.93995 5.04594 3.93995 6.91767C3.93995 8.79014 5.45683 10.3078 7.3293 10.3078C9.20029 10.3078 10.7186 8.79014 10.7186 6.91767C10.7186 5.04594 9.20029 3.52833 7.3293 3.52833ZM7.3293 9.12005C6.113 9.12005 5.12692 8.13397 5.12692 6.91841C5.12692 5.70211 6.113 4.71676 7.3293 4.71676C8.54559 4.71676 9.53021 5.70211 9.53021 6.91841C9.53021 8.13397 8.54559 9.12005 7.3293 9.12005Z" fill="white"/>
<path d="M10.8535 4.19403C11.29 4.19403 11.6439 3.84018 11.6439 3.40369C11.6439 2.9672 11.29 2.61336 10.8535 2.61336C10.4171 2.61336 10.0632 2.9672 10.0632 3.40369C10.0632 3.84018 10.4171 4.19403 10.8535 4.19403Z" fill="white"/>
<path d="M13.586 2.60016C13.2421 1.71378 12.542 1.01289 11.6556 0.670511C11.1431 0.477692 10.6013 0.374318 10.0529 0.362588C9.34692 0.331796 9.12331 0.322998 7.33296 0.322998C5.54261 0.322998 5.31314 0.322998 4.61298 0.362588C4.06605 0.373585 3.52425 0.476959 3.01178 0.670511C2.12467 1.01289 1.42451 1.71378 1.0814 2.60016C0.888582 3.11336 0.785208 3.65443 0.774211 4.20282C0.742685 4.90811 0.733154 5.13172 0.733154 6.92281C0.733154 8.71316 0.733154 8.94117 0.774211 9.64279C0.785208 10.1912 0.888582 10.7322 1.0814 11.2462C1.42525 12.1318 2.1254 12.8327 3.01251 13.1758C3.52279 13.3753 4.06458 13.4882 4.61445 13.5058C5.32047 13.5365 5.54408 13.5461 7.33443 13.5461C9.12478 13.5461 9.35425 13.5461 10.0544 13.5058C10.6021 13.4948 11.1439 13.3906 11.6571 13.1986C12.5435 12.8547 13.2436 12.1546 13.5875 11.2682C13.7803 10.755 13.8836 10.2139 13.8946 9.66552C13.9262 8.96023 13.9357 8.73662 13.9357 6.94553C13.9357 5.15445 13.9357 4.92717 13.8946 4.22555C13.8851 3.66982 13.7825 3.11923 13.586 2.60016ZM12.693 9.58854C12.6879 10.0108 12.6116 10.4295 12.465 10.8261C12.2414 11.4031 11.7861 11.8591 11.2099 12.0805C10.8176 12.2264 10.4041 12.3027 9.9855 12.3085C9.289 12.3408 9.09252 12.3488 7.30657 12.3488C5.51915 12.3488 5.3366 12.3488 4.62691 12.3085C4.20975 12.3034 3.79479 12.2264 3.40328 12.0805C2.82483 11.8598 2.36661 11.4038 2.143 10.8261C1.9993 10.4346 1.92159 10.0204 1.91499 9.60247C1.88347 8.90597 1.87613 8.70949 1.87613 6.92354C1.87613 5.13686 1.87613 4.9543 1.91499 4.24388C1.92012 3.82159 1.99637 3.40369 2.143 3.00706C2.36661 2.4286 2.82483 1.97332 3.40328 1.75191C3.79479 1.60674 4.20975 1.52976 4.62691 1.5239C5.32413 1.49237 5.51989 1.48357 7.30657 1.48357C9.09325 1.48357 9.27654 1.48357 9.9855 1.5239C10.4041 1.52903 10.8176 1.60601 11.2099 1.75191C11.7861 1.97405 12.2414 2.43007 12.465 3.00706C12.6087 3.39856 12.6864 3.81279 12.693 4.23068C12.7245 4.92791 12.7326 5.12366 12.7326 6.91034C12.7326 8.69629 12.7326 8.88838 12.7011 9.58927H12.693V9.58854Z" fill="white"/>
</svg>
