<svg width="15" height="14" viewBox="0 0 15 14" fill="none" xmlns="http://www.w3.org/2000/svg">
<path d="M2.33728 3.55885C3.22322 3.55885 3.94142 2.84065 3.94142 1.95472C3.94142 1.06878 3.22322 0.350586 2.33728 0.350586C1.45135 0.350586 0.733154 1.06878 0.733154 1.95472C0.733154 2.84065 1.45135 3.55885 2.33728 3.55885Z" fill="white"/>
<path d="M5.4561 4.77441V13.6741H8.21934V9.27301C8.21934 8.1117 8.43782 6.98705 9.87772 6.98705C11.2978 6.98705 11.3154 8.31478 11.3154 9.34632V13.6748H14.0801V8.79426C14.0801 6.39687 13.564 4.55446 10.7619 4.55446C9.41657 4.55446 8.5148 5.29274 8.14603 5.99144H8.10863V4.77441H5.4561ZM0.953099 4.77441H3.72074V13.6741H0.953099V4.77441Z" fill="white"/>
</svg>
